<svg width="360" height="220" fill="none" xmlns="http://www.w3.org/2000/svg"><g clip-path="url(#a)"><rect width="360" height="220" rx="8" fill="url(#b)"/><g filter="url(#c)"><path d="M243.95 2.44C310.2-28.18 388.72.7 419.34 66.95c30.62 66.25 1.73 144.78-64.51 175.4-66.25 30.6-144.78 1.72-175.4-64.53-30.61-66.24-1.73-144.77 64.52-175.38Z" fill="#fff" fill-opacity=".05"/><path d="M243.95 2.44C310.2-28.18 388.72.7 419.34 66.95c30.62 66.25 1.73 144.78-64.51 175.4-66.25 30.6-144.78 1.72-175.4-64.53-30.61-66.24-1.73-144.77 64.52-175.38Z" stroke="url(#d)"/><path d="M243.95 2.44C310.2-28.18 388.72.7 419.34 66.95c30.62 66.25 1.73 144.78-64.51 175.4-66.25 30.6-144.78 1.72-175.4-64.53-30.61-66.24-1.73-144.77 64.52-175.38Z" stroke="url(#e)"/></g><path d="M341.59 216.9H223.21c-4.86 0-8.63-3.75-8.29-8.34l6.71-90.4c.26-4.66 3.07-5.33 9.08-5.44l117.8-1.4c4.86 0 8.63 3.75 8.3 8.34l-5.83 88.85c-.32 4.65-4.47 8.4-9.39 8.4Z" fill="#156DC3"/><path d="m216.05 204.08 5.33-85.93c.22-4.65 2.63-5.32 7.8-5.43l101.33-1.4" stroke="#87C0E3" stroke-width=".5" stroke-miterlimit="10"/><path d="M336.9 212.43H227.67c-4.42 0-7.8-3.36-7.54-7.44l5.26-78.89c.26-4.14 1.89-5.2 6.32-5.2l110.2-1.4c4.43 0 6.64 2.69 6.38 6.84l-4.69 80.05c-.26 4.08-2.28 6.04-6.7 6.04Z" fill="#fff"/><path d="M349.76 111.44h-1.04s-.4 14.88-.4 15.68l-3.84 77.93c-.06 1.46-.44 5.99-1.16 7.17l-.66 4.87h1.21c4.18 0 7.8-3.75 8.03-8.34l5-88.85c.23-4.7-2.96-8.46-7.13-8.46Z" fill="#156DC3"/><path d="m354 112.95-5.88 102.74a8.78 8.78 0 0 0 3.73-6.94l5-88.84a8.13 8.13 0 0 0-2.85-6.96ZM288.97 212.77l-63.75-.12 5.4-82.23 63.76-.28-5.41 82.63Z" fill="#2891D2"/><path d="M293.11 201.57c0 1.23.77 2.24 1.76 2.24 1.38 0-.1 0 .22-.05 3.85-.17 1.54-4.2 1.54-4.2s-.06-.56-.11-1.4h-3.73c.21 1.12.32 2.27.32 3.41Z" fill="#A84B35"/><path d="M295.09 200.56h1.48" stroke="#3648AA" stroke-width=".5" stroke-miterlimit="10"/><path d="m210.61 144.7-12.31 10.93c2.87 0 5.63.4 7.9 1.46 10.94 4.92 28.9 6.39 40.42.98 11.53-5.42 19.66-4.83 44.15 10.17.69.38 1.33.76 1.97 1.14v-3.41l-16.04-20.91-66.09-.36Z" fill="#BEDDF0"/><path d="M290.84 167.91c-24.47-14.93-32.67-15.58-44.14-10.17-11.48 5.41-29.49 4.02-40.43-.97a19.51 19.51 0 0 0-7.92-1.46l-23.1 20.45 69.11.65h48.4v-7.52a7.96 7.96 0 0 1-1.92-.98Z" fill="#96C8E6"/><path d="M178.59 172.2h8.28c1.54 0 2.82-1.69 2.82-3.74v-3.74h-11.1c-1.53 0-2.81 1.68-2.81 3.74 0 2.05 1.28 3.73 2.8 3.73Z" fill="#FF7C22" stroke="#A84B35" stroke-width=".5" stroke-miterlimit="10"/><path d="M259.17 199.69c0 6.1 1.7 11.52-2.07 12.82-.59.22-5.74 0-6.38 0-4.68 0-8.44-5.73-8.44-12.82 0-7.1 3.76-12.83 8.44-12.83s8.45 5.74 8.45 12.83Z" fill="#5564AF"/><path d="M245.53 209.6h7.28M243.35 205.64h7.1M242.45 201.69h5.74M243.3 197.74h7.27M243.77 193.84h7.33" stroke="#3648AA" stroke-width=".5" stroke-miterlimit="10"/><path d="M264.76 199.69c0 7.09-3.77 12.87-8.45 12.87-4.67 0-8.44-5.8-8.44-12.87 0-7.08 3.76-12.83 8.44-12.83s8.45 5.74 8.45 12.83Z" fill="#3648AA"/><path d="M246.9 191.84h2.72s5.73-3.68 12.53.32c-2.12-3.14-6.53-6.17-10.3-4.42-3.78 1.75-4.94 4.1-4.94 4.1Z" fill="#3648AA"/><path d="M195.8 199.69c0 6.1 1.7 11.52-2.07 12.82-.59.22-5.74 0-6.38 0-4.67 0-8.44-5.73-8.44-12.82 0-7.1 3.77-12.83 8.44-12.83 4.68 0 8.45 5.74 8.45 12.83Z" fill="#5564AF"/><path d="M182.1 209.6h7.27M179.97 205.64h7.1M179.07 201.69h5.73M179.87 197.74h7.27M180.4 193.84h7.27" stroke="#3648AA" stroke-width=".5" stroke-miterlimit="10"/><path d="M201.38 199.69c0 7.09-3.77 12.87-8.45 12.87-4.67 0-8.44-5.8-8.44-12.87 0-7.08 3.77-12.83 8.44-12.83 4.68 0 8.45 5.74 8.45 12.83Z" fill="#3648AA"/><path d="M183.53 191.84h2.7s5.75-3.68 12.55.32c-2.13-3.14-6.54-6.17-10.31-4.42-3.77 1.75-4.94 4.1-4.94 4.1Z" fill="#3648AA"/><path d="M297.38 203.85h-5.63l-1.23 1.74H190.17v-21.6H294l3.39 19.86Z" fill="#3648AA"/><path d="M231.77 199.69c0 6.1 1.7 11.52-2.07 12.82-.59.22-5.74 0-6.38 0-4.67 0-8.45-5.73-8.45-12.82 0-7.1 3.78-12.83 8.45-12.83 4.68 0 8.45 5.74 8.45 12.83Z" fill="#5564AF"/><path d="M218.11 209.6h7.28M215.83 205.64h7.28M213.5 201.69h7.33M215.88 197.74h7.28M216.41 193.84h7.28" stroke="#3648AA" stroke-width=".5" stroke-miterlimit="10"/><path d="M228.95 212.51c4.67 0 8.45-5.74 8.45-12.82 0-7.09-3.78-12.83-8.45-12.83-4.66 0-8.44 5.74-8.44 12.83 0 7.08 3.78 12.82 8.44 12.82Z" fill="#5564AF"/><path d="M228.95 207.48c2.85 0 5.16-3.5 5.16-7.8s-2.31-7.79-5.16-7.79-5.13 3.49-5.13 7.8c0 4.3 2.28 7.79 5.13 7.79Z" fill="#BEDDF0"/><path d="M288.56 199.69c0 6.1 1.7 11.52-2.07 12.82-.59.22-5.74 0-6.38 0-4.67 0-8.45-5.73-8.45-12.82 0-7.1 3.78-12.83 8.45-12.83s8.45 5.74 8.45 12.83Z" fill="#5564AF"/><path d="M274.9 209.6h7.28M272.62 205.64h7.28M270.28 201.69h7.33M272.67 197.74h7.28M273.2 193.84h7.28" stroke="#3648AA" stroke-width=".5" stroke-miterlimit="10"/><path d="M285.74 212.51c4.67 0 8.45-5.74 8.45-12.82 0-7.09-3.78-12.83-8.45-12.83-4.66 0-8.44 5.74-8.44 12.83 0 7.08 3.78 12.82 8.44 12.82Z" fill="#5564AF"/><path d="M285.74 207.48c2.85 0 5.16-3.5 5.16-7.8s-2.31-7.79-5.16-7.79c-2.84 0-5.15 3.49-5.15 7.8 0 4.3 2.3 7.79 5.15 7.79Z" fill="#BEDDF0"/><path d="m184.54 167.8 23.75-22.08h2.39l-20.5 20.95c-.12.05-.12.33.04.33h24.13c.33-.02.66-.11.95-.28l2.37-1.56c.33-.22.72-.33 1.12-.33h12.43s3.34-.49 3.88 5.03c-21.47-.16-48.45-.8-48.45-.8l-2.11-1.25Z" fill="#FF7C22"/><path d="m222.31 169.7 12.8.06c-.53-5.52-3.87-5.04-3.87-5.04h-1.86l-7.06 4.98Z" fill="#FF7C22"/><path d="M298.92 199.74s-5.2-28.09-5.31-29.93c-.8-7.24-4.74-11.47-4.74-11.47L280 146.43h.05l.53-2.6a.6.6 0 0 0-.14-.8.57.57 0 0 0-.27-.12h-67.9a2.3 2.3 0 0 0-1.75.6l-2.6 2.6h31.55c.48 0 .59.64.21 1.13L223.8 167.9h-36.66c-.37 0-27.3-2.6-27.3 17 0 16.24 6.43 18.9 6.43 18.9h52.1a15.7 15.7 0 0 1-.1-2.76c.31-6.6 4.67-11.9 9.93-12.18 5.9-.27 10.78 5.63 10.78 12.94 0 1.13.75 2.05 1.65 2.05 10.9.06 20.92.06 32.4.11.97 0 1.7-.97 1.7-2.1 0-7.15 4.63-12.94 10.37-12.94 5.73 0 10.38 5.77 10.38 12.92 0 1.2.74 2.16 1.7 2.16 1.33 0-.21 0 .1-.05 3.81-.33 1.64-4.22 1.64-4.22Zm-29.8-25.98h-31.83l-9.35-6h-1.43l16.95-21.44c.35-.32.8-.49 1.27-.49h16.73l1.01.06a1.95 1.95 0 0 1 1.7 1.3c1.58 3.52 5.69 17.05 7.11 20.62.27.68.46 1.38.59 2.1.27 2-1.06 3.85-2.76 3.85Zm19.65-.05h-9.14a5.4 5.4 0 0 1-5.1-3.14l-7.75-23.64a.68.68 0 0 1 .01-.58.64.64 0 0 1 .46-.34l2.72.06c2.44.04 4.83.8 6.85 2.22 6 4.16 11.74 13.9 13.28 22.4.53 3.18-1.33 3.02-1.33 3.02Z" fill="#FF7C22"/><path d="M168.92 178.96c1.44 0-.64-6.39-2.02-6.39h-1.32a10.2 10.2 0 0 0-1.92 1.84 13.05 13.05 0 0 0-2.76 4.55h8.02Z" fill="#BEDDF0"/><path d="M160.95 178.96h7.97c1.44 0-.64-6.39-2.02-6.39h-1.18" stroke="#A84B35" stroke-width=".5" stroke-linecap="round" stroke-linejoin="round"/><path d="M208.77 178.96h-11.8c-1.44 0 3.03-6.39 6.71-6.39h14.08c1.42 0-7.54 6.39-9 6.39Z" fill="#BEDDF0" stroke="#A84B35" stroke-width=".5" stroke-miterlimit="10"/><path d="M194 184.7h-21.73c-.6 0-1.16-.25-1.58-.68-.41-.42-.65-1-.65-1.6v-.5c0-.6.24-1.18.65-1.6.42-.43.99-.67 1.58-.67H194c.59 0 1.15.24 1.57.66.42.43.65 1 .66 1.6v.5c-.01.6-.25 1.17-.66 1.6-.42.43-.98.67-1.57.69Z" stroke="#A84B35" stroke-width=".5" stroke-miterlimit="10"/><path d="M210.04 184.04h-6.27c-.34 0-.66-.14-.9-.38a1.32 1.32 0 0 1-.38-.91v-.28c0-.34.14-.67.38-.9.24-.25.56-.39.9-.4h6.27a1.33 1.33 0 0 1 1.28 1.3v.28c0 .34-.14.67-.38.9-.24.25-.56.39-.9.4Z" fill="#FF7C22" stroke="#A84B35" stroke-width=".5" stroke-miterlimit="10"/><path d="M159.9 184.04h2.91c.64 0 1.19-.64 1.19-1.46 0-.8-.54-1.46-1.19-1.46h-2.55" fill="#FF7C22"/><path d="M159.9 184.04h2.91c.64 0 1.19-.64 1.19-1.46 0-.8-.54-1.46-1.19-1.46h-2.55" stroke="#A84B35" stroke-width=".5" stroke-miterlimit="10"/><path d="M171.2 169.6h52.1a7.75 7.75 0 0 0 2.98-1.36" stroke="#A84B35" stroke-width=".5" stroke-linecap="round" stroke-linejoin="round"/><path d="m232.25 169.97 2.23 10.83v7.36M264.17 147.24l11.16 33.78.32 10.34" stroke="#A84B35" stroke-width=".5" stroke-miterlimit="10"/><path d="M218.7 198.28h-8.71c-1.91-5.47-4.74-4.77-4.74-4.77h-41.53c-1.11-.03-2.2-.3-3.2-.8 1.59 9.25 5.85 10.99 5.85 10.99h52.1c-.1-.92-.14-1.84-.1-2.76.03-.9.14-1.79.33-2.66Z" fill="#FF7C22"/><path d="M206.27 197.84h-41.76l.53-1.2a2.15 2.15 0 0 1 1.91-1.2h36.3a2.29 2.29 0 0 1 1.8.91l1.22 1.5Z" stroke="#A84B35" stroke-width=".5" stroke-miterlimit="10"/><path d="M238.73 198.4c.2 1.06.31 2.14.3 3.22 0 1.14.75 2.06 1.65 2.06 10.9.05 20.92.05 32.4.1.96 0 1.7-.97 1.7-2.1 0-1.1.1-2.18.33-3.25h-36.38v-.03Z" fill="#FF7C22"/><path d="M297.32 203.85c.06-.7.11-1.4.11-2.16 0-8.56-5.58-15.53-12.43-15.53-6.86 0-12.41 6.92-12.41 15.53 0 .75.05 1.46.1 2.16M240.96 203.74c.05-.65.1-1.35.1-2.05 0-8.56-5.57-15.53-12.43-15.53-6.85 0-12.43 6.92-12.43 15.53 0 .65.06 1.35.11 2M241.17 200.71h31.35" stroke="#A84B35" stroke-width=".5" stroke-miterlimit="10"/><path d="M238.83 173.44h-8.92c-1.65 0-3.03-1.68-3.03-3.74v-3.73h11.95c1.65 0 3.03 1.68 3.03 3.73 0 2.06-1.38 3.74-3.03 3.74Z" fill="#FF7C22" stroke="#A84B35" stroke-width=".5" stroke-miterlimit="10"/><path d="M348.88 220.83H238.16c-1.58 0-2.86-1.1-2.86-2.48v-3.44c0-1.38 1.26-2.48 2.85-2.48h110.73c1.58 0 2.86 1.1 2.86 2.48v3.44c0 1.39-1.31 2.48-2.86 2.48Z" fill="#2891D2"/><path d="M277.16 220.83h-121.1c-2 0-3.64-1.28-3.64-2.86v-2.58c0-1.57 1.63-2.86 3.63-2.86h121.1c2 0 3.65 1.29 3.65 2.86v2.58c0 1.58-1.64 2.86-3.64 2.86Z" fill="#77B7DF"/><path d="m290.15 129.99-3.9 82.4h44.49l5.77-82.46-46.36.06Z" fill="#fff"/><path d="M287.59 117.26c-.77 0-1.21-.56-1.16-1.4.02-.36.17-.7.43-.95a1.37 1.37 0 0 1 1.44-.3 1.12 1.12 0 0 1 .64.75c.04.16.05.33.02.5 0 .37-.15.72-.4.99-.26.26-.61.4-.97.41Z" stroke="#87C0E3" stroke-width=".5" stroke-miterlimit="10"/><path d="M304.64 155.64h-10.07l.63-10.26h10.07l-.63 10.26Z" fill="#DBECF7" stroke="#3648AA" stroke-width=".5" stroke-miterlimit="10"/><path d="M304 170.31h-10.07l.64-10.25h10.07L304 170.3Z" stroke="#3648AA" stroke-width=".5" stroke-miterlimit="10"/><path d="M303.36 185h-10.07l.64-10.27H304l-.64 10.26Z" fill="#DBECF7" stroke="#3648AA" stroke-width=".5" stroke-miterlimit="10"/><path d="M302.73 199.67h-10.08l.64-10.26h10.07l-.63 10.26Z" stroke="#3648AA" stroke-width=".5" stroke-miterlimit="10"/><path d="M296.1 130.65h1.38l-.3 3.5 3.69-3.5h1.8l-3.69 3.45 3.2 3.8h-1.79l-2.76-3.21-.52.44-.24 2.8h-1.39l.62-7.28ZM306.53 130.62h1.08l2.69 7.26h-1.39l-.59-1.57h-3.5l-.86 1.57h-1.34l3.91-7.26Zm-1.12 4.59h2.49l-.67-1.95-.28-.93c-.13.18-.4.76-.54 1.06l-1 1.82ZM310.65 134.25a4.06 4.06 0 0 1 4.19-3.74 3.5 3.5 0 0 1 2.82 1.2l-1.1.88a2.32 2.32 0 0 0-1.83-.8 2.59 2.59 0 0 0-1.82.7c-.5.47-.79 1.11-.83 1.8a2.22 2.22 0 0 0 1.32 2.35c.3.12.62.18.94.15.94 0 1.4-.34 2.06-.91l.93.8a4.17 4.17 0 0 1-3.1 1.34c-2.3-.03-3.75-1.54-3.58-3.77ZM319.02 130.6h1.37l-.3 3.51 3.69-3.5h1.8l-3.68 3.45 3.2 3.8h-1.79l-2.76-3.22-.52.45-.24 2.79h-1.38l.61-7.27Z" fill="#3648AA"/><path d="M325.17 134.22a4.04 4.04 0 0 1 4.2-3.73c2.31 0 3.74 1.57 3.55 3.72-.2 2.24-1.91 3.75-4.2 3.75-2.3 0-3.74-1.48-3.55-3.74Zm6.31 0a2.22 2.22 0 0 0-.53-1.79 2.13 2.13 0 0 0-1.7-.7 2.6 2.6 0 0 0-1.83.7c-.5.47-.8 1.11-.84 1.8a2.2 2.2 0 0 0 1.3 2.35c.3.12.62.17.94.15.68.02 1.34-.23 1.84-.7s.8-1.12.84-1.81h-.02Z" fill="#3648AA"/><path d="m296.6 150.14 2.65 2.69 7.07-7.22M295.2 179.48l2.65 2.7 7.07-7.21" stroke="#2891D2" stroke-width=".5" stroke-miterlimit="10"/><path d="m309.8 146.32 29.97-.15M309.68 150.3l29.96-.14M309.42 154.29l25.43-.12M308.91 161.25l29.96-.14M308.78 165.24l29.96-.15M308.53 169.22l29.96-.14M308.02 175.93l29.96-.15M307.89 179.91l29.96-.14M307.63 183.9l22.88-.11M307.13 190.47l29.96-.14M307 194.45l29.96-.14M306.74 198.44l29.96-.14" stroke="#3648AA" stroke-width=".5" stroke-miterlimit="10"/><path d="m259.56 147.98 5.99 17.99M257.76 150.51l2.83 9.61M204.08 157.7l8.95-9.72h3.7" stroke="#EEF8FF" stroke-width=".5" stroke-linecap="round" stroke-linejoin="round"/><path d="M211.06 123.56c11.54 0 20.9-9.54 20.9-21.3 0-11.76-9.36-21.3-20.9-21.3-11.55 0-20.9 9.54-20.9 21.3 0 11.76 9.35 21.3 20.9 21.3Z" fill="#FF7C22"/><path d="M211.06 120.81c10.06 0 18.2-8.3 18.2-18.55s-8.14-18.56-18.2-18.56c-10.06 0-18.22 8.31-18.22 18.56 0 10.25 8.16 18.55 18.22 18.55Z" fill="#FFC095"/><path d="m223.53 89.83-3.13 3.18M202.22 111.54l-3.13 3.19M199.09 89.83l3.13 3.18M220.4 111.54l3.13 3.19M211.3 84.68v4.5M211.3 115.38v4.5M194.03 102.28h4.41M224.17 102.28h4.42M227.35 95.76l-4.1 1.67M199.36 107.14l-4.1 1.67M204.9 85.93l1.64 4.18M216.07 114.45l1.64 4.18M218.13 86.1l-1.74 4.14M206.23 114.32l-1.74 4.13M195.43 95.33l4.06 1.78M223.13 107.45l4.06 1.78M232.68 92.64a23.98 23.98 0 0 0-8.6-10.41 23.33 23.33 0 0 0-12.78-4M189.4 111.83a23.97 23.97 0 0 0 8.69 10.52 23.31 23.31 0 0 0 12.94 3.95" stroke="#fff" stroke-width=".5" stroke-miterlimit="10"/><path d="M211.31 86.97v15.29l6.41-4.38" stroke="#fff" stroke-width="1.99" stroke-linecap="round" stroke-linejoin="round"/><path d="M211.18 103.69c.78 0 1.4-.64 1.4-1.43 0-.8-.62-1.43-1.4-1.43-.77 0-1.4.64-1.4 1.43 0 .79.63 1.43 1.4 1.43Z" fill="#FF7C22"/></g><defs><linearGradient id="b" x1="0" y1="110" x2="360" y2="110" gradientUnits="userSpaceOnUse"><stop stop-color="#4776E6"/><stop offset="1" stop-color="#8E54E9"/></linearGradient><linearGradient id="d" x1="431.97" y1="154.79" x2="369.94" y2="149.11" gradientUnits="userSpaceOnUse"><stop stop-color="#fff"/><stop offset="1" stop-color="#fff" stop-opacity="0"/></linearGradient><linearGradient id="e" x1="171.29" y1="71.99" x2="228.68" y2="87.7" gradientUnits="userSpaceOnUse"><stop stop-color="#fff"/><stop offset="1" stop-color="#fff" stop-opacity="0"/></linearGradient><clipPath id="a"><rect width="360" height="220" rx="8" fill="#fff"/></clipPath><filter id="c" x="116.71" y="-60.29" width="365.35" height="365.35" filterUnits="userSpaceOnUse" color-interpolation-filters="sRGB"><feFlood flood-opacity="0" result="BackgroundImageFix"/><feGaussianBlur in="BackgroundImage" stdDeviation="25"/><feComposite in2="SourceAlpha" operator="in" result="effect1_backgroundBlur_5_23960"/><feBlend in="SourceGraphic" in2="effect1_backgroundBlur_5_23960" result="shape"/></filter></defs></svg>