<svg width="360" height="220" fill="none" xmlns="http://www.w3.org/2000/svg"><g clip-path="url(#a)"><rect width="360" height="220" rx="8" fill="url(#b)"/><g filter="url(#c)"><path d="M251.8 88c-3.56 0-6.74 1.26-8.82 3.27a8.5 8.5 0 0 0-2-.24c-3.68 0-6.69 2.17-6.98 4.97h29c-.38-4.5-5.27-8-11.2-8Z" fill="#DBECF7"/><path opacity=".8" d="M292.29 41.6c-1.33 0-2.64.22-3.89.67A15.94 15.94 0 0 0 277.3 38c-4.75 0-8.98 1.9-11.59 4.8-.97-.29-1.98-.44-3-.44-4.62 0-8.4 2.94-8.71 6.64h48c-.44-4.14-4.62-7.4-9.71-7.4Z" fill="#DBECF7"/><path d="M272.81 47c3.43 0 6.5 1.26 8.51 3.27a7.89 7.89 0 0 1 1.94-.23c3.55 0 6.46 2.16 6.74 4.96h-28c.36-4.5 5.08-8 10.81-8Z" fill="#C3DFF1"/><path d="M335.45 69a10.7 10.7 0 0 0-7.65 3 6.94 6.94 0 0 0-1.75-.2c-3.19 0-5.8 1.99-6.05 4.56h25.17c-.33-4.1-4.57-7.36-9.72-7.36Z" fill="#91C5E5"/><path opacity=".5" d="M345.05 65.94c-.58 0-1.16.07-1.67.22-1.85-2.54-5.26-4.24-9.17-4.24-1.52 0-2.97.25-4.28.72-2.9-2.83-7.29-4.64-12.18-4.64-5.22 0-9.83 2.03-12.7 5.18a12.1 12.1 0 0 0-3.3-.47c-4.3 0-7.97 2.32-9.17 5.51a3.73 3.73 0 0 0-2.32-.8c-1.74 0-3.12 1.1-3.26 2.47h63.16c-.07-2.17-2.36-3.95-5.11-3.95Z" fill="#156DC3"/><g filter="url(#d)"><rect x="309.5" y="-52.26" width="233" height="233" rx="116.5" transform="rotate(45 309.5 -52.26)" fill="#E0D6A0" fill-opacity=".08"/><rect x="309.5" y="-51.55" width="232" height="232" rx="116" transform="rotate(45 309.5 -51.55)" stroke="url(#e)"/><rect x="309.5" y="-51.55" width="232" height="232" rx="116" transform="rotate(45 309.5 -51.55)" stroke="url(#f)" stroke-opacity=".2"/></g><path d="M335.76 128.7a4.8 4.8 0 0 0-2.2.53c-1.36-2.17-4.14-3.63-7.35-3.63-3.23 0-6.02 1.49-7.36 3.68a6.85 6.85 0 0 0-5.16-2.2c-3.31 0-6.04 2.08-6.26 4.71h32.42c-.18-1.73-1.93-3.08-4.09-3.08Z" fill="#C3DFF1"/><path d="m340.2 181.84 24.06 27.27s2.34 1.93 5.54-2.61c-4.76-12.32-11.5-21.75-23.12-29.8-5.46-2.24-9.17 2.03-6.48 5.14Z" fill="#3648AA"/><path d="M349.96 193.01c6.73 7.57 14.26 16.1 14.26 16.1s2.36 1.93 5.58-2.62c-2.98-7.72-6.78-14.3-12.06-20.12l-7.78 6.64Z" fill="#91C5E5"/><path d="m317.52 157.18 22.62 24.41 6.51-4s-1.09-9.74-8.9-22.9c-7.81-13.15-14.38-19.4-14.38-19.4s-16.47 8.21-5.85 21.9Z" fill="#3648AA"/><path d="M310.6 144.47s-24.12 18.93-26.45 22.2c-2.33 3.27 1.36 10.17 8.26 7.06 12.91-5.18 24.7-10.17 30.2-12.5 4.7-2 7.93-6.54 8.03-11.65.06-2.95-.72-6.47-3.11-10.62-1.94-2.2-3.53-4.4-3.53-4.4l-2.17.68-13.69 4.7 2.46 4.53Z" fill="#156DC3"/><path d="M358.04 189.3s8.9 12.5 11.03 17.64M353.27 193.72l12.12 15.43M356.57 190.78s8.3 11.46 11.76 17.27M355.1 192.25l12.13 16.53" stroke="#D2E7F4" stroke-width=".45" stroke-miterlimit="10" stroke-linecap="round" stroke-linejoin="round"/><path d="m349.96 192.98 7.35-6.61M351.8 194.82l7.71-6.61" stroke="#1081C7" stroke-width=".45" stroke-miterlimit="10" stroke-linecap="round" stroke-linejoin="round"/><path d="M358.17 220.5s5.37.15 5.6-.1l10.8-9.24c-.05-.3-.35-.98-.62-1.35-.96-1.4-3-3.12-3.12-3.27-.87-1.08-1.65-.1-1.65-.1-.27 2.84-9.7-1.93-10.08-.3 0 0 3.54 3.36 2.97 5.42a17.44 17.44 0 0 1-1.68 4.25c-1.71.5-3.21.34-3.78 2.22-.21.8-.12 2.43 1.56 2.46Z" fill="#FF7C22"/><path d="M362.55 211.22s-1.17-2.52-3.48-2.12c-2.31.37 3.48 2.12 3.48 2.12Z" stroke="#A84B35" stroke-width=".45" stroke-miterlimit="10" stroke-linecap="round" stroke-linejoin="round"/><path d="M362.58 211.25s-2.4-1.3-4.02.47c-1.62 1.75 4.02-.47 4.02-.47Z" stroke="#A84B35" stroke-width=".45" stroke-miterlimit="10" stroke-linecap="round" stroke-linejoin="round"/><path d="M285.19 172.98c3.37 2.85 29.68 24.93 29.68 24.93s2.79 1.65 5.54-3.56c-6.87-12.14-15.48-21.01-29.07-27.68-6.15-1.55-9.48 3.46-6.15 6.31Z" fill="#156DC3"/><path d="m297.4 183.24 17.47 14.67s2.78 1.65 5.54-3.56c-4.3-7.61-9.3-13.92-15.74-19.2l-7.28 8.1Z" fill="#91C5E5"/><path d="M305.68 178.1s11.2 11.88 14.21 17M300.99 183.7l15.4 14.24M304.22 179.88s10.36 10.8 14.83 16.4M302.67 181.75 318 197.23" stroke="#D2E7F4" stroke-width=".45" stroke-miterlimit="10" stroke-linecap="round" stroke-linejoin="round"/><path d="m297.43 183.37 7.02-8.19M299.7 185.09l7.01-8.19" stroke="#1081C7" stroke-width=".45" stroke-miterlimit="10" stroke-linecap="round" stroke-linejoin="round"/><path d="M316.62 212.44s5.14-2.62 5.27-2.98l5.6-14.11c-.2-.26-.84-.71-1.26-.94-1.62-.78-4.4-1.32-4.56-1.39-1.36-.55-1.62.78-1.62.78 1.16 2.75-10.17 3.2-9.71 4.92 0 0 5.05 1.3 5.53 3.5.42 1.87.58 3.26.55 4.78-1.39 1.33-2.85 1.98-2.46 4.02.13.77 1.07 2.26 2.66 1.42Z" fill="#FF7C22"/><path d="m326.23 194.41-4.5 11.5-4.37.9M316 205.38l2.14-.42M315.8 204.09l2.14-.39M315.62 202.8l2.13-.4M316.13 201.6s-2.36-1.72-4.37-.16c-2 1.55 4.37.16 4.37.16Z" stroke="#A84B35" stroke-width=".45" stroke-miterlimit="10" stroke-linecap="round" stroke-linejoin="round"/><path d="M316.16 201.63s-2.91.06-3.6 2.5c-.67 2.42 3.6-2.5 3.6-2.5Z" stroke="#A84B35" stroke-width=".45" stroke-miterlimit="10" stroke-linecap="round" stroke-linejoin="round"/><path d="m340.02 181.6 8.1-4.42s-1.84-2.77-3.75-8.08l-9.47 7.18 5.12 5.31Z" fill="#156DC3"/><path d="M346.29 175.35c-5.31-2.22-8.76 3.36-6.1 6.43l4.64 5.32 7.34-5.96c-1.74-1.55-3.83-4.36-5.88-5.8Z" fill="#156DC3"/><path d="M290.3 160.81c-3.07 2.69-5.47 4.92-6.15 5.9-2.33 3.26 1.36 10.16 8.26 7.05 3.07-1.23 6.08-2.46 9-3.66-3.05-2.56-8.2-6.83-11.1-9.29Z" fill="#3648AA"/><path d="M291.34 166.67c-6.15-1.55-9.52 3.46-6.15 6.31l5.27 4.44 10-5.44a71.94 71.94 0 0 0-9.12-5.3Z" fill="#3648AA"/><path d="m308.3 139.93 2.46 4.57s-24.12 18.93-26.44 22.2" stroke="#3648AA" stroke-width=".41" stroke-miterlimit="10" stroke-linecap="round" stroke-linejoin="round"/><path d="M288.02 96.94s3.29-6.23 10.82-4.48c7.56 1.75 8.48 2.76 13.19-1.13 4.71-3.88 9.87-6.58 14.67-1.98 3.98 3.82 4 10.13-3.88 18.05-4.63 4.62-14.32 7.56-20.3.92-5.04-5.57-9.02-3.68-9.02-3.68l-5.48-7.7Z" fill="#FF7C22"/><path d="M290.98 96.88s2.16-4.1 6.58-2.4c4.42 1.68 10.2 3.43 14.26.17 4.24-3.4 8.48-7.02 12.45-4.89" stroke="#A84B35" stroke-width=".41" stroke-miterlimit="10" stroke-linecap="round" stroke-linejoin="round"/><path d="M292.61 97.56s1.9-2.52 5.22-1.07c3.56 1.54 7.7 2.67 11.95 1.36M327.15 97.5s-4.83 10.61-13.05 11.77c-8.2 1.12-9.96-3.03-9.96-3.03" stroke="#A84B35" stroke-width=".41" stroke-miterlimit="10" stroke-linecap="round" stroke-linejoin="round"/><path d="m279.63 111.79 7.7 10.4 6.77-6.55s-6.94-3.59-7.95-8.69c-1.04-5.1-6.52 4.84-6.52 4.84Z" fill="#E6ACA0"/><path d="m281.88 114.81 2.37 3.17c1.41-.87 3.06-4.92.06-5l-2.43 1.83Z" fill="#A84B35"/><path d="M288.82 95.66c4.27-.41 7.7 3.44 6.7 8.24a3.81 3.81 0 0 1-1.51 2.43c-1.25 1-1.55.86-2.23.53-2.75-1.33-4.92-7.94-4.92-7.94s-1.9-2.84 1.96-3.26Z" fill="#3648AA"/><path d="M275.27 108.91s-3.11-1.45-3.02-6.76c.09-5.3 3.05-6.73 3.76-6.96.71-.24 2.46 3.85 2.46 3.85l-3.2 9.87Z" fill="#FF7C22"/><path d="M274.12 101.89c.59-3.27 1.57-5.1 2.4-6.11a39.01 39.01 0 0 1 1.24 2.52l-3.14 10.08s-.18-.15-.48-.45c-.35-1.18-.56-3.17-.02-6.05Z" fill="#A84B35"/><path d="M274.82 102.47s-1.65 3.1-1.65 8.16c0 5.06 1.8 8.02 4.21 8.37 2.4.38 6.58-.03 9.42-6.31 2.84-6.28.95-3.04.95-3.04s-3.6-9-12.93-7.18Z" fill="#E6ACA0"/><path opacity=".14" d="M279.13 111.68c.39.65 2.07 1.44 3.44.11 1.34-1.33.88-3.24.43-3.75-.36-.4-.78-.6-2.15.69-1.33 1.33-2.07 2.38-1.72 2.95Z" fill="#B2412B"/><path d="M276.6 107s.68 1.67-.25 2.9c-.6.76-1.68 1.23-1.71 1.67-.04.43 1 .58 1 .58" stroke="#B2412B" stroke-width=".41" stroke-miterlimit="10" stroke-linecap="round" stroke-linejoin="round"/><path d="M278.13 109.58c.3 0 .55-.42.55-.92 0-.51-.25-.92-.55-.92-.3 0-.55.4-.55.92 0 .5.24.92.55.92ZM274.45 109.58c.3 0 .55-.42.55-.92 0-.51-.24-.92-.55-.92-.3 0-.55.4-.55.92 0 .5.25.92.55.92Z" fill="#3648AA"/><path d="M280.06 106.27c.12 0 .28-.06.36-.15.16-.15.12-.36-.08-.48-1.25-.71-2.42-.41-2.46-.41-.24.06-.36.27-.28.44.08.18.36.27.6.21.05 0 .77-.18 1.61.3.04.06.16.09.25.09Z" fill="#A84B35"/><path d="M278.68 111.78s.2 2.48-3.3 1.68" stroke="#B2412B" stroke-width=".41" stroke-miterlimit="10" stroke-linecap="round" stroke-linejoin="round"/><path d="M273.98 106.27a.5.5 0 0 0 .28-.1c.62-.47 1.34-.29 1.34-.29.2.06.45-.06.49-.24.06-.18-.04-.39-.28-.42-.04 0-1.14-.3-2.14.45a.3.3 0 0 0-.04.48c.1.06.25.12.35.12Z" fill="#A84B35"/><path d="M285.85 108.11s-3.94-2.2-5.36-3.56c-.2-.2-.36-.38-.42-.53-1.1.44-3.8-1-3.8-1s-4.73-3.5-1.12-7.15c3.62-3.65 9.67 0 9.67 0s4.98-.63 8.09 3.05c3.11 3.68.47 9.75-4.12 11.56-.71.8-2.94-2.37-2.94-2.37Z" fill="#FF7C22"/><path d="M281.82 103.28c-.56.35-1.1.6-1.6.68-2.2.47-3.85-.95-3.85-.95s-4.3-2.52-.65-6.16" stroke="#A84B35" stroke-width=".41" stroke-miterlimit="10" stroke-linecap="round" stroke-linejoin="round"/><path d="M285.85 108.11s5.31 3.8 8.21-3.97c0-.03.04 0 .06 0-.2 4.27-2.43 7.62-7.17 7.97-.71.8-1.1-4-1.1-4Z" fill="#A84B35"/><path opacity=".14" d="M273.2 108.84s1.5.87.94 2.55c-.32.97-.97.73-.97.73l.04-3.28Z" fill="#B2412B"/><path d="M275.69 98.83s-.03 3.89 4.65 3.77" stroke="#A84B35" stroke-width=".41" stroke-miterlimit="10" stroke-linecap="round" stroke-linejoin="round"/><path d="M286.8 112.22c.97.71 2.48.1 3.39-1.37.87-1.46.81-3.2-.16-3.92-.97-.71-2.48-.1-3.38 1.37-.88 1.43-.82 3.2.15 3.92Z" fill="#E6ACA0"/><path d="M287.3 110.31s1.5-.7-.17-1.3c0 0 1.54-1.6 2.57-.55" stroke="#A84B35" stroke-width=".41" stroke-miterlimit="10" stroke-linecap="round" stroke-linejoin="round"/><path d="M283.99 104.26s-1.78 9.1 6.1 10.88c-2.46-1.58-4.53-3.41-4.09-8.84-.41-1.69-2.01-2.04-2.01-2.04Z" fill="#FF7C22"/><path d="M280.1 104.05c.9 1.19 3.8 2.87 3.8 2.87s-.3 6.82 6.2 8.22M286.54 102.45s-.75 2.04-.48 5.19M285.38 96.9s-.68-1.36-2.25-1.65M326.17 94.74s-2.55 7.5-7.06 9.81" stroke="#A84B35" stroke-width=".41" stroke-miterlimit="10" stroke-linecap="round" stroke-linejoin="round"/><path d="M264.54 136.87c0-.5-5.28-2.8-5.28-2.8s-6.5-3.56-6.97-2.95c-.66.8 4.62 3.34 4.5 3.5-.1.17-6.43-1.15-6.7-.71-.78 1.19 5.99 1.8 5.93 2.13-.05.3-5.2-1.41-5.52-.75-.5 1 5.22 1.96 5.25 2.27.02.3-3.96-1.5-4.31-.91-.56.9 5.3 2.6 6.24 2.79.94.19 3.37.96 4.62 1.02.83.03 2.26-2 2.24-3.6Z" fill="#E6ACA0"/><path d="M263.52 137c.27-.41 0-1.49-.3-2.1-.42-.77-1.58-1.54-2.22-1.99-.96-.69-2.68-3.28-3.65-3.1-.96.2.56 2.5 1.05 2.85.5.4.67.83.67.83s1.1 8.32 4.45 3.51Z" fill="#E6ACA0"/><path d="m252.57 135.3 3.51.7M252.76 136.62l3.04.9M257.77 133.3l2.18 1.13" stroke="#A84B35" stroke-width=".45" stroke-miterlimit="10" stroke-linecap="round" stroke-linejoin="round"/><path d="M284.46 122.37s-.03-2.9 7.38-7.59c5.16-3.26 7.77.62 7.77.62l-15.15 6.97Z" fill="#3648AA"/><path d="M331.9 127.37c-.2.42 3.24 4.43 3.24 4.43s3.85 5.4 4.5 5.1c.86-.4-2.4-4.48-2.25-4.56.15-.07 2.94 5.2 3.36 4.95 1.09-.67-2.32-5.54-2.15-5.79.17-.25 3.36 3.66 3.88 3.27.82-.62-3.19-4.13-3.06-4.4.1-.28 2.84 2.54 3.36 2.2.82-.55-3.51-3.99-4.2-4.53-.7-.54-2.4-2.13-3.42-2.67-.67-.42-2.65.66-3.27 2Z" fill="#E6ACA0"/><path d="M332.82 127.67c-.4.22-.6 1.23-.57 1.85.02.82.7 1.9 1.04 2.55.52.94.91 3.81 1.78 4 .87.23.55-2.24.27-2.76-.24-.52-.22-.94-.22-.94s2.35-7.35-2.3-4.7Z" fill="#E6ACA0"/><path d="M335.54 127.74c.57 1.8-.23 3.91-.23 3.91s-.47.67.08 1.9c.54 1.22.2 2.4-.2 2.53M336.53 132.74s2.03-.52 3.09-2.97M338.93 134.99l-1.54-2.6" stroke="#A84B35" stroke-width=".41" stroke-miterlimit="10" stroke-linecap="round" stroke-linejoin="round"/><path d="M296.31 116.57c3.2-6.87 23.8-5.38 26.54-4.04 6.19 3.04 14.65 13.34 14.65 13.34s-4 3.63-5.37 4.7c-1.06-.88-1.98-.56-3.46-1.49-.92-.56-5.38-6.57-9.68-8.08-3.52-1.24-18.13 3.36-19.14 2.68-4.3-2.66-4.63-4.77-3.54-7.11ZM295.78 127.25s-13.52 18.32-15.2 20.7c-1.7 2.38-4.35 4.95-9.08 1.38l-11.72-8.57s1.85-5.64 3.54-6.55c2.85 1.5 4.28 1.69 5.67 2.27 1.99.83 3.23 1.57 5.41 3.65 3.74-6.8 4.4-13.41 7.39-16.4 2.98-2.98 12.11-4.03 14 3.52Z" fill="#156DC3"/><path d="M284.71 131.75c-3.08-3.61-1.76-8.9 2.4-11.18l14.3-7.8 24.22 23.44s1.66 1.45.12 3.59a31.51 31.51 0 0 1-3.67 4.09l-14.53 4.9s-3.02 1.03-5.54-1.16c-1.19-1.04-8.6-6.73-13.67-11.92a77 77 0 0 1-3.63-3.96Z" fill="#156DC3"/><path d="m309.63 120.83 15.92 15.38s1.66 1.45.12 3.59c-1.55 2.13-3.68 4.09-3.68 4.09l-9.4 3.38M263.14 134.38c2.86 1.5 4.3 1.7 5.68 2.28 2 .83 3.24 1.58 5.43 3.67 3.74-6.84 4.4-13.49 7.4-16.49M264.82 135.28s-2.67 3.55-3.02 6.4M298.14 114.5c5.98-4.47 22.3-3.15 24.73-1.95 6.18 3.05 14.63 13.4 14.63 13.4s-3.9 3.57-5.26 4.62M335.82 124.51l-3.7 3.37" stroke="#3648AA" stroke-width=".41" stroke-miterlimit="10" stroke-linecap="round" stroke-linejoin="round"/><path d="m290.42 124 11.7 11.62 13.1-6.94-12.09-11.7-12.71 7.02Z" stroke="#3648AA" stroke-width=".41" stroke-miterlimit="10"/><path d="m307.7 129.37-7.17-8.37-1.3.75-2.11 4.95 1.66.77 1.45-3.23 5.45 6.28 2.02-1.16Z" fill="#fff"/><path d="m259.04 190.74 19.1 21.66s1.87 1.54 4.41-2.07c-3.78-9.79-9.14-17.28-18.37-23.67-4.33-1.78-7.29 1.61-5.14 4.08Z" fill="#FFBF2E"/><path d="M266.79 199.62a9156 9156 0 0 1 11.33 12.78s1.87 1.54 4.43-2.07c-2.37-6.14-5.39-11.37-9.58-16l-6.18 5.29Z" fill="#DBECF7"/><path d="m241.01 171.15 17.98 19.4 5.17-3.18s-.87-7.75-7.07-18.2c-6.21-10.45-11.43-15.41-11.43-15.41s-13.09 6.52-4.65 17.39Z" fill="#FFBF2E"/><path d="M235.51 161.04s-19.16 15.05-21.01 17.65c-1.85 2.6 1.08 8.07 6.56 5.6a1357.6 1357.6 0 0 0 24-9.92c3.72-1.6 6.3-5.2 6.37-9.26.05-2.34-.56-5.15-2.47-8.44-1.54-1.75-2.8-3.5-2.8-3.5l-1.72.54-10.88 3.73 1.95 3.6Z" fill="#FFD577"/><path d="M273.21 196.67s7.06 9.93 8.76 14.02M269.42 200.18l9.63 12.26M272.04 197.84s6.6 9.1 9.34 13.72M270.87 199l9.64 13.15" stroke="#96C8E6" stroke-width=".45" stroke-miterlimit="10" stroke-linecap="round" stroke-linejoin="round"/><path d="m266.79 199.6 5.84-5.26M268.25 201.05l6.13-5.25" stroke="#77B7DF" stroke-width=".45" stroke-miterlimit="10" stroke-linecap="round" stroke-linejoin="round"/><path d="M273.3 221.45s4.27.12 4.46-.07l8.59-7.34a3.6 3.6 0 0 0-.5-1.08c-.77-1.1-2.39-2.47-2.48-2.6-.7-.85-1.31-.07-1.31-.07-.22 2.25-7.7-1.54-8.01-.24 0 0 2.81 2.66 2.36 4.3a13.9 13.9 0 0 1-1.34 3.38c-1.36.4-2.55.27-3 1.76-.17.64-.1 1.94 1.24 1.96Z" fill="#77B7DF"/><path d="m285.85 212.96-6.96 6.02-3.15-.98M275.38 216.56l1.53.49M275.72 215.63l1.52.49M276.03 214.7l1.52.49M276.79 214.08s-.93-2-2.77-1.68c-1.83.29 2.77 1.68 2.77 1.68Z" stroke="#2891D2" stroke-width=".45" stroke-miterlimit="10" stroke-linecap="round" stroke-linejoin="round"/><path d="M276.81 214.1s-1.9-1.02-3.2.38c-1.28 1.4 3.2-.37 3.2-.37Z" stroke="#2891D2" stroke-width=".45" stroke-miterlimit="10" stroke-linecap="round" stroke-linejoin="round"/><path d="m214.6 182.42 19.18 24.1s1.91 1.72 4.88-1.9c-3.43-10.54-8.73-18.8-18.27-26.15-4.54-2.18-7.93 1.2-5.78 3.95Z" fill="#FFD577"/><path d="m222.49 192.34 11.3 14.17s1.9 1.73 4.87-1.9c-2.16-6.6-5.04-12.3-9.22-17.43l-6.95 5.16Z" fill="#DBECF7"/><path d="M229.75 189.64s6.85 11.02 8.38 15.48M225.22 193.26l9.74 13.52M228.34 190.8s6.36 10.05 8.95 15.11M226.83 192.01l9.5 14.47" stroke="#96C8E6" stroke-width=".45" stroke-miterlimit="10" stroke-linecap="round" stroke-linejoin="round"/><path d="m222.5 192.44 6.76-5.27M223.99 194.13l6.76-5.26" stroke="#77B7DF" stroke-width=".45" stroke-miterlimit="10" stroke-linecap="round" stroke-linejoin="round"/><path d="M232.84 218.1s4.43-1.22 4.58-1.48l6.6-10.1a4.07 4.07 0 0 0-.84-.93c-1.14-.86-3.22-1.73-3.34-1.8-.97-.65-1.38.34-1.38.34.47 2.33-8.42.9-8.34 2.3 0 0 3.73 1.8 3.76 3.6.03 1.52-.06 2.63-.33 3.81-1.3.82-2.53 1.09-2.55 2.74-.02.63.48 1.93 1.84 1.53Z" fill="#77B7DF"/><path d="m243.18 205.59-5.32 8.23-3.54.02M233.48 212.52h1.73M233.53 211.48l1.73.03M233.59 210.44l1.72.03M234.18 209.59s-1.57-1.71-3.38-.82c-1.8.9 3.38.82 3.38.82Z" stroke="#2891D2" stroke-width=".45" stroke-miterlimit="10" stroke-linecap="round" stroke-linejoin="round"/><path d="M234.2 209.62s-2.28-.41-3.2 1.37c-.9 1.78 3.2-1.37 3.2-1.37Z" stroke="#2891D2" stroke-width=".45" stroke-miterlimit="10" stroke-linecap="round" stroke-linejoin="round"/><path d="m258.89 190.54 6.44-3.5s-1.46-2.2-2.98-6.42l-7.53 5.7 4.07 4.22Z" fill="#FFD577"/><path d="M219.39 174.03c-2.45 2.14-4.35 3.91-4.89 4.68-1.85 2.6 1.08 8.08 6.56 5.6 2.44-.97 4.83-1.95 7.15-2.9-2.42-2.03-6.5-5.42-8.82-7.38Z" fill="#FFBF2E"/><path d="m233.69 157.44 1.95 3.63s-19.16 15.04-21.01 17.64" stroke="#FFBF2E" stroke-width=".41" stroke-miterlimit="10" stroke-linecap="round" stroke-linejoin="round"/><path d="m210.9 135.08 6.13 8.26 5.37-5.2s-5.51-2.85-6.31-6.9c-.83-4.05-5.19 3.84-5.19 3.84Z" fill="#E6ACA0"/><path d="m212.7 137.48 1.88 2.52c1.12-.7 2.43-3.9.05-3.98l-1.93 1.46Z" fill="#A84B35"/><path d="M214.74 143.49s-.02-2.31 5.87-6.03c4.1-2.6 6.17.5 6.17.5l-12.04 5.53Z" fill="#FFBF2E"/><path d="M252.43 147.46c-.16.34 2.58 3.52 2.58 3.52s3.06 4.28 3.57 4.05c.7-.32-1.9-3.56-1.78-3.62.11-.06 2.33 4.13 2.67 3.93.86-.53-1.85-4.4-1.71-4.6.14-.2 2.67 2.91 3.09 2.6.64-.5-2.54-3.28-2.44-3.5.08-.22 2.26 2.02 2.67 1.75.65-.43-2.79-3.16-3.34-3.6-.55-.43-1.9-1.69-2.71-2.12-.53-.33-2.1.53-2.6 1.6Z" fill="#E6ACA0"/><path d="M253.17 147.7c-.32.18-.47.98-.45 1.47.02.65.55 1.52.82 2.03.41.74.73 3.02 1.42 3.18.68.18.43-1.79.21-2.2-.2-.41-.17-.75-.17-.75s1.86-5.84-1.83-3.73Z" fill="#E6ACA0"/><path d="M255.33 147.76c.45 1.43-.18 3.1-.18 3.1s-.37.53.06 1.51c.43.97.16 1.91-.16 2.01" fill="#A84B35"/><path d="M255.33 147.76c.45 1.43-.18 3.1-.18 3.1s-.37.53.06 1.51c.43.97.16 1.91-.16 2.01" stroke="#A84B35" stroke-width=".41" stroke-miterlimit="10" stroke-linecap="round" stroke-linejoin="round"/><path d="M256.11 151.73s1.62-.42 2.46-2.36l-2.46 2.36Z" fill="#A84B35"/><path d="M256.11 151.73s1.62-.42 2.46-2.36M258.02 153.51l-1.22-2.06" stroke="#A84B35" stroke-width=".41" stroke-miterlimit="10" stroke-linecap="round" stroke-linejoin="round"/><path d="M224.16 138.88c2.54-5.46 18.9-4.28 21.09-3.21 4.91 2.41 11.64 10.6 11.64 10.6s-3.19 2.88-4.27 3.73c-.84-.7-1.57-.44-2.75-1.18-.73-.44-4.27-5.22-7.7-6.42-2.79-.99-14.4 2.67-15.2 2.13-3.42-2.11-3.68-3.8-2.81-5.65Z" fill="#FFD577"/><path d="M216.13 152.3c-3.19-3.53-1.86-8.83 2.3-11.1l9.79-5.34 19.24 18.63s1.32 1.15.1 2.85c-1.23 1.7-2.93 3.25-2.93 3.25l-11.54 3.88s-2.87 2.61-4.87.87c-.95-.83-6.36-7.13-10.4-11.25-.59-.61-1.16-1.21-1.69-1.8Z" fill="#FFD577"/><path d="m234.74 142.26 12.65 12.23s1.32 1.15.1 2.84c-1.23 1.7-2.93 3.26-2.93 3.26l-7.46 2.68" stroke="#FFBF2E" stroke-width=".41" stroke-miterlimit="10" stroke-linecap="round" stroke-linejoin="round"/><path d="M202.13 157.27c-.07-.39-4.52-1.44-4.52-1.44s-5.58-1.87-5.87-1.33c-.4.72 4.08 1.96 4.02 2.1-.06.15-5.2 0-5.35.4-.44 1.03 4.94.55 4.94.82 0 .25-4.26-.37-4.42.2-.25.84 4.36.8 4.42 1.03.07.23-3.3-.61-3.5-.1-.3.78 4.52 1.28 5.28 1.3.76.01 2.77.28 3.75.15.66-.1 1.5-1.88 1.25-3.13Z" fill="#E6ACA0"/><path d="M201.35 157.52c.16-.36-.2-1.16-.53-1.6-.44-.54-1.45-.99-2.01-1.24-.85-.4-2.56-2.2-3.29-1.91-.73.29.78 1.87 1.22 2.08.45.23.64.55.64.55s2.03 6.35 3.97 2.12Z" fill="#E6ACA0"/><path d="m192.55 157.72 2.85.07M192.89 158.73l2.5.29M196.33 155.44l1.87.57" stroke="#A84B35" stroke-width=".45" stroke-miterlimit="10" stroke-linecap="round" stroke-linejoin="round"/><path d="M225.2 145.35s-7.99 16.24-8.97 18.34c-.99 2.1-2.7 4.47-6.9 2.35L198.96 161s.65-4.67 1.84-5.62c2.44.76 3.6.71 4.75.97 1.68.37 2.76.78 4.76 2.1 1.96-5.85 1.55-11.1 3.46-13.86 1.92-2.76 8.9-4.86 11.44.77Z" fill="#FFD577"/><path d="M200.69 155.52c2.44.77 3.6.72 4.76.99 1.68.37 2.76.78 4.76 2.1 1.97-5.87 1.55-11.16 3.47-13.93M202.13 156s-1.59 3.14-1.47 5.42M225.61 137.24c4.75-3.56 17.72-2.51 19.65-1.56 4.91 2.43 11.63 10.65 11.63 10.65s-3.1 2.84-4.18 3.67M255.55 145.19l-2.94 2.67" stroke="#FFBF2E" stroke-width=".41" stroke-miterlimit="10" stroke-linecap="round" stroke-linejoin="round"/><path d="m219.48 144.78 9.3 9.23 10.41-5.5-9.6-9.31-10.11 5.58Z" fill="#fff" stroke="#FFBF2E" stroke-width=".41" stroke-miterlimit="10"/><path d="m225.96 143.86-.18-.09a2.6 2.6 0 0 0 .25 2.78c.07.1.2.11.29.04l.97-.7a.2.2 0 0 0 .05-.29 1.42 1.42 0 0 1-.28-.64c-.02-.2 0-.4.09-.58.3-.3.57-.34.92-.4.06 0 .12 0 .18-.02.2-.03.3-.03.36-.02.05 0 .1.02.18.06a23.05 23.05 0 0 1 .4.16l.13.04h.01l.02.02.1.1c.07.1.12.19.14.25l.04.55v.62c-.02.3-.06.67-.12 1.1l-.57 3.61c0 .06 0 .11.04.15l.53.74a.2.2 0 0 0 .27.06l4.86-2.8a.2.2 0 0 0 .07-.3l-.64-.88a.2.2 0 0 0-.26-.06l-3.14 1.62.28-1.63c.1-.72.17-1.32.19-1.79a4.2 4.2 0 0 0-.1-1.21 2.66 2.66 0 0 0-.42-.91c-.29-.4-.65-.68-1.08-.85a2.55 2.55 0 0 0-1.36-.15 4.89 4.89 0 0 0-1.95.84c-.19.14-.36.3-.45.5l.18.08Zm0 0a2.4 2.4 0 0 0 .12 2.4l4.66 1.06c.11-.72.17-1.3.2-1.77.01-.46-.02-.84-.1-1.15-.08-.31-.21-.59-.4-.84a2.2 2.2 0 0 0-.97-.78c-.4-.16-.81-.2-1.26-.13-.61.08-1.95.63-2.25 1.21Z" fill="#FF7C22" stroke="#FF7C22" stroke-width=".41" stroke-linejoin="round"/><path d="M219.51 129.41c-.26 1.1-.79 1.12-1.18 2.18-.88 2.38-.82 3.04-2.4 5.28-2.53 3.56-6.3 4.32-7.66 4.01-1.37-.3-2.8-1.86-3.57-3.92a12.69 12.69 0 0 1-.48-1.62 16.45 16.45 0 0 1-.39-2.6c-.14-1.77.05-3.55.55-5.26a7.6 7.6 0 0 1 1.4-2.67c5.55-6.54 15.58-2.26 13.73 4.6Z" fill="#E9B7AC"/><path d="M206.84 130.91c.1.48.13.97.05 1.45a1.37 1.37 0 0 1-.6.97c-.42.28 0 1.03.85 1.01" stroke="#A84B35" stroke-width=".56" stroke-linecap="round" stroke-linejoin="round"/><path d="M209.23 131.67a.63.63 0 0 0 .43-.78.6.6 0 0 0-.81-.38.61.61 0 0 0-.47.54.6.6 0 0 0 .48.65c.12.03.25.01.37-.04ZM205.21 131.43a.63.63 0 0 0-.5.85.64.64 0 0 0 .56.42.64.64 0 0 0 .6-.36c.06-.12.08-.25.06-.37a.68.68 0 0 0-.72-.54Z" fill="#290C0F" stroke="#290C0F" stroke-width=".12"/><path d="M210.63 129.2c-.6-.62-1.1-.8-1.86-.68-.45.07-.8.29-.77.52.12.92 1.13-.55 2.73.8.22.15.16-.39-.1-.65Z" fill="#6B3626" stroke="#6B3626" stroke-width=".19"/><path opacity=".35" d="M210.07 133.85c-.48 1.5 1.12 2.28 2.77.96.75-.58 1.3-1.41.92-2.3-.32-.68-.77-1-2.08-.51-1.18.64-1.43 1.35-1.6 1.85ZM205.33 136.44c-.16.23-.37.4-.62.52a12.69 12.69 0 0 1-.49-1.62 16.45 16.45 0 0 1-.3-1.82c.94 1 1.87 2.24 1.4 2.92Z" fill="#B2412B"/><path d="M208.98 135c3.16-1.06 1.25 2.13-.21 2.36-1.46.24-3.8-1.01.21-2.36Z" fill="#A84B35" stroke="#A84B35" stroke-width=".56" stroke-linecap="round" stroke-linejoin="round"/><path d="M209.45 136.01a5 5 0 0 1 1 0c.46-.83.32-1.65-1.46-1.01-2.31.77-2.49 1.54-1.96 2 .08-.4 1.8-1 2.42-.99Z" fill="#fff" stroke="#A84B35" stroke-width=".56" stroke-linecap="round" stroke-linejoin="round"/><path d="m225.07 132.82-1.03-1c.17.64.43 1.25.76 1.82l-.17.45c-.03-.03-.1.35-.15.38a13.82 13.82 0 0 1-2.1 3.54s-2.2.68-3.1-3.45a7.6 7.6 0 0 0-.74-1.9c.4-1.07.73-2.15 1-3.25 1.67-6.21-6.65-9.22-12.3-5.1-2.82-.08-4.72.73-5.15 1.77.37-2.64 1.88-4.7 4.3-6.35 5.92-4.04 9.24.05 9.24.05 5.27-1.14 10.83 8.43 10.83 8.43.22 1.32-1.02 3.32-1.39 4.61Z" fill="#6B3626"/><path d="M219.51 129.41c-.26 1.1-.6 2.19-.99 3.25-1.98-3.73-6.74-7.69-6.74-7.69-1.18-.44-5.96-.19-7.38 2.51.28-.97.76-1.89 1.4-2.68 6.17-8.36 15.56-2.25 13.71 4.61Z" fill="#6B3626"/><path d="M207.59 123.62c-.62.46-1.3.59-1.8 1.18-.64.79-1.11 1.7-1.4 2.68-.5 1.7-.69 3.48-.55 5.25.06.88.18 1.75.38 2.6-1.87-3.7-2.51-6.73-2.15-9.24.42-1.04 2.08-2.86 5.52-2.47Z" fill="#591D0B"/><path d="M205.6 123.68a9.71 9.71 0 0 1 6.17 1.3 9.42 9.42 0 0 0-5.81.92c-2.62 1.4-2.15 3-2.15 3l-.92-1.84 2.16-2.76.54-.62Z" fill="#591D0B"/><path d="M211.88 125.08c2.03 1.6 2.5 3.17 3.43 5.5 1.5 3.78 3.57 7.22 7.03 7.44l.26-.48 1.17-5.08-3.27-7.12-8.62-.26Z" fill="#6B3626"/><path d="M205.35 130.11c.41.15-.07-.98-.92-.65-.82.42-1.23 1.26-1.01 1.68.47.43.18-1.17 1.93-1.03Z" fill="#6B3626" stroke="#6B3626" stroke-width=".19"/><path d="M216.3 131.33s.73-3.65 3.21-2.77c1.94.7 1.26 5.71-2.54 4.77l-.67-2Z" fill="#E9B7AC"/><path d="M217.4 131.57c-.39-2.4 1.9-2.17 1.9-2.17" stroke="#A84B35" stroke-width=".56" stroke-linecap="round" stroke-linejoin="round"/><path d="M219.52 130.9s-1.06-1.77-1.89-.82M211.78 124.97c1.18-.26 3.49-3.84 3.49-3.84" stroke="#A84B35" stroke-width=".56" stroke-linecap="round" stroke-linejoin="round"/><path d="M215.56 128.45c1.5 2.77 1.26 3.9 3.64 6.85 2.38 2.94-1.72-.45-1.72-.45s-1.26-2.39-1.28-2.63l-.27-2.3-.38-1.47Z" fill="#6B3626"/><path d="M216.3 121.75c3.17-.17 3.77.69 7.93 5.19M215.56 128.45c.89 2.12 2.96 8.8 7.83 8.2M223.72 136.04a9.28 9.28 0 0 1-1.97-3.51M206.26 121.55c-3.91.92-4.1 4.87-4.1 4.87" stroke="#591D0B" stroke-width=".56" stroke-miterlimit="10" stroke-linecap="round"/></g></g><defs><linearGradient id="b" x1="0" y1="110" x2="360" y2="110" gradientUnits="userSpaceOnUse"><stop stop-color="#1FA2FF"/><stop offset=".5" stop-color="#12D8FA"/><stop offset="1" stop-color="#A6FFCB"/></linearGradient><linearGradient id="e" x1="475.24" y1="48.63" x2="314.3" y2="-11.42" gradientUnits="userSpaceOnUse"><stop offset=".01" stop-color="#fff"/><stop offset="1" stop-color="#fff" stop-opacity="0"/></linearGradient><linearGradient id="f" x1="309.5" y1="57.64" x2="502.26" y2="192.75" gradientUnits="userSpaceOnUse"><stop stop-color="#fff"/><stop offset="1" stop-color="#fff" stop-opacity="0"/></linearGradient><filter id="c" x="-393" y="-397" width="1212" height="1019" filterUnits="userSpaceOnUse" color-interpolation-filters="sRGB"><feFlood flood-opacity="0" result="BackgroundImageFix"/><feGaussianBlur in="BackgroundImage" stdDeviation="196.5"/><feComposite in2="SourceAlpha" operator="in" result="effect1_backgroundBlur_5_24701"/><feBlend in="SourceGraphic" in2="effect1_backgroundBlur_5_24701" result="shape"/></filter><filter id="d" x="187" y="-10" width="245" height="245" filterUnits="userSpaceOnUse" color-interpolation-filters="sRGB"><feFlood flood-opacity="0" result="BackgroundImageFix"/><feGaussianBlur in="BackgroundImage" stdDeviation="3"/><feComposite in2="SourceAlpha" operator="in" result="effect1_backgroundBlur_5_24701"/><feBlend in="SourceGraphic" in2="effect1_backgroundBlur_5_24701" result="shape"/></filter><clipPath id="a"><rect width="360" height="220" rx="8" fill="#fff"/></clipPath></defs></svg>