<svg width="360" height="220" fill="none" xmlns="http://www.w3.org/2000/svg"><g clip-path="url(#a)"><rect width="360" height="220" rx="8" fill="url(#b)"/><g filter="url(#c)"><path d="M164 104c0-76.22 61.78-138 138-138 76.21 0 138 61.79 138 138 0 76.21-61.79 138-138 138-76.22 0-138-61.78-138-138Z" fill="#fff" fill-opacity=".05"/><path d="M164 104c0-76.22 61.78-138 138-138 76.21 0 138 61.79 138 138 0 76.21-61.79 138-138 138-76.22 0-138-61.78-138-138Z" stroke="url(#d)" stroke-opacity=".5"/><path d="M164 104c0-76.22 61.78-138 138-138 76.21 0 138 61.79 138 138 0 76.21-61.79 138-138 138-76.22 0-138-61.78-138-138Z" stroke="url(#e)" stroke-opacity=".5"/></g><path d="M285.84 126.56s-3.53.48-10 1c-8.31.64-32.53 9.85-39.58 6.03-8.03-4.34-16.68 7.94-13.97 14.38 2.71 6.44 16.34 28.35 37.3 25.88 20.94-2.47 27.81-8.88 27.81-8.88l-1.56-38.41Z" fill="#407CB8"/><path d="M228.17 142.1s-2.27-1.94-2.5-3.37c-.22-1.43 7.03-4.84 7.03-4.84l3.33 2.44-7.86 5.77Z" fill="#E4A79A" stroke="#A84B35" stroke-width=".43" stroke-miterlimit="10" stroke-linecap="round" stroke-linejoin="round"/><path fill-rule="evenodd" clip-rule="evenodd" d="m212.88 206.06-6.83-7.6-10.28 7.64 8.39 9.1 8.72-9.14Z" fill="#E4A79A"/><path fill-rule="evenodd" clip-rule="evenodd" d="M203.2 200.53c1.07 5.31 7.3 8.02 7.3 8.02l-7.3-8.02Z" fill="#A84B35"/><path fill-rule="evenodd" clip-rule="evenodd" d="M200.85 202.02c.3.37 1.53 1.63 1.49 2.52-.04.93-.93 1.52-1.9 2.49 2.34 2.3 5.31.74 7.76 4.41-2.08 2.64-4.9 5.27-7.75 7.87-6.05-6.3-12.1-13.1-18.19-19.63a7.24 7.24 0 0 1 2.23-1c2.11-.48 3.97.18 5.86 1.22 2.53 1.41 5.3 3.2 8.02 2.79.74-.08 1.52-.37 2.48-.67Z" fill="#3648AA"/><path d="M192.54 201.16c-.74-.4-1.48-.85-2.22-1.22-1.86-1.04-3.75-1.7-5.87-1.22-.7.14-1.45.52-2.22 1 2.7 2.93 5.45 5.9 8.16 8.87a7.76 7.76 0 0 0 2.15-7.43ZM196.7 215.41a186.4 186.4 0 0 0 3.7 3.94c1.83-1.67 3.64-3.3 5.24-4.97a8.85 8.85 0 0 0-8.94 1.03Z" fill="#2891D2"/><path fill-rule="evenodd" clip-rule="evenodd" d="m200.78 219.53-.93.9L181 200l.93-.85 18.85 20.37Z" fill="#407CB8"/><path d="m193.32 200.98-.11 1.9M195.55 201.83l-.15 1.9M197.77 202.69l-.15 1.93" stroke="#fff" stroke-width=".43" stroke-miterlimit="10" stroke-linecap="round" stroke-linejoin="round"/><path d="m201.6 199.2 11.57 12.4s42.38-8.1 61.53-11.8c19.15-3.72-6.05-42.24-21.15-37.04-25.5 8.75-51.95 36.44-51.95 36.44Z" fill="#3648AA"/><path d="M271.7 138.4s2.99-5.47 11.43-9.08c8.44-3.61 47.76-2.65 47.76-2.65l4 66.84s-39.25 9.04-52.02-2.31c-2.4-5.92-13.3-35.67-11.17-52.8Z" fill="#407CB8"/><path d="M262.72 152.46s70.64 31.63 77.7 50.26c7.05 18.63-27.25 19.3-35.23 17.03-7.98-2.27-44.88-44.5-45.73-53.16-.86-8.67 3.26-14.13 3.26-14.13Z" fill="#3648AA"/><path fill-rule="evenodd" clip-rule="evenodd" d="m229.69 201.98-9.98-2.26-3.9 12.24 12.1 2.49 1.78-12.47Z" fill="#E4A79A"/><path fill-rule="evenodd" clip-rule="evenodd" d="M218.6 203.1c3.96 3.67 10.6 2.22 10.6 2.22l-10.6-2.22Z" fill="#A84B35"/><path fill-rule="evenodd" clip-rule="evenodd" d="M217.55 205.66c.48.1 2.2.44 2.67 1.18.52.78.15 1.78-.1 3.12 3.22.52 4.74-2.49 8.86-.93-.15 3.38-.89 7.13-1.7 10.95-8.62-1.6-17.48-3.6-26.2-5.38.37-.82.74-1.6 1.22-2.12 1.41-1.63 3.34-2.15 5.5-2.4 2.85-.34 6.15-.5 8.16-2.42.52-.48.96-1.19 1.6-2Z" fill="#4A5AB2"/><path d="M210.28 209.81c-.85.11-1.7.19-2.53.3-2.11.26-4.04.78-5.49 2.41a6.75 6.75 0 0 0-1.22 2.12c3.9.78 7.87 1.63 11.8 2.45a7.63 7.63 0 0 0-2.56-7.28Z" fill="#53A7DB"/><path d="M221.97 218.98c1.78.37 3.52.7 5.3 1.04.52-2.42 1-4.83 1.34-7.1-1.9.42-5.2 1.75-6.64 6.06Z" fill="#3648AA"/><path fill-rule="evenodd" clip-rule="evenodd" d="m227.68 219.94-.26 1.26-27.16-5.6.26-1.22 27.16 5.56Z" fill="#96C8E6"/><path d="m210.84 209.22 1 1.6M213.14 208.62l1 1.64M215.44 208.03l1 1.63" stroke="#fff" stroke-width=".43" stroke-miterlimit="10" stroke-linecap="round" stroke-linejoin="round"/><path d="m217.78 203.1 15.43 3.08s16.55-27.47 29.95-41.64c13.4-14.18-18.1-24.09-27.35-11.06-9.24 13.03-18.03 49.62-18.03 49.62Z" fill="#5564AF"/><path d="m266.98 146.32-6.6-3.6v-7.13h6.6v10.73Z" fill="#fff"/><path d="M267.76 132.59h-8.2v3.15h8.2v-3.15Z" fill="#3648AA"/><path d="M273.59 216.38h-56.37v-63.16l28.1-21.6 28.27 21.6v63.16Z" fill="#fff"/><path d="m245.94 135.04 25.5 21.56a1 1 0 0 0 .55.18h7.8a.9.9 0 0 0 .55-1.6l-34.4-28.64a.95.95 0 0 0-1.15 0l-34.36 28.68c-.63.52-.26 1.6.56 1.6h7.79a1 1 0 0 0 .55-.19l25.5-21.56c.33-.3.78-.3 1.11-.03Z" fill="#3648AA"/><path d="M275.44 215.86h-60.08v4.42h60.08v-4.42Z" fill="#156DC3"/><path d="M264.76 165.87h-15.77v16.85h15.77v-16.85Z" fill="#77B7DF"/><path d="M264.2 166.47h-14.7v15.7h14.7v-15.7Z" fill="#156DC3"/><path d="M262.83 167.91h-11.99v12.84h11.99v-12.84Z" fill="#156DC3"/><path d="M263.42 172.81h-6.01v-5.23h-1.15v5.23h-6.01v.82h6v7.13h1.16v-7.13h6.01v-.82Z" fill="#DBECF7"/><path d="M249.76 166.73v15.18h14.18v-15.18h-14.18Zm12.84 13.73h-11.46v-12.28h11.46v12.28Z" fill="#DBECF7"/><path d="M266.39 181.9h-18.52v1.38h18.52v-1.38Z" fill="#96C8E6"/><path d="M266.39 181.9h-18.52v.2h18.52v-.2Z" fill="#FAFBFD"/><path d="M241.23 165.87h-15.77v16.85h15.77v-16.85Z" fill="#77B7DF"/><path d="M240.71 166.47h-14.7v15.7h14.7v-15.7Z" fill="#156DC3"/><path d="M239.34 167.91h-11.99v12.84h11.99v-12.84Z" fill="#156DC3"/><path d="M239.93 172.81h-6.01v-5.23h-1.15v5.23h-6.01v.82h6v7.13h1.16v-7.13h6.01v-.82Z" fill="#DBECF7"/><path d="M226.27 166.73v15.18h14.18v-15.18h-14.18Zm12.8 13.73h-11.46v-12.28h11.47v12.28Z" fill="#DBECF7"/><path d="M242.9 181.9h-18.52v1.38h18.52v-1.38Z" fill="#96C8E6"/><path d="M242.9 181.9h-18.52v.2h18.52v-.2Z" fill="#FAFBFD"/><path d="M264.76 191.33h-15.77v16.85h15.77v-16.85Z" fill="#77B7DF"/><path d="M264.2 191.93h-14.7v15.7h14.7v-15.7Z" fill="#156DC3"/><path d="M262.83 193.37h-11.99v12.84h11.99v-12.84Z" fill="#156DC3"/><path d="M263.42 198.27h-6.01v-5.23h-1.15v5.23h-6.01v.82h6v7.12h1.16v-7.12h6.01v-.82Z" fill="#DBECF7"/><path d="M249.76 192.18v15.18h14.18v-15.18h-14.18Zm12.84 13.73h-11.46v-12.28h11.46v12.28Z" fill="#DBECF7"/><path d="M266.39 207.36h-18.52v1.38h18.52v-1.38Z" fill="#96C8E6"/><path d="M266.39 207.36h-18.52v.19h18.52v-.19Z" fill="#FAFBFD"/><path d="M241.23 191.33h-15.77v16.85h15.77v-16.85Z" fill="#77B7DF"/><path d="M240.71 191.93h-14.7v15.7h14.7v-15.7Z" fill="#156DC3"/><path d="M239.34 193.37h-11.99v12.84h11.99v-12.84Z" fill="#156DC3"/><path d="M239.93 198.27h-6.01v-5.23h-1.15v5.23h-6.01v.82h6v7.12h1.16v-7.12h6.01v-.82Z" fill="#DBECF7"/><path d="M226.27 192.18v15.18h14.18v-15.18h-14.18Zm12.8 13.73h-11.46v-12.28h11.47v12.28Z" fill="#DBECF7"/><path d="M242.9 207.36h-18.52v1.38h18.52v-1.38Z" fill="#96C8E6"/><path d="M242.9 207.36h-18.52v.19h18.52v-.19Z" fill="#FAFBFD"/><path d="M274.81 160.05h-58.48v2.22h58.48v-2.22ZM245.38 154.37a6.2 6.2 0 1 0 0-12.4 6.2 6.2 0 0 0 0 12.4Z" fill="#77B7DF"/><path d="M245.38 153.89a5.72 5.72 0 1 0 0-11.43 5.72 5.72 0 0 0 0 11.43Z" fill="#156DC3"/><path d="M245.38 142.64a5.54 5.54 0 0 0-5.53 5.53 5.54 5.54 0 0 0 5.53 5.53 5.54 5.54 0 0 0 5.53-5.53 5.54 5.54 0 0 0-5.53-5.53Zm0 9.32a3.82 3.82 0 1 1 0-7.64 3.82 3.82 0 0 1 0 7.64Z" fill="#EDF4F9"/><path d="M246.42 152.54a4.49 4.49 0 1 0-2.07-8.74 4.49 4.49 0 0 0 2.07 8.74Z" fill="#156DC3"/><path d="M245.6 143.46h-.4v9.39h.4v-9.39Z" fill="#EDF4F9"/><path d="M250.1 147.95h-9.4v.4h9.4v-.4Z" fill="#EDF4F9"/><path d="M283.51 129.31s3.98-15.55 26.08-12.78c11.76 1.74 10.1 11.14 10.1 11.14l-29.45 5.36-6.73-3.72Z" fill="#407CB8"/><path d="M300.8 120.7s11.99-2.66 15.1 3.05c-2.82 2.1-12.28 6.1-19.08 6.25-6.84.15-8.99-2.28-8.99-2.28s6.32-5.44 12.98-7.03Z" fill="#3648AA"/><path d="M300.93 107.14c.73 2.61 4.01 12.2 6.89 15.92.55.74.33 1.83-.48 2.23-8.74 4.33-14 2.91-15.85 2.13-.37-.15-.48-.63-.22-.97l.59-.7c.1-.16.18-.34.1-.53l-1.1-4.29a.7.7 0 0 1 .19-.6l8.84-13.45c.37-.33.89-.19 1.04.26Z" fill="#E4A79A"/><path d="M290.42 120.49s5.02-.75 9.92-7.32c.38 9.26-8.75 11.66-8.75 11.66l-1.17-4.34Z" fill="#A84B35"/><path d="M277.07 144.87s.26-1.22-.1-2.93c-.3-1.52-1.42-2.67-1.08-2.93.66-.52 1.67.96 2.07 2.19.38 1.04.15 2.37.19 2.37.04-.04.04-1.11-.22-2.41-.3-1.6-2.12-2.71-1.34-3.23.4-.26 1.7 1.3 2.26 2.86.45 1.3.26 2.63.34 2.67.07.04 0-.67-.15-1.63-.22-1.56-1.45-2.9-.93-3.23.34-.22 1.6 1.45 1.93 2.93.26 1.15.45 2.23.56 2.3.07.04.07-.74-.04-1.48-.15-1.12-.81-2.2-.33-2.49.3-.19 1 1.11 1.3 2.52.3 1.3.07 2.9.1 3.3.05.82.34 3.3.23 4.35-.07.74-4.79-5.16-4.79-5.16Z" fill="#E9B7AC"/><path d="M279.75 148.92c-.34.22-1.26-.12-1.78-.45-.67-.4-1.34-1.48-1.75-2.08-.6-.89-2.86-2.6-2.67-3.41.15-.82 1.63.22 1.97.67a3.5 3.5 0 0 0 1.56 1.22s6.68 1.56 2.67 4.05Z" fill="#E9B7AC"/><path d="M278.12 139.49c.07.04.66 1.22.85 2.08.22 1 .22 1.89.22 1.89M276.85 139.23s1.75 1.67 1.3 4.27" stroke="#A84B35" stroke-width=".43" stroke-miterlimit="10" stroke-linecap="round" stroke-linejoin="round"/><path d="M304.87 158.64c-8.72 1.4-19.89-9.98-19.89-9.98a.94.94 0 0 0-.56-.38l-.3-.07c-.22-.04-1.07-1.11-1.07-1.11a.95.95 0 0 0-1.3-.23l-3.3 2.27a1 1 0 0 0-.26 1.3l.3.44c.1.19.18.41.14.63-.03.23.04.45.15.63 0 0 5.98 19.7 22.6 17.97 16.63-1.75 12.21-12.88 3.5-11.47Z" fill="#FFE5AB"/><path d="m281.98 146.87-3.46 2.23c-.4.3-.52.9-.26 1.3l.3.44c.11.2.19.41.15.64-.04.22.04.44.15.63 0 0 5.97 19.7 22.6 17.96" stroke="#FFBF2E" stroke-width=".43" stroke-miterlimit="10" stroke-linecap="round" stroke-linejoin="round"/><path d="M322.8 194.23s-2.46-10.2-3.2-17.07c-.76-7.28 1.47-15.2-7.04-19.52-3.7 1.16-9.31 1.83-9.31 1.83s-1.91 4.96-2.72 14.63c-.62 7.5-1.9 22.18-1.9 22.18s12.72 2.39 24.17-2.05Z" fill="#FFD577"/><path d="M290.58 182.1s-6.08 1.47-6.27 6.15c4.75-1.78 7.31-2.3 7.31-2.3l-1.04-3.86Z" fill="#E9B7AC"/><path d="m290.58 182.1.9 3.37h-.93l.03-3.38Z" fill="#A84B35"/><path d="M309.85 164.54c-1.64 8.5-16.18 14.99-16.18 14.99a1 1 0 0 0-.56.4l-.15.25c-.11.18-1.41.62-1.41.62a.95.95 0 0 0-.67 1.13l1 3.77" stroke="#FFBF2E" stroke-width=".43" stroke-miterlimit="10" stroke-linecap="round" stroke-linejoin="round"/><path fill-rule="evenodd" clip-rule="evenodd" d="m342.66 214.19 3.02 6.04h-1.8l-1.22-6.04Z" fill="#A84B35"/><path d="M302.94 159.8s-1.57 1.03-2.59 15.54" stroke="#FFBF2E" stroke-width=".43" stroke-miterlimit="10"/><path d="M284.38 130.87s5.34 4.91 10.8 3.75c-4.88 2.95-10.25.44-10.25.44" stroke="#3648AA" stroke-width=".43" stroke-miterlimit="10" stroke-linecap="round" stroke-linejoin="round"/><path d="M315.05 142.1s-1.84 12-5.2 15.76c2.2 3.17 5.56 9.7 5.56 9.7s3.36-2.2 4.37-6.16a980.68 980.68 0 0 0-4.73-19.3Z" fill="#62AFDE"/><path d="M334.78 213.3h13.96l3.9 7.01-17.38-.1-.48-6.91Z" fill="#E4A79A"/><path d="m367.7 218.42-18.19-9.98c-.26.15-.52.44-.78.81-.92 1.38-2.22 2.97-2.33 3.12-.67 1.19.48 1.6.48 1.6 2.67.44 3.26 6.3 5 6.34h3.16c3.08 0 4.72 0 7.24.04 3.15.04 4.45-.22 5-.89.45-.52.42-1.04.42-1.04Z" fill="#6B3626"/><path d="m367.7 218.42-18.19-9.98c-.26.15-.52.44-.77.81l18.55 10.17c.44-.48.4-1 .4-1Z" fill="#FFD577"/><path d="m361.13 220.39-1.49-1.52M358.83 220.39l-1.34-1.52M356.45 220.31l-1.4-1.44M353.56 220.39l-1.19-1.19" stroke="#FFD577" stroke-width=".43" stroke-miterlimit="10" stroke-linecap="round" stroke-linejoin="round"/><path d="M287.89 221.1h48.01c4.8-.48 8.05 0 8.05 0l-2.29-12.05-46.64-12.56s-15.85 6.28-13.4 18.36c.77 3.7 2.8 5.32 6.27 6.25Z" fill="#407CB8"/><path d="m258.56 209.07-8.98 4.12-4.05-4.6 9.73-5.27 3.3 5.75Z" fill="#E4A79A"/><path d="m231.4 203.76 12.76 16.48c.3-.04.63-.22 1-.48 1.37-.93 2.97-3.3 4.12-4.53.15-.15.26-.26.37-.4.19-.2.37-.38.52-.5 1.08-.84.15-1.62.15-1.62-2.75-.38-2.38-4.6-3.93-5.05 0 0-.67-.19-2.75-.56-2.08-.37-4.42-1.89-6.53-3.08-2.75-1.56-4.2-1.45-4.97-1.07-.6.33-.75.81-.75.81Z" fill="#6B3626"/><path d="m231.4 203.76 12.76 16.48c.3-.04.63-.22 1-.48l-13.02-16.81c-.6.33-.75.81-.75.81Z" fill="#FFD577"/><path d="m237.6 204.06.77 1.97M239.86 205.32l.81 1.97M242.16 206.55l.78 1.96M244.75 207.25l.78 1.97" stroke="#FFD577" stroke-width=".43" stroke-miterlimit="10" stroke-linecap="round" stroke-linejoin="round"/><path d="M355.61 188.26s6.94 29.73-18.64 25.27c-20.84-3.63-41.24-11.17-41.24-11.17l-39.1 16.15-7.65-12.66s26.5-18.33 47.35-21.9c19.84-3.34 59.28 4.3 59.28 4.3Z" fill="#2891D2"/><path d="M251.14 209.44s36.05-20.53 50.38-20.38c14.32.15 39.06 9.25 40.14 9.33 1.08.07 6.03 2.6 6.18-10.1" stroke="#77B7DF" stroke-width=".43" stroke-miterlimit="10"/><path d="M345.88 192.37c-.6.07-5.09 6.53-5.09 6.53s-.85 2.78-2.26 5.09c-1.22 2-3.23 3.07-2.86 3.63.7 1.12 2.75-1.04 4.01-2.78.96-1.34 1.63-2.6 1.7-2.53.08.04-.51 1.64-1.48 3.34-1.22 2.12-4.04 2.97-3.56 3.86.37.71 3.71-.92 5.01-3.07.96-1.6 1.34-3.3 1.48-3.27.15 0-.44 1.34-1.14 2.67-.97 1.9-2.9 3-2.34 3.75.37.52 2.63-1.19 3.82-3.12.93-1.52 1.74-3.15 1.93-3.19.15-.04.48 1.37-.04 2.41-.81 1.52-2.7 2.53-2.15 3.2.37.44 2.45-.86 3.64-2.75 1.07-1.7 1.3-4.12 1.48-4.71.45-1.2.78-5.42 1.15-6.98.26-1.08-1.41-2.26-3.3-2.08Z" fill="#EABCB2"/><path d="M344.47 193.15c-.56-.3-2.08-.19-2.82.33-.97.7-1.7 2.86-2.27 3.79-.81 1.37-4.04 4.16-3.74 5.38.3 1.22 3.11-1.22 3.56-1.93.44-.7 1.3-1.11 1.3-1.11s10.24-3.08 3.97-6.46Z" fill="#EABCB2"/><path d="M340.53 199.57s-.44.15-1.07.93a6.76 6.76 0 0 1-2.6 2.15M339.53 208.18s2.08-1.19 3.3-5.27" stroke="#A84B35" stroke-width=".43" stroke-miterlimit="10" stroke-linecap="round" stroke-linejoin="round"/><path d="M315.11 112.86s1.34 4.91-.52 8.53c-1.6 3.1-5.44 12.2-2.16 16.95 5.78 8.5 25.05-.07 25.05-.07s-6.3-25.26-7.87-27.14c-1.6-1.89-14.5 1.73-14.5 1.73Z" fill="#FF7C22"/><path d="M320.04 110.52s1.22 6.13 8.83 5.24c.22.4 1 2.64 1 2.64l2 .44s-3.52 5.8-.96 11.78c2.48 5.87-1.11 13.23 13.87 7.92 12.91-4.61 12.8-17.95 2.41-19.4-8.5-1.19-6.49-5.76-9.38-11.14-6.68-12.49-19.18-6.03-19.07-2.53-9.72-1.2-11.35 11.81-3.41 13.41-.15-3.27 3.82-7.69 4.71-8.36Z" fill="#FF7C22"/><path d="M320.2 107.13s2.01 7.26 7.78 6.9" stroke="#A84B35" stroke-width=".43" stroke-miterlimit="10" stroke-linecap="round" stroke-linejoin="round"/><path d="M318.21 137.78s-4.83 1.35-3.1 10.36c.34 2.55-2.98 5.09-.36 8.46 2.84 3.62 11.7 8.34 10.44 27.82 7.3-2.58 24.42 4.3 24.42 4.3s3.76-36.99.03-49.07c-.95-3.1-3.13-5.76-6.38-5.76-7.82.04-17.44 2.59-21.72 3.15-2 .26-3.33.74-3.33.74Z" fill="#96C8E6"/><path d="M332.73 121.2s2.13 11.31 5.18 14.69c-11.95 4.44-12.22 4.04-12.22 4.04l1.18-2.31s.76-3.79-1.48-10.58c1.06-.99 2.05-5.07 3.84-6.68 1.03-.96 3.5.84 3.5.84Z" fill="#E9B7AC"/><path d="M332.3 123.97c-2.72 4.65-6.05 6.18-6.05 6.18v.03c.3 1.21.33 1.53.5 2.42 3.24-1.88 5.14-4.34 5.55-8.63Z" fill="#A84B35"/><path d="M340.07 134.33s-2.91.34-3.98-1.61c-1.21-2.1-6.4-.64-8.83 2.59-.55.75-.81 1.05-3.17 1.61.7 6.3 2.32 9.46 8.43 7.73 6.08-1.73 7.55-10.32 7.55-10.32Z" fill="#E9B7AC"/><path d="M314.6 156.83c5.25 4.65 17.11 4.02 24.2 2.9 7.08-1.07 10.85-4.3 12.98-8.14.97 12.94 2.53 39.29 2.53 39.29s-21.37-5.8-33.45-6.73c-4.77-15.57-4.59-23.27-6.26-27.24v-.08Z" fill="#62AFDE"/><path d="M315.13 148.57c.34 2.54-2.03 4.48-.37 8.43 1.67 3.95 3.15 16.9 6.07 27.34 0 0 12.18 1.15 22.7 3.95" stroke="#407CB8" stroke-width=".43" stroke-miterlimit="10" stroke-linecap="round" stroke-linejoin="round"/><path d="M341.83 134.33s11.02-2.11 17.81 12.84c7.39 16.22 7.72 18.78 4.38 28.8-2.97 8.9-11.57 17.7-13.88 19.96-5.56 1.75-9.16-1.7-9.16-1.7l11.32-25.8-8.32-15.58-2.15-18.52Z" fill="#96C8E6"/><path d="m344.02 152.78 8.31 15.58-11.31 25.8s3.3 3.52 9.16 1.7M358.75 167.7l-6.42.66" stroke="#407CB8" stroke-width=".43" stroke-miterlimit="10" stroke-linecap="round" stroke-linejoin="round"/><path d="M337.91 113.17s-.43 5.01 6.58 7.54c6.94 2.45 8.83 6.29 4.45 10.16" stroke="#A84B35" stroke-width=".43" stroke-miterlimit="10" stroke-linecap="round" stroke-linejoin="round"/><path fill-rule="evenodd" clip-rule="evenodd" d="m249.39 206.42 3.04 5.61-3.88-5.06.84-.55Z" fill="#A84B35"/><path d="M321.07 183.96s-23.76-4.76-47.48 8.21" stroke="#407CB8" stroke-width=".43" stroke-miterlimit="10" stroke-linecap="round" stroke-linejoin="round"/><path d="M305.06 156.86c1.3-1.12 3.9-2.08 7.6-.78 3.3.74 4.72 3.3 4.72 3.3s-7.05 3.56-15 1.34c.26-2.23 1.38-2.75 2.68-3.86Z" fill="#FFBF2E"/><path d="M233.36 139.04s-1.56-7.53 1.78-8.94c2.67-1.11 3.83 4 4.16 6.05.11.7-.56 1.3-1.23 1.04-.3-.11-.63-.34-.92-.78-1.2-1.52-1.93-3-1.93-3l1.4 3.85" fill="#E4A79A"/><path d="M233.36 139.04s-1.56-7.53 1.78-8.94c2.67-1.11 3.83 4 4.16 6.05.11.7-.56 1.3-1.23 1.04-.3-.11-.63-.34-.92-.78-1.2-1.52-1.93-3-1.93-3l1.4 3.85" stroke="#A84B35" stroke-width=".43" stroke-miterlimit="10" stroke-linecap="round" stroke-linejoin="round"/><path d="M232.21 139.08s-2.9-5.75.04-7.87c2.45-1.78 5 4.23 5.79 6.28.18.51-.11 1.07-.67 1.15-.37.03-.85-.04-1.45-.52-1.52-1.2-2.9-3.68-2.9-3.68l2.27 3.42" fill="#E4A79A"/><path d="M232.21 139.08s-2.9-5.75.04-7.87c2.45-1.78 5 4.23 5.79 6.28.18.51-.11 1.07-.67 1.15-.37.03-.85-.04-1.45-.52-1.52-1.2-2.9-3.68-2.9-3.68l2.27 3.42" stroke="#A84B35" stroke-width=".43" stroke-miterlimit="10" stroke-linecap="round" stroke-linejoin="round"/><path d="M230.58 139.08s-3.64-3.04-1.3-5.79c1.93-2.26 5.79 2.82 7.09 4.68a.9.9 0 0 1-.52 1.4c-.34.08-.78.04-1.38-.22-1.74-.81-3.67-2.89-3.67-2.89l3 2.82" fill="#E4A79A"/><path d="M230.58 139.08s-3.64-3.04-1.3-5.79c1.93-2.26 5.79 2.82 7.09 4.68a.9.9 0 0 1-.52 1.4c-.34.08-.78.04-1.38-.22-1.74-.81-3.67-2.89-3.67-2.89l3 2.82" stroke="#A84B35" stroke-width=".43" stroke-miterlimit="10" stroke-linecap="round" stroke-linejoin="round"/><path d="M226.24 139.41s-1.71-1.74.44-4.63c1.82-2.41 5.72 2.3 6.9 3.86.3.37.19.89-.18 1.15-.34.22-.9.33-1.7.03-1.79-.7-3.31-2.19-3.31-2.19" fill="#E4A79A"/><path d="M226.24 139.41s-1.71-1.74.44-4.63c1.82-2.41 5.72 2.3 6.9 3.86.3.37.19.89-.18 1.15-.34.22-.9.33-1.7.03-1.79-.7-3.31-2.19-3.31-2.19" stroke="#A84B35" stroke-width=".43" stroke-miterlimit="10" stroke-linecap="round" stroke-linejoin="round"/><path d="M329.27 145.54s7.38.47 9.73-7.61c.77-2.26 1.07-3.6 1.07-3.6" stroke="#407CB8" stroke-width=".43" stroke-miterlimit="10" stroke-linecap="round" stroke-linejoin="round"/><path d="M334.6 116c-1.16 5.34-3.12 9.76-5.8 12.84a15.59 15.59 0 0 1-3.63 3.08c-.7.4-1.45.74-2.23.96a5.64 5.64 0 0 1-5.9-1.52c-4.53-5.04-3.45-18.63.11-23.3 7.02-9.28 19.45-1.52 17.45 7.94Z" fill="#E9B7AC"/><path d="M317.38 120.23s-.08 2.97-.93 3.15c-.56.12-1.19.86.96 1" stroke="#A84B35" stroke-width=".51" stroke-miterlimit="10" stroke-linecap="round" stroke-linejoin="round"/><path d="M320.9 120.64c.45-.19.7-.67.52-1.08-.18-.44-.63-.63-1.11-.44-.45.18-.7.66-.52 1.07.18.41.67.6 1.11.45ZM315.45 120.6c-.49.08-.75.56-.67 1.04.07.48.56.74 1.04.67.48-.08.74-.56.67-1.04-.12-.45-.63-.74-1.04-.67ZM321.68 116.15c-.78-.9-2.7-1.23-2.78.18.15 1.15 1-.7 2.93 1 .44.34.26-.66-.15-1.18ZM315.7 117.86c.49.1-.07-1.49-1.1-1.08-1 .52-1.64 1.97-1.27 2.34.56.4 1.12-1.6 2.38-1.27Z" fill="#290C0F"/><path opacity=".35" d="M320.6 123.72c-.07 1.56 2.45 2.34 4.6.03 1-1.03 1.27-2.4.45-3.33-.67-.71-1.56-.9-2.97.85-1.3 1.82-1.96 1.6-2.07 2.45ZM314.15 123.53s1.56 2.3 1.3 2.97c-.23.6-.52.63-.6.6-.18-.93-.67-2.9-.7-3.57Z" fill="#B2412B"/><path d="M319.9 125.02c3.45-2.04 2 2.19.37 2.85-1.67.63-4.75-.26-.37-2.85Z" fill="#A84B35" stroke="#A84B35" stroke-width=".51" stroke-miterlimit="10" stroke-linecap="round" stroke-linejoin="round"/><path d="M320.72 126.1c.44-.2.81-.2 1.15-.27.33-1.07-.04-2-1.97-.81-2.52 1.48-2.52 2.45-1.78 2.85 0-.52.63-1.07 2.6-1.78Z" fill="#fff" stroke="#A84B35" stroke-width=".51" stroke-miterlimit="10" stroke-linecap="round" stroke-linejoin="round"/><path d="M317.05 107.02s-2.9 7.5 9.61 9.54c.53.48 2.4 3.95 2.4 3.95l2.75-1.77 4.8-6s-.75-7.8-6.57-9.16c-7.14-1.67-13 3.44-13 3.44Z" fill="#FF7C22"/><path d="M330.85 119.75s-.78-7.05 4.45-6.2c3.3.56 2.6 8.72-3.49 7.94l-.96-1.74Z" fill="#E9B7AC"/><path d="M334.45 114.96s-3.9-.6-2 4.82" stroke="#A84B35" stroke-width=".43" stroke-miterlimit="10" stroke-linecap="round" stroke-linejoin="round"/><path d="M335.15 117.22s-2.3-2.3-3.23-.48" stroke="#A84B35" stroke-width=".43" stroke-miterlimit="10" stroke-linecap="round" stroke-linejoin="round"/><path d="M297.63 99.52s6.1 2 7.35.3c1.26-1.7-1.19-2.9-1.19-2.9 1.08-.25 2.6-2.67-.4-5.64-2.04-2.04-3.9-.7-3.9-.7.74-.15 1.34-3.41-1.97-4.38-3.3-.96-4.56 1-4.56 1-.37-1.63-2.67-2.82-4.53-1.85-2.48 1.33-2.34 3.11-2.34 3.11s-2.3-1.81-5.08-.14c-3.78 2.04-2.82 5.38-2.82 5.38-.56-.63-3.04 1.3-2.67 3.56.4 2.45 1.78 3 1.78 3s-.45 3.57 2.63 4.05l17.7-4.79Z" fill="#591D0B"/><path d="M283.09 115.7c-.04-.1-.11-.26-.15-.4-.37-.97-.7-1.97-1.04-3.01v-.04c-1.56-4.94-2.6-10.28-2.19-12.25 0 0 4.05-4.86 4.53-5.49.52-.63 8.05-.03 8.31-.37.26-.3 5.34 9.43 6.2 7.53.04-.03.04-.1.07-.14.75-2.86.9-3.53 3.05-1.71 1.89 1.56 1.96.56 1.26 2.34a69.59 69.59 0 0 0-1.93 5.27s.22.4.1 2.19c-.03.55-.06 1.22-.18 2.04-.85 6.6-6.75 9.98-8.57 10.42a6.93 6.93 0 0 1-7.64-3.08 16.27 16.27 0 0 1-1.82-3.3Z" fill="#E4A79A"/><path d="M282.94 115.3c-.37-.97-.7-1.97-1.04-3.01v-.04c1.11.6 2.41 1.26 2.23 2.34a1.3 1.3 0 0 1-1 1.08c-.12-.08-.15-.23-.19-.38ZM291.03 109.1c-.85 1.4-.11 2.78.85 3.04 1.56.44 4.2-1.22 4.53-2.75.33-1.52-.6-3.15-1.48-3.22-1-.12-3.08 1.52-3.9 2.93Z" fill="#DB8A79"/><path d="M283.83 107.72a.66.66 0 0 0-.89-.22c-.3.19-.4.6-.22.9a.65.65 0 0 0 1.11-.67ZM289.25 106.02a.7.7 0 0 0-.93-.23.7.7 0 0 0-.22.93c.18.3.6.41.93.22.3-.18.4-.59.22-.92Z" fill="#2A1718" stroke="#2A1718" stroke-width=".22"/><path d="M291.07 103.68a.44.44 0 0 0-.15-.6c-.08-.07-2.23-2.11-4.57-.1-.15.14-.22.48-.1.66.14.22.4.19.59.08 1.15-.56 3.23.03 3.6.14.18.08.37 0 .51-.07l.12-.11ZM280.82 107.28c.15-.34.41-1.63 2.16-2.27.18-.07.33-.22.3-.44-.04-.26-.27-.45-.45-.4-2.49.1-2.93 1.81-2.75 2.96.04.26.15.48.37.52.08 0 .15 0 .19-.04.11-.03.11-.18.19-.33Z" fill="#591D0B"/><path d="M289.84 111.88c.74-.52 1.45-.93 1.78-.85.93.22-.22 2.9-1.44 3.56-1.79.93-5.01.74-.34-2.71Z" fill="#A84B35" stroke="#A84B35" stroke-width=".45" stroke-miterlimit="10" stroke-linecap="round" stroke-linejoin="round"/><path d="M290.62 112.58c.52-.22.93-.4 1.26-.44.23-1.3-.26-1.48-2.22-.07-2.71 2.04-2.49 2.6-1.86 2.93 0-.63 1.93-2 2.82-2.42Z" fill="#fff" stroke="#A84B35" stroke-width=".45" stroke-miterlimit="10" stroke-linecap="round" stroke-linejoin="round"/><path d="M285.46 104.42s-1.89-.11-1.3.82c.6.96.67 2.74.67 2.74s.49.49 1-.07l-.37-3.49Z" fill="#E4A79A"/><path d="M287.2 111.66c-1.33.6-3.11.15-2.7-.86.44-1.11.74-2.85.04-4.56" fill="#E4A79A"/><path d="M287.2 111.66c-1.33.6-3.11.15-2.7-.86.44-1.11.74-2.85.04-4.56" stroke="#A84B35" stroke-width=".61" stroke-miterlimit="10" stroke-linecap="round" stroke-linejoin="round"/><path d="M299.42 105.68s1.67 1.56.66-.74c-1-2.34-.07-1.56-.07-1.56s-2.56 1.49-2.52 1.52c0-.03-1.34-3.45-3.16-5.82a4.87 4.87 0 0 0-2.19-1.56c-2.63-.85-5.82-.3-9.6 1.45-2.27 1.03-2.98 2-2.98 2s-4.64-2.52-1.04-6.5c.23-.22.38 1.04.63.86 12.8-9.65 12.92-3.67 12.92-3.67s5.27-2.42 8.46 2.67c3.64 5.79 3.08 10.76 1.11 10.9" fill="#591D0B"/><path d="M304.35 99.11c-2.11-1.81-4.79-.4-5.53 2.42 0 .07-.03.1-.07.14-.11.71.33 2.53.37 3.42l2.15 4.45c.11-1.78-.11-2.19-.11-2.19s2.67.34 4.08-3.23c.67-1.67.63-3.67-.89-5Z" fill="#E4A79A"/><path d="M304.06 100.23c-.3-.34-.78-.6-1.45-.6-1.38 0-3.05 1.56-2.49 4.16.08.3.86-.22 1.26.52.41.82.34 1.41-.4 1.63" stroke="#A84B35" stroke-width=".45" stroke-miterlimit="10" stroke-linecap="round" stroke-linejoin="round"/><path d="M303.8 102.2s-1.68-2.5-3.68-.12" stroke="#A84B35" stroke-width=".45" stroke-miterlimit="10" stroke-linecap="round" stroke-linejoin="round"/><path d="M279.67 94.74c-.7-1.45.12-4.5 2.79-4.72M278.7 99.19s-1.88-.6-2-2.45M302.6 91.8c.82.6 1.97 2.27.3 4.57M300.34 92.06c.93-.14 2.05.37 2.38 1.71" stroke="#835648" stroke-width=".45" stroke-miterlimit="10" stroke-linecap="round" stroke-linejoin="round"/><path d="M318.48 107.13s.67 7.3 9.07 6.89" stroke="#A84B35" stroke-width=".43" stroke-miterlimit="10" stroke-linecap="round" stroke-linejoin="round"/><path d="m307.73 150.06 2.63-2.48s1.9 7.75 2.34 9.42c.45 1.68-7.5 2.6-7.53 1.86-.04-.74.04-1.34-.15-2.04-.04-.15-.07-.26-.07-.4-.26-1.08-.6-2.12-.97-2.75 0-.04-.04-.04-.04-.08l3.79-3.53Z" fill="#E9B7AC"/><path d="M304.5 150.06s3.6 2.6 1.19 3.8c-2.75 1.36-4.42 2.1-4.42 2.1s-1.93-2.7-3.6-9.12l6.83 3.22Z" fill="#6B3626"/><path d="M307.73 150.07c.74-.38 1.26-.34 1.22.63-.14 3.37-1.89 5.38-3.9 6.16-.03-.15-.07-.26-.07-.41-.26-1.08-.6-2.12-.96-2.75 0-.03-.04-.03-.04-.07l3.75-3.56Z" fill="#A84B35"/><path d="M302.8 137.45a7.72 7.72 0 0 0-2.27 2.04c-1 1.3-1.82 2.97-2.34 4.75l-.22.85c-.15.56-.22 1.15-.3 1.71-.04.3-.07.6-.07.85 0 .3-.04.56-.04.82.04 5.34 3.9 7.57 9.28 4.94a16.36 16.36 0 0 0 5.16-4.2c.7-.81 1.37-1.7 2.04-2.7 4.12-5.76-3.79-13.25-11.25-9.06Z" fill="#E9B7AC"/><path d="M300.75 146.91c-.81-.04-.93-1.15-.44-1.26.4-.11.7-.33.89-.7.37-.64.44-1.38.44-1.38" stroke="#A84B35" stroke-width=".43" stroke-miterlimit="10" stroke-linecap="round" stroke-linejoin="round"/><path d="M302.98 144.46c0-.33.33-.6.67-.6.4 0 .63.3.63.64 0 .33-.34.6-.67.6a.65.65 0 0 1-.63-.64ZM300.45 144.24c-.1.33-.4.6-.74.48-.33-.1-.6-.4-.48-.74.11-.33.4-.6.74-.48.26.03.52.4.48.74Z" fill="#290C0F"/><path d="M305.65 143.9c-1.04-1.81-2.48-.77-2.3-1.7.07-.22.45-.3.9-.22.73.14 1.14.48 1.51 1.26.19.37.04.89-.1.66Z" fill="#6B3626"/><path opacity=".35" d="M305.8 146.28c1.41 0 1.7.45 1.78 1.19.04.96-.74 1.56-1.67 1.85-2 .67-3.23-.63-2.26-1.85.37-.41.85-1 2.15-1.19ZM298 145.02c0 .04-.03.07-.03.11-.15.56-.22 1.15-.3 1.7-.04.3-.07.6-.07.86 0 .3-.04.56-.04.82.22 0 .52-.08.78-.3.63-.45.19-1.93-.33-3.2Z" fill="#B2412B"/><path d="M301.24 150.29c1.44.3 4.34-2.04 1-2.15-4.2-.12-2.45 1.89-1 2.15Z" fill="#A84B35" stroke="#A84B35" stroke-width=".43" stroke-miterlimit="10" stroke-linecap="round" stroke-linejoin="round"/><path d="M299.71 149.36c-.33-.63.11-1.26 2.53-1.19 1.89.04 1.74.86 1 1.45-.3-.11-.56-.26-.93-.33-.56-.23-2.37-.3-2.6.07Z" fill="#fff" stroke="#A84B35" stroke-width=".43" stroke-miterlimit="10" stroke-linecap="round" stroke-linejoin="round"/><path d="M319.75 148.06s-.7-11.13-6-11.91c0 0-1.72-5.01-8.66-3.27-2.82.7-4.97 2.12-6.23 4.5.74-.82 3.45-1.86 6.05-.82 6.71-1.9 12.84 4.75 9.13 9.98-.67 1-1.38 1.9-2.04 2.7.1.75.1 1.42.03 2.05-.59 4.2 1 4.97 1 4.97s2.05-1.26 3.9-3.23c.08-.03.26-.33.3-.3.11-.1.22-.25.33-.36-.07-.52-.14-1.27-.07-1.97l.6 1.3a9.81 9.81 0 0 0 1.66-3.64Z" fill="#6B3626"/><path d="M302.8 137.45a7.28 7.28 0 0 0-2.27 2.04c2.26-2.04 6.83-.63 7.8.19 0 0 3.07 5.38 3.67 9.57.7-.82 1.37-1.7 2.04-2.71 4.12-5.79-3.79-13.28-11.25-9.1Z" fill="#6B3626"/><path d="M298.86 137.37c-2.56 3.23-2.23 5.83-1.19 9.43a16.29 16.29 0 0 1 2.9-7.35 7.78 7.78 0 0 1 4.38-2.93c-2.64-1-5.35.04-6.09.85Z" fill="#591D0B"/><path d="m302.27 136.74-2.96 1.82.22 2.08s.1-1.67 3.04-2.08a9.4 9.4 0 0 1 5.79 1.15s-.26-1.97-3.67-3.23l-2.42.26Z" fill="#591D0B"/><path d="m316.38 143.09.59 7.83-3.56 5-.41.38c-3.16-1.41-3.2-6.01-3.3-10.1-.08-2.52.03-4.15-1.3-6.34l7.98 3.23ZM298.38 142.6c-.08-.44.63-1.1 1.52-1.22.93 0 .96 1.23.63.93-1.6-.74-1.86.85-2.15.3Z" fill="#6B3626"/><path d="M310.29 149.36c3.23 2.19 5.6-2.26 4.04-3.6-2-1.7-3.97 1.49-3.97 1.49l-.07 2.11Z" fill="#E9B7AC"/><path d="M313.85 146.47s-2.04-1-2.52 1.37" stroke="#A84B35" stroke-width=".43" stroke-miterlimit="10" stroke-linecap="round" stroke-linejoin="round"/><path d="M312.03 146.54c1.12-.6 1.49 1.41 1.49 1.41M312.93 137.3s-3.42 2.56-4.6 2.41" stroke="#A84B35" stroke-width=".43" stroke-miterlimit="10" stroke-linecap="round" stroke-linejoin="round"/><path d="M310.51 145.8s-.48 2.04-.56 2.26c-.07.22.26 2.93.26 2.93s2.68 4.6 1.45 1c-1.19-3.6-.6-4.56-1.04-7.68l-.1 1.49Z" fill="#6B3626"/><path d="M318.05 145.9c-.15-4.33-1.34-6.74-4.38-7.67M315.15 154.7c-4.75-1.1-4.38-8.12-4.49-10.42M315.08 150.25s-.19 2.12.63 3.97M298.82 137.7s1.56-3.63 5.53-3.15" stroke="#591D0B" stroke-width=".43" stroke-miterlimit="10"/><path d="M309.37 164.06c-1.63 8.75-16.14 15.44-16.14 15.44a1 1 0 0 0-.56.4l-.15.27c-.1.19-1.4.64-1.4.64a.98.98 0 0 0-.68 1.16l1 3.88c.16.49.64.83 1.16.68l.52-.15c.22-.04.44-.04.63.07.18.11.44.11.63.08 0 0 20.56 1.08 24.57-15.3 4.04-16.33-7.94-15.92-9.58-7.17Z" fill="#FFE5AB"/><path d="M293.88 185.27s-.05-3.8-1.3-5.18" stroke="#FFBF2E" stroke-width=".43" stroke-miterlimit="10" stroke-linecap="round" stroke-linejoin="round"/><path d="M305.1 158.67s4.38 1.18 7.77-1.46" stroke="#FF7C22" stroke-width=".43" stroke-miterlimit="10"/></g><defs><linearGradient id="b" x1="0" y1="220" x2="378.5" y2="-6" gradientUnits="userSpaceOnUse"><stop stop-color="#4355B2"/><stop offset=".58" stop-color="#1E9ADD"/><stop offset="1" stop-color="#00D2FF"/></linearGradient><linearGradient id="d" x1="390.8" y1="-7.49" x2="358.24" y2="48.82" gradientUnits="userSpaceOnUse"><stop stop-color="#fff"/><stop offset="1" stop-color="#fff" stop-opacity="0"/></linearGradient><linearGradient id="e" x1="198.1" y1="203.36" x2="238.14" y2="155.84" gradientUnits="userSpaceOnUse"><stop stop-color="#fff"/><stop offset="1" stop-color="#fff" stop-opacity="0"/></linearGradient><clipPath id="a"><rect width="360" height="220" rx="8" fill="#fff"/></clipPath><filter id="c" x="113.5" y="-84.5" width="377" height="377" filterUnits="userSpaceOnUse" color-interpolation-filters="sRGB"><feFlood flood-opacity="0" result="BackgroundImageFix"/><feGaussianBlur in="BackgroundImage" stdDeviation="25"/><feComposite in2="SourceAlpha" operator="in" result="effect1_backgroundBlur_5_24088"/><feBlend in="SourceGraphic" in2="effect1_backgroundBlur_5_24088" result="shape"/></filter></defs></svg>