<svg xmlns="http://www.w3.org/2000/svg" width="360" height="220" fill="none"><path fill="#F5F5F5" d="M0 0h360v220H0z"/><g clip-path="url(#a)"><rect width="360" height="220" x="360" y="220" fill="url(#b)" rx="8" transform="rotate(180 360 220)"/><g filter="url(#c)" transform="rotate(54.66 281.15 145.15)"><circle cx="281.15" cy="145.15" r="124.19" fill="#EEF8FF" fill-opacity=".08"/><circle cx="281.15" cy="145.15" r="123.69" stroke="url(#d)"/></g><path fill="#FF7C22" d="M300.17 47.55c.45-12.05 13.93-7.03 18.3-3 3.5 3.25 7.76 9.99 3.88 15.55-3.88 5.56-11.64 2.13-11.64 2.13l-10.54-14.68ZM264.94 62.27c-4.79 7.41-2.02 15.95 4.01 25.67 6.13 9.96 36 3.62 36 3.62s2.9-25.97-2.71-29.28c-24.36-14.96-34.35-4.05-37.3-.01Z"/><path fill="#E9B7AC" d="m310.12 118.9-30.23 21.36-3.62-22.21c5.93-1.8 8.84-4.89 10.19-8 .94-2.2 1.1-4.42.99-6.21a14.87 14.87 0 0 0-.73-3.87l17.53-20.3 5.87 39.23Z"/><path fill="#A84B35" d="M286.46 110.04c.94-2.2 1.08-6.53.96-8.32l12.71-12.25s-1.81 16.28-13.67 20.57Z"/><path fill="#E9B7AC" d="M277.9 54.3c-7.97 8.3-12.94 34.45-5.22 45.19a10.97 10.97 0 0 0 11.17 4.2c11.47-2.34 20.82-13.8 26.35-30.28 5.9-17.95-16.64-35.62-32.3-19.11Z"/><path fill="#290C0F" d="M282.9 79.88c.9-.24 1.5-1.12 1.25-2-.24-.9-1.1-1.38-2.1-1.11-.9.24-1.5 1.11-1.25 2 .24.9 1.2 1.35 2.1 1.11ZM271.8 77.4c-.95.01-1.55.9-1.54 1.84.02.95.9 1.55 1.86 1.53.95-.02 1.55-.9 1.53-1.85-.13-.92-1.04-1.63-1.85-1.53Z"/><path fill="#DB8A79" d="M281.93 86.29c-.93 2.9 3.48 5.61 8.67 2.31 2.4-1.45 3.6-3.91 2.52-6.1-.9-1.64-2.52-2.49-6.04.14-3.39 2.85-4.53 2.06-5.15 3.65Z"/><path fill="#B2412B" d="M268.77 83.61s2.51 4.82 1.89 6.06c-.54 1.1-1.16 1.1-1.3 1.02-.43-2.39-.7-5.73-.59-7.08Z" opacity=".35"/><path fill="#A84B35" stroke="#A84B35" stroke-linecap="round" stroke-linejoin="round" stroke-miterlimit="10" stroke-width=".65" d="M279.96 88.19c7.54-2.22 2.75 5.12-.7 5.54-3.44.43-8.86-2.73.7-5.54Z"/><path fill="#fff" stroke="#A84B35" stroke-linecap="round" stroke-linejoin="round" stroke-miterlimit="10" stroke-width=".65" d="M280.96 90.62c.92-.12 1.64.03 2.34.06 1.17-1.89.92-3.83-3.34-2.5-5.51 1.62-5.99 3.42-4.8 4.55.23-.96 1.77-1.73 5.8-2.11Z"/><path fill="#FF7C22" d="m301.98 72.2 2.3 7.5s2.07 13.2 1.96 13.25c3.78-3.34 12.3-9.08 11.99-21.84-.3-12.46-8.7-22.8-19.4-24.8-5.37-.75-20-2.27-24.39 12.66 3.67-.7 12.76 2.42 16.94 7.33 5.3 6.42 10.6 5.9 10.6 5.9Z"/><path fill="#E9B7AC" d="M299.95 76.5s2.46-9.58 8.95-6.87c5.06 2.13 2.5 15.33-7.47 12.3l-1.48-5.43Z"/><path stroke="#A84B35" stroke-linecap="round" stroke-linejoin="round" stroke-miterlimit="10" stroke-width=".65" d="M307.7 71.7s-6.34-2.17-4.8 7.4"/><path stroke="#A84B35" stroke-linecap="round" stroke-linejoin="round" stroke-miterlimit="10" stroke-width=".65" d="M308.28 75.62s-3.16-4.49-5.16-1.81"/><path stroke="#A84B35" stroke-miterlimit="10" stroke-width=".65" d="M286.36 50.12s3.3 13.54 13.67 17.25M291.3 50.35s2.29 6.68 12.62 11.22"/><path fill="#FF7C22" d="M302.5 71.24a12.65 12.65 0 0 0-1.55 4.04c-.1.51-.4.97-.87 1.22-.22.11-.46.17-.66.07-9.4-7.69-16.72-3.22-23.27-9.5-2.47-2.37-3.5-5.19-1.6-8.43 6.88-11.82 9.52-3.46 9.52-3.46l10.83 12.07 7.6 3.99Z"/><path fill="#A84B35" d="M285.71 71.45c-1.76-1.54-6.38-2.35-6.18.42.66 1.32 2.6-.97 6.78 1.88.95.53.32-1.35-.6-2.3ZM273.11 71.56c-.36-.5-1.07-.64-1.96-.5-2.13.57-3.7 3.13-3.27 3.69.77.92 1.46-1.38 4.33-1.43.89-.02 1.42-1.04.9-1.76Z"/><path fill="#E6AEA2" d="M211.88 139.55c.82-1.01-5.3-14.08-5.3-14.08s-6.39-17.53-8.33-17.17c-2.6.45 3.14 14.06 2.67 14.14-.46.08-10.25-12.93-11.56-12.55-3.43.95 8.36 13.36 7.77 13.92-.63.48-7.51-11.31-9.15-10.63-2.63 1.08 6.66 12.44 6.2 13.03-.46.59-5.04-9.44-6.7-8.95-2.56.84 5.76 13.81 7.15 15.74 1.38 1.93 4.75 7.46 7.02 9.66 1.53 1.33 7.6 0 10.23-3.11Z"/><path fill="#E6AEA2" d="M211.99 139.15c-.45-4.35-.38-3.85.08-5.45.5-3.1-.43-5.92-.86-7.8-.64-2.9 1.02-10.51-1.17-11.75-2.19-1.23-3.08 5.55-2.83 7.14a5.48 5.48 0 0 1-.1 2.72s-9.49 18.71 4.88 15.14Z"/><path stroke="#A84B35" stroke-linecap="round" stroke-linejoin="round" stroke-miterlimit="10" stroke-width=".65" d="M205.98 125.72s-3.65 4.97-3.45 10.17M203.6 121.83s-5.71-.11-10.44 5.61M191.78 116.6l5.4 7.17M189.89 119.39l4.34 6.78"/><path fill="#77B7DF" d="M274.38 116.1c-4.16-.09-.95 3.36-1.02 4.28-.07.93-4.06 11.06-4.2 10.99-.07-.04-3.3 113.48-3.23 110.6h34.62l1.82-97.97 13.25-7.72s-4.99-19.74-5.9-18.46c-3.66 4.5-25.83 16.52-25.83 16.52s-3.02-12.95-1.56-19.17c0 0-3.8 1.01-7.95.93Z"/><path stroke="#96C8E6" stroke-miterlimit="10" stroke-width=".65" d="M306.74 123.98s-15.1 9.23-24.2 14.58a32 32 0 0 1-1.33-4.1"/><path fill="#fff" d="M310.36 115.6c-3.21 4.97-16.12 40.93-18.57 72.31-2.54 32.48-2.47 33.58-2.85 54.15l37.76-.08.1-.01c2.38 0 3.49-.19 4.42-.58v-.01c1.78-69.44.18-103.33-1.85-114.05a11.69 11.69 0 0 0-7.72-8.77c-.55-.19-4.3-1.52-6.24-2.02-2.68-.69-5.05-.95-5.05-.95Z"/><path stroke="#C3DFF1" stroke-linejoin="round" stroke-miterlimit="10" stroke-width=".65" d="M318.07 117.37s.19 12.61-1.83 22.3l-8.63.55 7.16 3.48-4.96 12.25"/><path fill="#fff" d="M279.19 115.84c.25-.45-.16-.94-.67-.85-10.43 1.84-22.06 6.13-25.55 8.79-3.23 2.46-20.43 37.47-20.43 37.47l-18.64-28.33-16.71 11.6s20.3 53.3 33.27 55.63c12.97 2.33 21.78-20.71 21.78-20.71l.16 62.44 16.55.09s3.36-86.85 3.67-90.69c2.2-26.69 5.06-32.67 6.57-35.44Z"/><path stroke="#C3DFF1" stroke-linejoin="round" stroke-miterlimit="10" stroke-width=".65" d="M271.53 115.26c-6.65 7.61-10.82 19.01-10.82 19.01l5.66 1.62-6.42 3.71s-.75 19.08 9.3 55.7"/><path fill="#156DC3" d="m307.44 221-41.74-1.2c-.91-.02-1.5-.78-1.3-1.69l13.3-61.38a2.1 2.1 0 0 1 2.02-1.6l41.73 1.2c.92.02 1.51.78 1.31 1.7l-13.3 61.38a2.1 2.1 0 0 1-2.02 1.6Z"/><path fill="#3648AA" d="m310.58 157.65-19.96-.57c-.69-.02-1.12-.59-.97-1.26l.2-.98a3.09 3.09 0 0 1 3.11-2.42h.02l18.62.53c.69.02 1.12.59.97 1.26l-.48 2.25a1.56 1.56 0 0 1-1.5 1.19Z"/><path fill="#156DC3" d="m311.86 157.69-19.97-.58c-.68-.02-1.11-.58-.97-1.26l.49-2.24c.14-.68.82-1.21 1.5-1.2l19.97.58c.68.02 1.11.58.97 1.26l-.49 2.25a1.55 1.55 0 0 1-1.5 1.19Z"/><path fill="#2891D2" d="m309.08 221.05-41.73-1.2c-.93-.02-1.51-.78-1.31-1.7l13.3-61.37a2.1 2.1 0 0 1 2.02-1.6l41.73 1.2c.92.02 1.51.78 1.31 1.69l-13.3 61.38a2.1 2.1 0 0 1-2.02 1.6Z"/><path fill="#E9B7AC" d="M298.8 181.56c-1.13-.09-1.94-.07-2.9-.65-3.3-2-10.02-7.54-12.4-8.53-2.95-1.24-5.97-3.03-8.49-3.45-1.58-.31-6.6 3.48-7.05 3.8-.55.4-1.7 1.49-.7 2.13.33.2.71.28 1.09.23 3.23-.44 4.93-2.72 5.88-2.38 1.47.54 4.01 1.98 4.01 1.98s-8.16 2.07-9.54 3.42c-.4.4-1.88 2.13-2.89 3.46-.9 1.2-1.7 2.08-2.57 3.52-.41.68-.36 1.37 0 1.75 1.4 1 4.74-2.79 4.74-2.79s-.91 1.18-1.85 2.35c-1.32 1.65-1.5 2.33-1.3 2.83.32.8 1.44.65 2.75.1.33-.15 2.04-1.47 2.38-1.66 0 0-2.22 2.55-1.7 3.45.46.8 2.45.57 4.12-1.32.66-.75 1.38-1.53 1.82-1.67.64-.3 4.04.22 4.66.32.86.13 8.96 4.06 15.77 3.2.75-.1 2.56.2 3.26.49 1.3.54 1.43-2.32 1.53-2.3.19.03-.24-3.55-.24-3.55l-.38-4.73Z"/><path stroke="#A84B35" stroke-linecap="round" stroke-linejoin="round" stroke-miterlimit="10" stroke-width=".65" d="M267.23 185.04c1.71-2.2 2.96-3.51 3.43-3.8 1.52-.94 6.57-1.92 6.57-1.92M269.63 187.91c1.01-1.04 2.17-2.6 2.6-2.92 1.33-.97 5.06-.98 5.06-.98"/><path stroke="#2891D2" stroke-miterlimit="10" stroke-width=".65" d="M282.55 83.6a4.98 4.98 0 1 0 .02-9.95 4.98 4.98 0 0 0-.02 9.96ZM270.8 84.66a4.98 4.98 0 1 0 .02-9.96 4.98 4.98 0 0 0-.02 9.96Z"/><path fill="#E9B7AC" d="M271.3 85.1c.2-.67.9-.96.9-.96s2.07-.67 2.4-1.56c.33-.89.8-2.43.8-2.43l.25-3.1 1.62 5.3-1.92 2.95-3 .56-1.06-.76Z"/><path stroke="#A84B35" stroke-linecap="round" stroke-linejoin="round" stroke-miterlimit="10" stroke-width=".65" d="M275.58 77.9s.1 5.22-2.46 5.92c-3.18.85-1.95 2.64 1.6 3.26"/><path stroke="#2891D2" stroke-miterlimit="10" stroke-width=".65" d="m287.48 77.89 13.52-2.9M277.6 79.36c-1.8-.54-2.16.24-2.16.24"/><path stroke="#A84B35" stroke-miterlimit="10" stroke-width=".65" d="M300.21 46.62a24.4 24.4 0 0 1 16.68 16.6"/><path stroke="#A84B35" stroke-miterlimit="10" stroke-width=".65" d="M315.57 59.86c1.93.3 7.87-1.5 5.98-9.37"/><path stroke="#FF7C22" stroke-linecap="round" stroke-miterlimit="10" stroke-width=".65" d="M307.07 89.2c-1.06 3.5.6 6.07 2.81 7.23 2.36 1.23 1.9 4.68-.18 5.71"/><path stroke="#FF7C22" stroke-linecap="round" stroke-miterlimit="10" stroke-width=".65" d="M312.31 95.25c-3.03-.43-5.3-2.53-5.1-5.2"/><path fill="#fff" d="m309.72 117.82 7.53-.73 3.67 1.28 4.41 32.73 2.57 33.46-31.02-5.24s-2.77 17.67-3.3 18.4c-.53.72 53.07 24.47 59.85 13.53 9.18-14.8-8.81-75.33-13.6-82.64-3.6-5.52-20.4-10.92-24.23-12.07-3.83-1.15-5.14-2.38-5.6.06l-.28 1.22Z"/><path stroke="#77B7DF" stroke-miterlimit="10" stroke-width=".65" d="M296.88 179.32s32.15 5.28 34.7 5.72c2.56.43 5.94 2.6 7.62 6.19"/><path fill="#5564AF" d="m307.64 152.84.03-.18c3.26-10 5-19.82 4.9-27.63-.08-6.19-1.35-10.74-3.35-12.12l-.21-1.44c.12-.02.25 0 .37.05 2.75 1.28 4.38 6.2 4.48 13.5.1 7.89-1.64 17.76-4.9 27.82v.04l-1.32-.04Z"/><path stroke="#5564AF" stroke-linecap="round" stroke-miterlimit="10" stroke-width="1.49" d="m262.25 138.82-1.03 21.83a3.5 3.5 0 0 0 5.7 2.87l1.98-1.61"/><path stroke="#5564AF" stroke-linecap="round" stroke-miterlimit="10" stroke-width="1.49" d="m273.44 142.39-10.68 19.09a3.5 3.5 0 0 1-6.35-.56l-.84-2.4"/><path fill="#3648AA" d="m254.83 160.18-.7-1.64a.75.75 0 0 1 .4-.99l.77-.33a.76.76 0 0 1 1 .4l.7 1.63a.76.76 0 0 1-.4 1l-.77.33a.76.76 0 0 1-1-.4ZM270.74 161.55l-1.26 1.25c-.3.3-.78.3-1.08 0l-.6-.59a.76.76 0 0 1 0-1.07l1.27-1.26c.3-.3.78-.3 1.07 0l.6.6c.3.29.3.77 0 1.07Z"/><path fill="#2891D2" d="m273.8 143-1.1-.45a.4.4 0 0 1-.23-.53c.61-1.6 2.9-8.04 1.23-11.58a3.61 3.61 0 0 0-2.33-2c-1.58-.5-2.89-.35-4.01.43-3.24 2.26-3.98 8.9-4.12 10.59a.4.4 0 0 1-.43.37l-1.2-.05a.41.41 0 0 1-.39-.44c.15-1.88.96-9.31 4.97-12.11 1.65-1.15 3.6-1.4 5.78-.72a5.6 5.6 0 0 1 3.56 3.08c2.03 4.32-.5 11.44-1.19 13.2a.41.41 0 0 1-.54.22Z"/><path fill="#5564AF" d="m286.49 109.96-.04.08c-.2.48-.44.95-.72 1.42-4.5 1.29-8.91 4.47-13.24 15.88-.31-.42-.03.52-1.2-.45 4.86-12.83 10.3-15.77 15.05-16.9a.5.5 0 0 1 .15-.03Z"/><path fill="#2891D2" d="m272.58 127.73-1.35-.5a.47.47 0 0 1-.29-.6l1.04-2.81c.09-.24.36-.37.6-.28l1.36.5c.24.08.37.35.28.6l-1.04 2.8a.47.47 0 0 1-.6.29Z"/><path stroke="#77B7DF" stroke-miterlimit="10" stroke-width=".65" d="M340.3 187.21c-2.03-.73-8.71-2.17-8.71-2.17-.84-2.76-4.52-12.09-6.17-21.78M252.24 180.56c0-7.34.1-25.64.1-35.22M333.04 212.37a211.18 211.18 0 0 1-29.12-9.78"/><path stroke="#C3DFF1" stroke-miterlimit="10" stroke-width=".65" d="M319.25 214.13c1.21 8.91 7.64 12.94 12.23 13.85l-.18 13.44"/><path stroke="#77B7DF" stroke-miterlimit="10" stroke-width=".65" d="m213.9 132.92-16.71 11.6s14.52 39.91 27.6 52.07c3.48 3.24 5.83 4.55 11.18 3.07 1.12-.38 3.66-1.8 3.66-1.8M343.76 137.49c.81 2.54 2.85 8.86 4.97 16.29"/><path stroke="#156DC3" stroke-linecap="round" stroke-linejoin="round" stroke-miterlimit="10" stroke-width=".65" d="M278.99 155.76a1.8 1.8 0 0 1 1.48-.65c.92 0 9.56.3 9.56.3l33.06 1"/></g><defs><linearGradient id="b" x1="355" x2="710.5" y1="200" y2="440" gradientUnits="userSpaceOnUse"><stop stop-color="#6BD4EB"/><stop offset=".51" stop-color="#78BEFF"/><stop offset="1" stop-color="#509DF0"/></linearGradient><linearGradient id="d" x1="376.74" x2="202.91" y1="244.07" y2="50.92" gradientUnits="userSpaceOnUse"><stop stop-color="#fff"/><stop offset="1" stop-color="#fff" stop-opacity="0"/></linearGradient><clipPath id="a"><rect width="360" height="220" x="360" y="220" fill="#fff" rx="8" transform="rotate(180 360 220)"/></clipPath><filter id="c" width="273.37" height="273.37" x="144.46" y="8.46" color-interpolation-filters="sRGB" filterUnits="userSpaceOnUse"><feFlood flood-opacity="0" result="BackgroundImageFix"/><feGaussianBlur in="BackgroundImageFix" stdDeviation="6.24"/><feComposite in2="SourceAlpha" operator="in" result="effect1_backgroundBlur_0_1"/><feBlend in="SourceGraphic" in2="effect1_backgroundBlur_0_1" result="shape"/></filter></defs></svg>