<svg width="360" height="220" fill="none" xmlns="http://www.w3.org/2000/svg"><path fill="#F5F5F5" d="M0 0h360v220H0z"/><g clip-path="url(#a)"><rect x="360" y="220" width="360" height="220" rx="8" transform="rotate(180 360 220)" fill="url(#b)"/><g filter="url(#c)"><circle cx="284.24" cy="157.24" r="93.24" fill="#EEF8FF" fill-opacity=".08"/><circle cx="284.24" cy="157.24" r="92.74" stroke="url(#d)"/></g><path d="m356.19 145.12 2.64 16.46s-2.94 2.62-3.3 4.25c.37.68 3.25 4.37 3.6 4.35 0 0-2.8 8.72-5.38 13.99-1.37 2.8-6.07 11.59-6.07 11.59" stroke="#3D4DA3" stroke-width=".46" stroke-miterlimit="10" stroke-linecap="round" stroke-linejoin="round"/><path d="M348.33 129.38c.85 1.02 1.78.06 2.7-1.3 4.47-6.62 7.07-15.71 5.51-20.87-2.04-6.78-7.34 9.08-7.34 9.08l-.87 13.1Z" fill="#6B3626"/><path d="M297.4 218.95s29.12-4.76 33.53-10.85c5.18-7.16-19.36-13.71-19.36-13.71l-22.29 11.4a.68.68 0 0 0-.21 1.02l8.34 12.14Z" fill="#5564AF"/><path d="M310.53 197.04c1.36-17.17.4-41.1 4.73-43.53 4.33-2.44 13.48 44.6 13.48 44.6s.25 8.9-8.98 12.16c-9.23 3.27-9.23-13.23-9.23-13.23Z" fill="#5564AF"/><path d="M354.53 102.63h.05c-6.52-7.5-16.63-6.53-19.92-6.02a3.65 3.65 0 0 1-3.98-2.27.78.78 0 0 0-1.3-.33c-.35.34-.75.76-1.14 1.18-3.81 4.48-2.72 13.04.92 15.72l7.11-3.37 13.29 6.74s-2.17 15.57 4.35 7.39c5.56-6.99 3.66-15.41.62-19.04Z" fill="#6B3626"/><path d="m355.94 152.7-20.2 1.07-4.43-6.74s1.92.39 2.64-3.68a17.69 17.69 0 0 0 .3-3.56c0-.52-.03-1.12-.1-1.82l-.01-.24c-.07-.78-.27-2.35-.46-4.12-.34-3.23-.64-7.1 0-8 3.76-5.2 15.84.01 15.84.01-.98 11.1 2.38 17.44 2.38 17.44l4.04 9.63Z" fill="#E9B7AC"/><path d="M322.67 149.47s7.34-2.14 10.1-3.56c0 0 .75 3.96 8.6 2.91 9.27-1.23 10.74-5.6 10.74-5.6l13.42 4.77-1.69 13.52-11.93 59.06-25.7-1.08-3.54-70.02Z" fill="#fff"/><path opacity=".8" d="M347.78 128.55c-2.88 8.81-8.22 10.66-13.52 11.24-.01-.52-.34-4.3-.58-6.18a6.73 6.73 0 0 1 1.94-2.85l12.16-2.2Z" fill="#BA6958"/><path d="M354.31 144.01c-2.51 16.35-8.36 76.56-8.36 76.56l27.9-.35.23-36.9 3.2-27.91s1.06-3.78-1.57-5.2c-2.63-1.44-21.4-6.2-21.4-6.2Z" fill="#5564AF"/><path d="M354.58 125.67c-2.23 1.52-5.6 1.2-5.6 1.2l-1.96 2.67c-3.8 5.2-10.06 6.72-12.23 6.78-2.17.07-5.08-.4-6.96-3.36-1.33-2.1-1.71-4.85-1.76-7.04v-.73c.08-1.08.1-1.64.22-2.67l.04-.33c.78-6 2.36-12.15 3.72-14.04 0 0 6.64-3.13 7.5-3.55.85-.42 8.48 3.91 8.92 3.7.43-.2 1.57 12.47 3.53 10.1 2.18-2.62 6.12-2.13 6.92 1.01a5.84 5.84 0 0 1-2.34 6.26Z" fill="#E9B7AC"/><path d="M328.99 108.37c2.99-.83 10.23-.76 14.04 2.26 3.81 3.02 3.34 7.7 3.33 8.98v1.04c-.01.87.89 1.46 1.69 1.1 0 0 1.28-3.21 3.65-4.77 2.37-1.56 1.17-10.53.74-10.1-.43.42-7.64-3.9-7.64-3.9l-5.1-1.76-8.31 3.3-2.4 3.85Z" fill="#6B3626"/><path opacity=".8" d="M327.57 125.12c-.2.6-.93 1.14-1.5.8v-.73c.08-1.07.1-1.64.22-2.66l.04-.34c.87 1.18 1.47 2.24 1.24 2.93ZM341.6 121.42c2.06.71 1.33 2.38.16 3.25-1.45 1.07-4.2 2.29-5.5.95-.8-.8.18-2.8 1.84-3.75 1.66-.94 2.6-.75 3.5-.45Z" fill="#DB8A79"/><path d="M329.9 118.83a.92.92 0 1 0 0-1.85.92.92 0 0 0 0 1.85ZM336.36 120.22a.92.92 0 1 0 0-1.85.92.92 0 0 0 0 1.85Z" fill="#591D0B"/><path d="M332.23 117.12c.1 2-1.88 2.92-2.48 4.16-.75 1.54 1.01 1.45 2.66 2.04" stroke="#A84B35" stroke-width=".62" stroke-miterlimit="10" stroke-linecap="round" stroke-linejoin="round"/><path d="M340.17 117.95c-.18.02-.3-.1-.45-.23-.61-.54-1.12-1.36-3.84-1.44-.25-.01-.47-.14-.5-.39-.03-.24.16-.4.38-.5 3.31-1.6 4.7 1.8 4.75 1.9.12.21.04.48-.17.6a.77.77 0 0 1-.17.06ZM331.67 116a.34.34 0 0 0 .15-.16c.11-.2.01-.46-.16-.65-.83-.94-2.3-1.56-4.07-.04-.17.15-.48.75-.3.95.17.2.41.2.59.06 1.5-1.22 3.21-.3 3.38-.23.14.07.28.12.4.06Z" fill="#6B3626"/><path d="M333.3 100.55c-2.39.28-4.6-2.2-3.17-6.74-2.4 3.58-3.24 9.9-.14 12.66M351.04 104.37a8.05 8.05 0 0 1 3.05 9.68" stroke="#835648" stroke-width=".62" stroke-miterlimit="10" stroke-linecap="round" stroke-linejoin="round"/><path d="M352.63 147.51c-8.14 6.67-18.36 3.76-18.36 3.76" stroke="#DBECF7" stroke-width=".62" stroke-miterlimit="10" stroke-linecap="round" stroke-linejoin="round"/><path d="M355.5 120.13a2 2 0 0 0-1.35-1.56c-1.35-.5-2.87.54-4.02 3.07-.03.3.93.1 1.05.99.12.92-.75 1.39-.98 1.47" stroke="#A84B35" stroke-width=".46" stroke-miterlimit="10" stroke-linecap="round" stroke-linejoin="round"/><path d="M353.12 120.82s-.28-1.34-2.22-.61" stroke="#A84B35" stroke-width=".46" stroke-miterlimit="10" stroke-linecap="round" stroke-linejoin="round"/><path d="M336.4 124.65a8.44 8.44 0 0 1-5.42 1.17c-.19-.02-.24.15-.04.43.19.25.39.45.62.66 1.36 1.23 3.83 1.56 5.28-1.83.17-.4-.14-.63-.43-.43Z" fill="#B2412B"/><path d="M353.27 121.87c0 .35-.09.6-.2.77" stroke="#A84B35" stroke-width=".46" stroke-miterlimit="10" stroke-linecap="round" stroke-linejoin="round"/><path d="M352.63 147.51c-8.14 6.67-18.36 3.76-18.36 3.76" stroke="#EEF8FF" stroke-width=".46" stroke-miterlimit="10"/><path d="M315.26 153.5c2.92-2.2 12.8-6.17 15.01-6.58.15 0 6.09 63.63 7.57 71.76 1.5 8.12-17.3-4.06-17.3-4.06l-3-17.26s-5.2-41.64-2.28-43.85Z" fill="#5564AF"/><path d="M320 206.78c-.05 4.02.05 14.47.05 14.47l15.17.19-3.32-9.08-11.9-5.58Z" fill="#5564AF"/><path d="M352.64 201.61c.13-1.04-.37-1.95-1.1-2.04-.75-.1-1.46.67-1.58 1.71-.13 1.04.37 1.96 1.1 2.05.75.09 1.45-.68 1.58-1.72ZM352.24 210c.13-1.04-.37-1.96-1.11-2.05-.75-.1-1.45.68-1.58 1.71-.13 1.04.37 1.96 1.11 2.05.74.1 1.45-.68 1.58-1.71ZM350.08 219.02c.75 0 1.36-.85 1.36-1.9 0-1.04-.61-1.9-1.36-1.9-.75 0-1.35.86-1.35 1.9 0 1.05.6 1.9 1.35 1.9Z" stroke="#3D4DA3" stroke-width=".46" stroke-miterlimit="10" stroke-linecap="round" stroke-linejoin="round"/><path d="M297.35 219.01c1.1-.7.1-4.18-2.22-7.77-2.31-3.58-5.08-5.92-6.17-5.21-1.1.7-.1 4.19 2.21 7.77 2.32 3.59 5.08 5.92 6.18 5.21Z" fill="#3D4DA3"/><path d="m297.35 217.3 10.53-2.34" stroke="#5564AF" stroke-width=".46" stroke-miterlimit="10"/><path d="m357.28 145.12 2.65 16.46s-2.94 2.62-3.3 4.25c.36.68 3.25 4.37 3.6 4.35 0 0-2.8 8.72-5.38 13.99-1.37 2.8-6.08 11.59-6.08 11.59" stroke="#3D4DA3" stroke-width=".46" stroke-miterlimit="10" stroke-linecap="round" stroke-linejoin="round"/><path d="m257.64 157.94 2.17-3.65s-.74-3.81 1.33-7.15c1.51-2.44 3.07-5.52 3.14-7.63.1-3.56-1.02-3.94-.57-5.28.14-.42 2.15-.27 3.19 1.8 1.04 2.05.21 5.08.4 6.47.17 1.39 1.43 1.63 2.26 1.2.82-.45 3.84-2.21 5.15-.43.44.82.33 1.8-.62 2.8 0 0 1.4.25 1.72 1.5.28 1.11-.5 1.82-.5 1.82s.62.41.79 1.17c.17.75-.1 1.4-.65 1.97 0 0 .57.9.43 1.66-.14.78-.67 1.77-3.04 1.97 0 0-2.4 1.74-4.8 2.8l-.7.3-4.14 6.67-5.56-8Z" fill="#E4A79A"/><path d="M273.24 153.15c-.37.7-2.35.62-2.63.63-.28 0-1.14.05-.95 1 .16.84 1.3 1.56 3.18 1.38 1.04-.1 3.62-.45 2.88-3.08.03 0-.27-.56-.27-.56-.97.28-3.49 1.2-5.75.72a.96.96 0 0 1-.7-.68c-.15-.83.98-1.3.98-1.3M272.12 143.13c-1.08 1.28-4.24 3.37-3.84 4.87.4 1.5 2.45.2 2.45.2M266.58 146.31a8.23 8.23 0 0 1-2.24 7.29" stroke="#B2412B" stroke-width=".46" stroke-miterlimit="10"/><path d="M275.3 149.4s.9-.75.44-2.02-1.65-1.3-1.65-1.3-2.53 1.67-3.5 2.26c-1.2.73-1.7 1.38-1.65 2.1.06.87 1.33.87 2.56.52 1.11-.3 3.8-1.56 3.8-1.56Zm0 0s.78.46.8 1.16c.17 1.1-.65 1.96-.65 1.96M274.09 146.08c.89-.66 1.3-2.25.35-3.1" stroke="#B2412B" stroke-width=".46" stroke-miterlimit="10"/><path d="m243.51 196.26-15.5 4.38c-2.59.3-6.07-2.31-6.08-4.91l2.05-42.1a12.1 12.1 0 0 1 12.1-12.14c6.84 0 12.52 3.1 11.44 14.72l-4 40.05Z" fill="#0658A8"/><path d="m258.67 155.38 8.77 6.25c.98.7 1.25 2.06.6 3.14-4.08 6.88-18.33 31.68-24.5 36.54-7.25 5.72-13.45-11.87-13.45-11.87l25.4-33.65c.82-.92 2.2-1.1 3.18-.4Z" fill="#0658A8"/><path d="m247.26 154.24-4.56 22.78-.03.15-8.88 44.28-44.1-1.51s7.94-53.69 12.6-69.02c1.57-8.72 12.24-14.86 18.07-13.6l18.64 4.05a10.8 10.8 0 0 1 8.26 12.87Z" fill="#156DC3"/><path d="M178.2 221.64h222.37v-1.95H178.2v1.95Z" fill="#96C8E6"/><path d="M294.74 217.2c-1.09 2.58-10.8 6-10.8 6l-9.28-9.1 1.22-4.32 9.32-3.52 5.77 1.53c.36.1.87.54 1.41 1.12a15.07 15.07 0 0 1 3.4 5.92l.25.84a.97.97 0 0 1-.53 1.17l-.76.35Z" fill="#E9B7AC"/><path d="m266.94 204.9 4.85 1.88 11.51.17s-2.3 1.16-2.22 2.41c.08 1.25 1.13-.07 4.09 2.88 2.49 2.47 4.61 4.53 5.45 5.35a17.1 17.1 0 0 1 1.16 1.27c.9 1.44 1.2 3.08-1.24 2.95 0 0 .43.92-.4 1.6-.73.59-2.45.16-2.45.16s.14.8-.49 1.17c-.96.56-2.32.02-2.32.02s-.65 1.42-2.92.58c-2.58-.96-3.94-2.07-5.1-2.8-.52-.33-1.52-1.62-2-1.88-6.66-3.58-6.65-5.22-6.65-5.22l-7.73-2.75 6.46-7.79Z" fill="#E4A79A"/><path d="M282.58 219.48c1.46 1.32 3.6 3.31 5.1 4.09M284.63 216.48c.72 1.34 2.97 2.95 4.16 3.88 1.2.92 1.74 1.45 1.74 1.45" stroke="#A84B35" stroke-width=".46" stroke-miterlimit="10"/><path d="M285.75 206.4c-1.19-.35-1.84-.69-2.6-.63-.57.04-3.13 1.12-4.64 1.86-.74.36-1.13 1-1.27 1.8-.07.44-.23 1.02-.4 1.54-.41 1.29-1.25 2.25-.44 2.8 1.19.8 3.74-.5 4-2.28.04-.31 0-.79.14-.95.7-.84 2.37-.03 2.37-.03l2.84-4.1Z" fill="#E9B7AC"/><path d="M290.22 214.3c-2.05.56-2.84.27-4.86-1.87-2.02-2.15-3.44-2.55-4.6-2.1l-.23.2" stroke="#A84B35" stroke-width=".46" stroke-miterlimit="10"/><path d="M237.03 219.76c.48-3.34 3.03-11.83 3.5-16.5l-5.83-.8-3.27 16.95 5.6.35Z" fill="#0658A8"/><path d="M276.13 213.4c.3.86 1.93.74 3.05-.03 1.29-.89 1.52-3.04 1.21-3.9" stroke="#A84B35" stroke-width=".46" stroke-miterlimit="10"/><path d="M278.5 207.63c-.73.36-1.12 1-1.26 1.8-.07.45-.23 1.02-.4 1.54-.41 1.29-1.25 2.25-.44 2.8M285.17 212.23c2.48 2.48 4.6 4.54 5.45 5.36.18.17 1.03 1.06 1.16 1.27.89 1.44 1.2 3.08-1.25 2.95 0 0 .43.92-.4 1.6-.72.59-2.44.16-2.44.16s.14.8-.5 1.17c-.96.56-2.32.02-2.32.02s-.64 1.42-2.92.58c-2.58-.96-3.94-2.07-5.09-2.8-.53-.34-1.52-1.62-2.01-1.88" stroke="#A84B35" stroke-width=".46" stroke-miterlimit="10"/><path d="M273.4 221.51c.08 1.25.6 1.6 1.12 1.69.47.08.95-.02 1.43-.42.25-.2.6-.57.74-.86.44-.9.66-1.68.1-2.27-.66-.7-1.34-.37-2.56.76-.73.72-.83 1.1-.83 1.1Z" fill="#E9B7AC" stroke="#A84B35" stroke-width=".46" stroke-miterlimit="10"/><path d="M272.24 221.1c-.93-.77-.97-1.7-.4-2.12.72-.53 1.36-.04 1.65.13.28.16.93.77.75 1.35-.09.25-.3.51-.48.7a.9.9 0 0 1-.89.25 1.79 1.79 0 0 1-.63-.3ZM276.17 222.62c-.27 1.26.2 1.77.55 2 .35.25 1.12.38 1.59 0 .47-.4 1.94-2.8.55-3.78-1.39-1-2.69 1.78-2.69 1.78Z" fill="#E9B7AC" stroke="#A84B35" stroke-width=".46" stroke-miterlimit="10"/><path d="m224.25 122.56 12.02 7.16c.15.14.22.4.19.62l-1.94 9.15c-.04.22 0 .44.14.59l.63.73c.26.33.46.67-.26 1.04.26 8.55-1.38 3.48-13.1.39-.88-.44-4.45-5-4.45-5 3.1-3.97 4.86-11.62 5.66-14.38.12-.49.7-.64 1.1-.3Z" fill="#E4A79A"/><path d="M233.92 146.59c-.68 0-15.43-8.9-16.46-9.67-2.29 0 8.33 13.67 10.83 16.51l5.63-6.84Z" fill="#fff"/><path d="m235.4 173.54-11.72-27.28 5.71.93 6-.93 4.03 2.16-1.57 29.38-2.45-4.26Z" fill="#fff"/><path d="m247.26 154.24-4.56 22.78c.38-2.01 5.49-26.62-1.3-34.83a10.82 10.82 0 0 1 5.86 12.05Z" fill="#156DC3"/><path d="M217.46 136.92c-2.29 0 9.56 13.5 12.05 16.34l4.4-6.67" stroke="#96C8E6" stroke-width=".62" stroke-linecap="round" stroke-linejoin="round"/><path d="M217.1 137.17c-3.08.56-10 3.17-13.12 9.1l24.83 73.5h7.99v-14l-.88-1.57c-.74-2.93.47-8.45-3.32-32.12-3.79-23.66-10.7-31.05-15.5-34.91Z" fill="#156DC3"/><path d="M234.6 139.13s-8.88-4.83-9.54-14.62c5.11 7.25 11.14 7.09 11.14 7.09l-1.6 7.53Z" fill="#BA6958"/><path d="M242.76 107.9c2.87-2.37.24-5.76.24-5.76s1.1-1.4 0-4.15c-1-2.51-4.72-3.02-4.9-2 0 0-1.02-4.01-6.15-3.77-3.88-.02-5.11 3.25-5.11 3.25s-.97-1.92-4.3-1.75c-2.52.13-4.14 2.76-3.53 4.65 0 0-2.48-1.26-5.27 1.76-2.79 3.02-.19 5.95.66 5.68 0 0-2.7-.22-3.55 3.11-1.25 4.9 1.76 6.4 3.02 6.03 0 0-1.83 2.69.53 3.67 2.35.98 7.33-4.79 7.33-4.79l21.03-5.93Z" fill="#591D0B"/><path d="M246.65 125.92a8.28 8.28 0 0 1-5.94 7.82c-2.12.67-10.23.8-15.1-5.42-.62-.78-1.09-1.43-1.45-1.96-1.19-1.76-1.22-2.3-1.22-2.3s-1.6-1.45-5.18-4.22c-1.77-1.36-1.1-.39-.13-3.14 1.1-3.14 1.66-2.54 4.15-.1l.16.14c2.05 1.42 1.3-11.65 1.75-11.49.47.17 7.8-5.04 8.71-4.7.92.34 8 2.84 8 2.84 1.59 1.77 3.82 7.85 5.23 13.86l.01.06a64.01 64.01 0 0 1 .84 4.2c.28 1.84.24 2.9.17 4.41Z" fill="#E4A79A"/><path d="M246.48 121.52c-.69.18-1.3-.01-1.7-.5-.83-1 .1-2.5.85-3.77a65.75 65.75 0 0 1 .85 4.27ZM228.56 118.96c-.88.63-.82 2.88.45 4.23 1.28 1.35 5.03 1.44 6.33.05.79-.85.71-2.72-1-3.65-1.73-.92-4.82-1.32-5.78-.63Z" fill="#DB8A79"/><path d="M241.62 114.6a.77.77 0 1 0 0-1.55.77.77 0 0 0 0 1.55ZM235.06 116.18a.79.79 0 1 0 0-1.58.79.79 0 0 0 0 1.58Z" fill="#2A1718" stroke="#2A1718" stroke-width=".44"/><path d="M231.15 114.1c.18.01.43-.04.57-.21.3-.34 2.07-2.2 3.58-2.36.25-.02.54-.14.55-.44 0-.3-.27-.59-.52-.63-3.61-.64-4.54 2.78-4.59 2.9-.1.27 0 .6.24.7.06.03.11.05.17.05ZM244.04 111.75c.08-.01.15-.05.22-.1.18-.18.17-.48.06-.75-.51-1.29-2-2.75-4.63-1.35-.22.11-.3.43-.2.7.1.28.34.33.58.28 2.17-.41 3.2.77 3.57 1 .16.1.25.23.4.22Z" fill="#591D0B"/><path d="M238.54 124.68c-1.68.09-4.46-1.96-3.66-2.74.28-.27 1.27-.28 2.35-.22 6.88.68 3.7 2.85 1.3 2.96Z" fill="#A84B35" stroke="#A84B35" stroke-width=".46" stroke-miterlimit="10" stroke-linecap="round" stroke-linejoin="round"/><path d="M241.2 123.64c.48-.72.35-1.4-3.67-1.85-2.88-.25-3.27.26-2.23 1.44a5.9 5.9 0 0 1 1.57-.33c1.16-.1 3.94.11 4.33.74Z" fill="#fff" stroke="#A84B35" stroke-width=".46" stroke-miterlimit="10" stroke-linecap="round" stroke-linejoin="round"/><path d="M238.9 115.25c.88.25 1.07-.53 1.07-.53s-1.01-1.9-.97-3.24c.04-1.34-1.83-.05-1.83-.05l1.72 3.82Z" fill="#E4A79A"/><path d="M239.25 112.74a7.22 7.22 0 0 0 2.8 4.65c1.01.75-.52 2.28-2.25 2.51" fill="#E4A79A"/><path d="M239.25 112.74a7.22 7.22 0 0 0 2.8 4.65c1.01.75-.52 2.28-2.25 2.51" stroke="#A84B35" stroke-width=".62" stroke-miterlimit="10" stroke-linecap="round" stroke-linejoin="round"/><path d="M221.15 122.1c-2.12 1.08-5.7-3.68-5.53-11.8.16-7.17 7.03-7.91 7.03-7.91s-3.53-6.2 15.45-4.15c.37.04-.23-1.36.13-1.25 6.08 1.86 2.88 7.28 2.88 7.28s-1.33-.57-4.26-.25c-4.94.54-8.53 1.9-10.7 4.4a5.54 5.54 0 0 0-1.28 2.92 31 31 0 0 0 .3 7.87c0-.03-3.52 0-3.52 0s.5-1.36.88 1.64 1.13.37 1.13.37" fill="#591D0B"/><path d="M216.81 123.25c3.6 2.77 6.13.8 6.13.8s.03.55 1.22 2.3l-.5-5.88c-.5-.94-1.2-3.08-1.72-3.73l-.16-.13c-2.5-2.45-6.1-2.24-7.15.92-.77 2.31.41 4.36 2.18 5.72Z" fill="#E4A79A"/><path d="M222.21 122.42c-.88.24-1.34-.34-1.4-1.42-.04-1.03 1.06-.97.97-1.31-.99-2.98-3.66-3.55-5.06-2.73-.7.42-1 .98-1.12 1.5" stroke="#A84B35" stroke-width=".46" stroke-miterlimit="10" stroke-linecap="round" stroke-linejoin="round"/><path d="M220.74 117.97c-3.47-1.21-3.68 2.34-3.68 2.34" stroke="#A84B35" stroke-width=".46" stroke-miterlimit="10" stroke-linecap="round" stroke-linejoin="round"/><path d="M231.44 94.85c2.89-1.38 5.56 1.25 5.73 3.14M241.4 98.24c1.03 1.95-.55 3.73-.55 3.73M214.4 113.83c-3.1-1.33-2.95-3.72-2.47-4.85M213.03 111.06c-.49-1.58.33-2.8 1.36-3.2" stroke="#835648" stroke-width=".46" stroke-miterlimit="10" stroke-linecap="round" stroke-linejoin="round"/><path d="M325.62 148.44s-2.13 4.2-3.96 17.16c0 0 4.08 2.2 4.94 3.63.86 1.43-2.6 4.91-2.6 4.91l9.56 20.82" stroke="#3D4DA3" stroke-width=".46" stroke-miterlimit="10" stroke-linecap="round" stroke-linejoin="round"/><path d="M315.4 164.8c1.62 21.94 1.39 25.86 2.54 35.56.15 1.29.92 13.4.92 13.4" stroke="#3D4DA3" stroke-width=".46"/><path d="m240.82 149.47-6.88-2.8s.29-2.55.46-4.6c.09-1.07.15-2.01.12-2.4.47-.56 2.14.63 2.92 1.29 0 0 2.64 6.1 3.38 8.5Z" fill="#fff"/><path d="M234.52 139.67c.47-.56 2.14.63 2.92 1.29 0 0 2.64 6.1 3.38 8.5l-6.88-2.8M234.06 147.2l-.12 23.2" stroke="#96C8E6" stroke-width=".62" stroke-linecap="round" stroke-linejoin="round"/><circle cx="235.69" cy="150.46" r=".7" fill="#96C8E6"/><circle cx="235.81" cy="156.75" r=".7" fill="#96C8E6"/><circle cx="235.81" cy="163.05" r=".7" fill="#96C8E6"/><circle cx="235.81" cy="169.34" r=".7" fill="#96C8E6"/><path d="m269.09 215.04-7.75-3.79" stroke="#3648AA" stroke-width=".46" stroke-miterlimit="10"/><path d="m238.43 142.06 6.47 5.95-2.28 3.67 2.28 3.15-5.42 26.34M217.21 137.17c2.39 2.06 7.64 7.6 9.5 13.29" stroke="#3648AA" stroke-width=".46" stroke-miterlimit="10" stroke-linecap="round"/><path d="M207.13 181.18c-1.96 5.87-5.72 28.05-7.35 38.4" stroke="#3648AA" stroke-width=".46" stroke-miterlimit="10"/><path d="m272.28 203.7-31.37-19.13-17.6-36.2c-3.15-6.41-12.15-10-16.78-4.71-5.66 5.52-4.9 13.83-4.49 18.24 1.24 14.56 16.98 30.51 21.84 36.21.19.3.43.58.72.85 5.47 5.09 33.42 16.71 40.58 19.42 1.12.43 2.4-.07 2.95-1.14l4.94-10.54a2.29 2.29 0 0 0-.79-3Z" fill="#156DC3"/><path d="m240.96 184.67-17.65-36.8c-3.99-6.33-12.23-8.22-16.86-4.21-5.58 5.52-3.8 11.33-3.4 15.73 1.05 11.52 15.72 33.02 20.5 38.73.2.29.43.57.71.84 5.4 5.09 33.9 16.71 40.96 19.43 1.11.42 2.37-.08 2.92-1.15l4.87-10.53" stroke="#3648AA" stroke-width=".46" stroke-miterlimit="10"/><path d="M314.27 74.8v.71H262v-.72a3.3 3.3 0 0 1 3.3-3.3h45.66a3.31 3.31 0 0 1 3.31 3.3Z" fill="#fff"/><path d="M313.93 75.86v31.4a2.97 2.97 0 0 1-2.97 2.96H265.3a2.97 2.97 0 0 1-2.96-2.97V75.86h51.58Z" fill="#8C71A6" stroke="#fff" stroke-width=".69"/><path d="m325.96 58.6-2.54 10.33a1.28 1.28 0 0 1-2.04.7l-1.06-.84a1.28 1.28 0 0 0-1.86.28l-21.64 32.1c-.45.67-1.4.76-1.97.18l-8.34-8.42c-.48-.5-1.27-.51-1.78-.05l-12.12 11.21-7 6.47h-.11a3.5 3.5 0 0 1-3.5-3.5v-4.28c0-.42.07-.82.21-1.2l3.34-2.3L285.3 85.7c.51-.36 1.2-.29 1.64.16l7.89 8c.56.58 1.5.5 1.96-.15l19.03-26.97c.39-.56.28-1.32-.25-1.75l-1.16-.92a1.28 1.28 0 0 1 .23-2.15l9.51-4.78c.98-.5 2.08.39 1.82 1.45Z" fill="#FFD577"/><path d="M308.8 72.53a1.08 1.08 0 1 1 0 2.15 1.08 1.08 0 0 1 0-2.15ZM305.57 72.53a1.08 1.08 0 1 1 0 2.15 1.08 1.08 0 0 1 0-2.15ZM302.35 72.53a1.08 1.08 0 1 1 0 2.15 1.08 1.08 0 0 1 0-2.15Z" fill="#77B7DF"/></g><defs><radialGradient id="b" cx="0" cy="0" r="1" gradientUnits="userSpaceOnUse" gradientTransform="rotate(34.51 -69.3 413.37) scale(686.623 677.224)"><stop stop-color="#C96BEB"/><stop offset=".38" stop-color="#6D4C88"/><stop offset=".92" stop-color="#2C3743"/><stop offset="1" stop-color="#2E3038"/></radialGradient><linearGradient id="d" x1="356" y1="231.5" x2="225.5" y2="86.5" gradientUnits="userSpaceOnUse"><stop stop-color="#fff"/><stop offset="1" stop-color="#fff" stop-opacity="0"/></linearGradient><clipPath id="a"><rect x="360" y="220" width="360" height="220" rx="8" transform="rotate(180 360 220)" fill="#fff"/></clipPath><filter id="c" x="178.52" y="51.52" width="211.44" height="211.44" filterUnits="userSpaceOnUse" color-interpolation-filters="sRGB"><feFlood flood-opacity="0" result="BackgroundImageFix"/><feGaussianBlur in="BackgroundImage" stdDeviation="6.24"/><feComposite in2="SourceAlpha" operator="in" result="effect1_backgroundBlur_0_1"/><feBlend in="SourceGraphic" in2="effect1_backgroundBlur_0_1" result="shape"/></filter></defs></svg>