<svg width="360" height="220" fill="none" xmlns="http://www.w3.org/2000/svg"><g clip-path="url(#a)"><rect width="360" height="220" rx="8" fill="url(#b)"/><g filter="url(#c)"><path d="M158 95c0-69.04 55.96-125 125-125 69.03 0 125 55.97 125 125s-55.97 125-125 125c-69.04 0-125-55.96-125-125Z" fill="#fff" fill-opacity=".05"/><path d="M158 95c0-69.04 55.96-125 125-125 69.03 0 125 55.97 125 125s-55.97 125-125 125c-69.04 0-125-55.96-125-125Z" stroke="url(#d)"/><path d="M158 95c0-69.04 55.96-125 125-125 69.03 0 125 55.97 125 125s-55.97 125-125 125c-69.04 0-125-55.96-125-125Z" stroke="url(#e)"/></g><g clip-path="url(#f)"><path d="M199.8 220.25h195.6v-1.7H199.8v1.7Z" fill="#96C8E6"/><path d="m257.3 211.9-4.95-.17-.24-16.28c-.02-1.6 1.52-2.87 3.4-2.8 1.87.07 3.31 1.45 3.18 3.04l-1.4 16.22ZM288.63 207.09l-4.55 1.92-7.11-14.66c-.7-1.44.16-3.24 1.88-3.97 1.73-.72 3.62-.08 4.17 1.42l5.61 15.29Z" fill="#E6AEA2"/><path d="M283.8 190.65c-1.59-5.28-3.33-9.53-4.86-11.89.88-8.53 2.11-21.75 1.34-29.04-.84-7.88-2.39-2.81-2.39-2.81l-1.04.9a7.5 7.5 0 0 0-4.92-1.37l-3.23-7.05c-.73.04-1.3.45-1.75 1.1-.46-.97-1.08-1.64-1.87-1.8l-3.02-2.11c-3.65-.77-3.05-2.91-4.86 5.13-1.75 7.76-4.52 24.35-5.8 32.19h-.02a29.67 29.67 0 0 0-.68 4.53c-.03.83.04 1.55.08 2.79.3 8 .5 25.88.5 25.88l7.76-.2s1.5-10.73 1.4-14.84c.12-4.37.23-9.07-.08-12.25 2.18-6.16 4.59-12.85 6.45-18l2.03 17.95c.02.17.07.34.14.49.48 1.85.85 2.4 1.68 4.17 3.4 7.25 10.14 21.42 10.14 21.42l7.12-3.57s-3.11-9-4.12-11.62Z" fill="#5564AF"/><path d="M271.23 86.16c0-.78-.03-1.56-.12-2.33a5.05 5.05 0 0 0-.36-1.55l2.25-1.66 1.56-1.15.64 5.15-3.97 1.54Z" fill="#E9B7AC"/><path d="m280.19 87.4-.08.88c-.36 3.62-1.41 11.47-1.41 11.47l-.74 3.5-3.52-.86.01-.06-3.16 1.66-2.42-3.97-2.22-12.37c-.26-1.7 1.01-3.2 2.64-3.14l.76.04 5.47.13 2.17.18c1.16.05 2.08.87 2.39 1.94.06.2.1.4.1.6Z" fill="#FFD577"/><path d="M272.92 86.18c1.75 0 3.17-.47 3.17-1.06 0-.58-1.42-1.05-3.17-1.05-1.74 0-3.16.47-3.16 1.05 0 .59 1.42 1.06 3.16 1.06Z" fill="#E9B7AC"/><path d="M287.13 76.84c-.08-.22 2.07-2.71 2.07-2.71s2.02-2.58 2.34-2.41c.44.23-1.26 2.17-1.2 2.21.07.05 1.56-2.5 1.77-2.37.55.36-1.25 2.7-1.17 2.83.08.13 1.75-1.73 2.02-1.51.4.33-1.66 1.97-1.61 2.1.04.12 1.46-1.19 1.73-1 .41.28-1.84 1.88-2.19 2.13-.35.25-1.46 1.04-2.29 1.35-.34.17-1.17.06-1.47-.62Z" fill="#E6AEA2"/><path d="M287.9 76.2c-.2-.12-.28-.64-.27-.94.03-.4.38-.93.57-1.24.29-.46.53-1.88.98-1.97.44-.1.22 1.14.08 1.4-.08.14-.12.3-.13.46 0 0 1.09 3.74-1.23 2.3Z" fill="#E6AEA2"/><path d="M289.24 76.3c.32-.9-.03-2-.03-2s-.22-.35.09-.96c.31-.62.16-1.22-.05-1.29M289.86 73.79s1.02.3 1.5 1.58M291.13 72.68l-.83 1.3" stroke="#A84B35" stroke-width=".28" stroke-linecap="round" stroke-linejoin="round"/><path d="M287.64 75.45c.13 1.07-1.13 1.49-1.13 1.49l1.73-.75-.22-.82-.38.08ZM257.56 73.41c.31 1.97.94 2.39.94 2.39l-1.25 1.04a9.66 9.66 0 0 1-2.04-1.3c-1.08-.88 1.6-.2 1.6-.2l.79-1.58c.05-.1-.06-.47-.04-.35Z" fill="#E6AEA2"/><path d="M267.35 79.45c.94 3.72 2.6 4.55 2.6 4.55s1.27-.39 2.62-1.32c1.19-.82-1.35-2.04-1.35-2.04l-3.87-1.19Z" fill="#6B3626"/><path d="M273.6 81.02c0 .88-1.3 2.79-2.44 3.06a6.86 6.86 0 0 0-.4-1.8l2.24-1.66c.42-.16.69-.1.6.4Z" fill="#A84B35"/><path d="M276.01 78.05c-.26.55-.53.5-.86 1.01-.73 1.15-.76 1.5-1.84 2.5-1.72 1.58-3.78 1.56-4.46 1.25-.68-.31-1.25-1.3-1.43-2.45a8.06 8.06 0 0 1 .9-5c.25-.48.6-.9 1.03-1.25 3.62-2.8 8.4.56 6.66 3.94Z" fill="#E9B7AC"/><path d="M269.21 77.43c0 .26-.04.52-.13.76a.73.73 0 0 1-.42.44c-.25.1-.12.54.33.63" stroke="#A84B35" stroke-width=".37" stroke-linecap="round" stroke-linejoin="round"/><path d="M270.38 78.08a.34.34 0 0 0 .3-.23.34.34 0 0 0 .01-.13.33.33 0 0 0-.13-.22.33.33 0 0 0-.25-.06.33.33 0 0 0-.3.22c-.02.05-.02.1-.02.14a.32.32 0 0 0 .13.23.33.33 0 0 0 .26.05ZM268.3 77.52a.34.34 0 0 0-.27.57.34.34 0 0 0 .53-.03.34.34 0 0 0 .06-.18.36.36 0 0 0-.32-.36Z" fill="#290C0F" stroke="#290C0F" stroke-width=".11"/><path d="M271.4 76.95c-.25-.39-.5-.54-.9-.56-.25-.01-.45.06-.47.18-.04.5.65-.16 1.34.73.1.1.13-.19.02-.35Z" fill="#6B3626" stroke="#6B3626" stroke-width=".11"/><path opacity=".35" d="M270.58 79.33c-.42.72.33 1.32 1.34.8.46-.22.84-.59.74-1.1-.1-.38-.3-.6-1.04-.49-.68.2-.9.55-1.04.79ZM267.8 80.15c-.1.1-.23.18-.38.2a6.45 6.45 0 0 1-.07-.9c0-.3 0-.62.04-.92v-.06c.38.62.73 1.38.42 1.68Z" fill="#B2412B"/><path d="M269.88 79.8c1.77-.2.42 1.25-.37 1.22-.8-.03-1.87-.95.37-1.21Z" fill="#A84B35" stroke="#A84B35" stroke-width=".37" stroke-linecap="round" stroke-linejoin="round"/><path d="M270.01 80.39c.18.02.35.05.52.1.34-.37.36-.82-.65-.68-1.3.14-1.47.53-1.25.83.1-.2 1.06-.32 1.38-.25Z" fill="#fff" stroke="#A84B35" stroke-width=".37" stroke-linecap="round" stroke-linejoin="round"/><path d="m278.54 80.46-.42-.64c.02.35.08.7.2 1.03l-.15.22-.12.19c-.53.74-1.14 1.42-1.83 2 0 0-.9-.27-.9-2.54-.02-.36-.07-.73-.18-1.08.32-.51.62-1.04.88-1.59 1.57-3.06-2.2-6.1-5.6-4.57-1.47-.36-2.82.4-3.16.9a4.88 4.88 0 0 1 2.95-2.86c3.56-1.45 4.84 1.06 4.84 1.06 2.88-.01 4.11 5.83 4.11 5.83a4.88 4.88 0 0 1-.62 2.05Z" fill="#6B3626"/><path d="M276.01 78.05c-.26.55-.55 1.08-.88 1.6-.62-2.18-2.67-4.78-2.67-4.78-.57-.37-3.1-.77-4.15.49.26-.48.61-.9 1.04-1.25 4.16-3.69 8.4.56 6.66 3.94Z" fill="#6B3626"/><path d="M270.4 73.48a4.1 4.1 0 0 0-2.1 1.88 8.82 8.82 0 0 0-.96 4.1c-.55-2.15-.55-3.81-.09-5.09.34-.5 1.69-1.25 3.15-.9Z" fill="#591D0B"/><path d="M270.27 73.45c1.9.4 2.19 1.42 2.19 1.42-1-.39-2.11-.45-3.15-.16-1.53.44-1.46 1.33-1.46 1.33l-.28-1.07 1.44-1.2 1.26-.32Z" fill="#591D0B"/><path d="M272.5 74.93c.89 1.07.95 1.94 1.18 3.26.37 2.15.74 4.58 2.52 5.08l.2-.22 1.5-2.93-.91-4.09-4.49-1.1Z" fill="#6B3626"/><path d="M268.52 76.84c.2.13.08-.52-.4-.44-.48.13-.8.52-.72.76.2.28.22-.59 1.12-.32Z" fill="#6B3626" stroke="#6B3626" stroke-width=".11"/><path d="M274.12 78.7s.79-1.83 1.99-1.1c.94.59.02 3.13-1.87 2.22l-.12-1.12Z" fill="#E9B7AC"/><path d="M274.67 78.95c.07-1.3 1.23-.93 1.23-.93" stroke="#A84B35" stroke-width=".37" stroke-linecap="round" stroke-linejoin="round"/><path d="M275.85 78.83s-.35-1.04-.9-.64M272.46 74.87c.64-.01 2.25-1.62 2.25-1.62" stroke="#A84B35" stroke-width=".37" stroke-linecap="round" stroke-linejoin="round"/><path d="M274.05 77.11c.48 1.61.23 2.18 1.14 3.99.92 1.8-.85-.43-.85-.43s-.39-1.39-.37-1.51l.11-1.24-.03-.8Z" fill="#6B3626"/><path d="M275.19 73.68c1.67.27 2.5 1.44 2.91 3.73M274.05 77.11c.23 1.21.57 4.93 3.19 5.17M277.48 82c-.57-.93-.64-2.07-.64-2.07M269.95 72.46c-2.15.05-2.69 2.1-2.69 2.1" stroke="#591D0B" stroke-width=".37" stroke-miterlimit="10" stroke-linecap="round"/><path d="M258.15 75.47c.1-.22-1.56-2.18-1.56-2.18s-1.9-2.73-2.22-2.57c-.44.21 1.17 2.29 1.1 2.33-.08.03-2.38-1.73-2.6-1.6-.56.35 2.07 1.9 1.99 2.03-.08.13-1.83-1.58-2.08-1.38-.42.32 1.72 1.82 1.66 1.95-.06.13-1.3-1.39-1.57-1.22-.42.28 1.63 2.12 1.95 2.38.33.27.97.9 1.7 1.2.33.16 1.31-.26 1.63-.94Z" fill="#E6AEA2"/><path d="M257.7 75.3c.2-.11.17.28.18-.02 0-.62-.21-1.35-.32-1.87-.2-.62-.42-2.18-.86-2.28-.44-.1-.2 1.13-.08 1.4a.54.54 0 0 1 0 .47s-1.29 3.67 1.08 2.3Z" fill="#E6AEA2"/><path d="M256.52 73.47s-.41 1.07-.12 1.99M256 72.9s-1.02.25-1.58 1.5M253.64 72.54l1.31 1.01M253.44 73.13l1.1 1" stroke="#A84B35" stroke-width=".28" stroke-linecap="round" stroke-linejoin="round"/><path d="m261.08 81.39 1.98-2.08 5.52 4.54c.54.45.37 1.48-.38 2.27s-1.77 1.02-2.25.5l-4.87-5.23ZM282.56 80.53l2.14 2-4.52 5.54c-.44.54-1.49.36-2.3-.4-.81-.75-1.06-1.78-.55-2.25l5.23-4.89Z" fill="#FFD577"/><path d="M270.7 84.38c-.12.76.55 1.48 1.65 1.48 1.1.01 2.4-.83 2.81-1.55 0 0 3.12.2 4.72-1.27 2.42-2.25.14 3.52.14 3.52l-1.92 2.04-10.94-1.42-3.3-4.37 1.77-1.38s3.51 3.54 5.06 2.95Z" fill="#FFD577"/><path d="M263.43 82c.15-.15.28-.33.4-.52l1.45 1.3 3.6 1.45-5.08-4.48-5.52-4.55-1.96 2.07 4.87 5.23c2.93 2.74 4.1 4.9 4.1 4.9l1.8-1.76-2.35-2.27-1.36-1.32.05-.04ZM287.24 75.9 282 80.8c-.6.6-3.79 3.27-3.79 3.27l.94 1.35 1.1-.65-1.57 1.62-.2 4.36s.72 4.77 1.23.95c.5-3.82 3.56-5.93 4.98-8.16.05-.03.1-.07.13-.12l4.52-5.54-2.11-1.97Zm-5.08 6.7.08.1-.07.07-.01-.17Z" fill="#FFD577"/><path d="M275.16 84.3c0-.05 0-.11-.02-.17 0 0 1.79.7 4.29-1.07.86-.6-1.38 3.12-1.38 3.12l-1.96.39-.98-2.18" fill="#FFD577"/><path d="m290.95 141.6-9.33-8.72 2.08-2.6 13.63 9.89-1.55 1.84c-1.29 1.2-2.62 1.49-4.83-.41Z" fill="#E6AEA2"/><path d="M307.76 130.47 295.7 142.1a.57.57 0 0 1-.47.15.57.57 0 0 1-.41-.28l-2.36-4.18 10.71-12.38 4.59 5.06Z" fill="#E6AEA2"/><path d="m294.02 211.13-15.68 10.1c-.28-.69-.24-1.98 1.3-4.28l.38-.53c.44-.63.9-1.28 1.33-1.93.4-.59.75-1.2 1.06-1.84.19-.4.34-.8.45-1.2l.03-.1.16-.6.26-.09-.24.03a9.36 9.36 0 0 1 .17-.6 22 22 0 0 1 .18-.56c-.27-.44-.96-.96-.86-1.65.08-.59 1.59-1.1 2.98-1.5 1.39-.4 1.89-1.5 2.63-1.69.73-.17 1.35.28 1.53 1.59a5.92 5.92 0 0 0 .67.83c1 1.1 2.94 2.69 3.64 3.99l.01.03Z" fill="#FF964E"/><path d="m283.31 210.66-.26.09.02-.06.25-.03ZM294.32 212.02l-15.35 9.94c-.2-.11-.36-.27-.49-.46l-.14-.26 15.68-10.1c.15.27.25.57.3.88Z" fill="#fff"/><path d="m294.49 212.28-15.37 9.91a2.2 2.2 0 0 1-.78-.95l15.68-10.1c.2.36.36.74.47 1.14Z" fill="#407CB8"/><path d="m279.7 216.52 1.79-.55M280.97 214.6l1.78-.54M282.24 212.7l1.78-.55M283.05 210.47l1.78-.55M283.43 210.46l-.54.48c-.89.76-2.55 2.06-2.46 1 .05-.62.6-1.02 1.2-1.28.47-.18.95-.31 1.44-.38" stroke="#FFD577" stroke-width=".67" stroke-linecap="round" stroke-linejoin="round"/><path d="M283.26 210.23c-.46.15-.93.26-1.41.33-.8.1-1.51 0-1.24-.8.5-1.43 2.41-.43 2.84-.18l.09.05" stroke="#FFD577" stroke-width=".67" stroke-linecap="round" stroke-linejoin="round"/><path d="m241.3 218.75 17.53.12c.12-.3.2-.6.23-.9.11-1.4-.64-3.68-.86-5.08l-.07-.45c-.02-.23-.05-.43-.05-.56 0-1.15-1.01-.95-1.01-.95-1.68 1.62-4.28-.81-5.39-.02 0 0-.47.33-1.78 1.5-1.32 1.18-3.56 1.95-5.46 2.71-2.44 1.02-3.14 2.03-3.28 2.73-.07.3-.02.63.14.9Z" fill="#FF964E"/><path d="m241.3 218.75 17.53.12c.12-.3.2-.6.23-.9l-17.9-.12c-.07.3-.02.63.14.9Z" fill="#407CB8"/><path d="m244.71 214.83 1.72.5M246.7 213.97l1.74.48M248.72 213.1l1.74.49M250.53 211.76l1.74.48M251.04 211.42s-1.16-1.74-2.45-.73c-1.29 1.01 2.17 1.13 2.17 1.13s-3.61-.63-2.69.86c.73 1.15 2.67-.63 2.67-.63" stroke="#FFD577" stroke-width=".67" stroke-linecap="round" stroke-linejoin="round"/><path d="M251.25 211.24c.34-1.33-.05-2.38 1.2-1.9 1.25.47 2.88 1.31 3.98.9 1.1-.43 2.1-.63 1.85.52l-.47 2.12-6.56-1.64Z" fill="#FF964E"/><path d="m266.86 162.21-.68-4.37s-.5-.1-4.12-2.4M278.54 147.05c-.48 12.9-.93 21.68-.83 31.61l8.74 24.25" stroke="#3648AA" stroke-width=".37" stroke-miterlimit="10"/><path d="M256.31 113.48c-1.77 18.89.21 31.23.21 31.23s7.5 2.6 24.3 3.33l2-31.86s-26.92-3.64-26.5-2.7Z" fill="#96C8E6"/><path d="M323.46 129.35c1.16 4.06 6.17 13.6 7.46 16 .08.15-.06.27 0 .36.23.44.94 2.02 1.6 3.41 1.73 3.6 4.36 8.63 4.94 9.43 1 .9-2.85 2.08-2.97.5.05 0-5.28-7.13-7.2-10.43-4.43-7.63-8.56-15.65-8.56-15.65l1.83-2.96 2.9-.66Z" fill="#E6AEA2"/><path d="M330.23 144.04c.03.1.73 1.32.67 1.44.07.5-.03 1-.29 1.43" stroke="#A84B35" stroke-width=".28" stroke-linecap="round" stroke-linejoin="round"/><path d="M286.04 116.3c-.3 3.53-7.36 4.51-16.25 3.78-8.9-.74-15.87-4.2-15.57-7.74.3-3.54 7.74-5.8 16.63-5.07 5.33.45 9.9 2 12.77 3.7 2.68 1.57 2.54 3.9 2.42 5.32Z" fill="#96C8E6"/><path d="M285.76 113.36c1.38 6.98.2 22.1.2 22.1l-5.3 1.53-2.27-22s6.1-4.6 7.37-1.63Z" fill="#96C8E6"/><path d="M272 104.73c0 .87-.33 1.6-.96 1.87l-5.8 2.56-2.52 1.12c-.24-.94-.95-3.3-2.32-4l5.03-3.03 3.15-1.9c.95-.57 2.33.2 3.03 1.69.25.53.39 1.1.4 1.69Z" fill="#E6AEA2"/><path d="M272.05 115c-.08-.41-1.64-1.69-1.64-1.69l-.8 2.58 2.26 1.1.18-2Z" fill="#DB8A79"/><path d="m306.32 195.08-4.08-.64c-.96-5.05-1.61-5.87-1.52-6.77l2.31-22.01c.24-2.32 2.78-3.88 5.57-3.44 2.8.44 4.73 2.7 4.25 4.98l-4.99 23.36c-.19.88-.65-.24-1.54 4.52Z" fill="#E6AEA2"/><path d="M310.06 212.65c-.4-8.13-.37-12.18-.59-18.58a10.16 10.16 0 0 0-2.54-5.28l-.1-.44-.34-.04a9.48 9.48 0 0 0-1.18-1.04l-.14.9-3.75-.42c-.35-.04-.67.15-.6.5.67 3.25 3.86 16.95 5.12 22.36l.72 4.02.2.7s3.62.67 3.2-2.68ZM321.04 193.6l-4.1.42c-2.23-4.64-3.07-5.26-3.21-6.15L310.3 166c-.36-2.3 1.68-4.46 4.5-4.75 2.81-.3 3.65-10.57 5.38 3.72 1.73 14.3-.87 19.07 1.1 23.32 3.99 4.35-.6.47-.24 5.3Z" fill="#E6AEA2"/><path d="M329.27 209.8c-2.5-7.75-3.18-12.4-5.37-18a10.2 10.2 0 0 0-3.83-4.44l-.22-.4-.33.06c-.45-.27-.93-.5-1.41-.7l.1.9-3.73.57c-.35.05-.61.32-.45.63 1.5 2.97 8.14 15.38 10.77 20.28l1.73 3.7.38.62s3.63-.1 2.36-3.23Z" fill="#E6AEA2"/><path d="M235.88 140.84c-1.9 1.33-3.94 2.87-4.41 3.2-.72.48-3.68 3.63-3.96 4.06-.14.22-.56 1.91-.85 3.58-.06.78-.31 3.01 0 3.2.24.14.47-.1.72-.72.23.11.36-.21.51-.66l.16.02c.06 0 .33-.54.68-2.2.3-1.46 1.23-2.28 1.8-2.3l.39.2c.38.07.46-.04.52-.25.08-.28 1-1.15 1-1.15l.67-.7.49-.53 1.68-2.77.6-2.98Z" fill="#DB8A79"/><path d="M227.25 154.48c.3-1 .43-2.79.98-4.1l-.98 4.1Z" fill="#DB8A79"/><path d="M227.25 154.48c.3-1 .43-2.79.98-4.1" stroke="#A84B35" stroke-width=".28" stroke-linecap="round" stroke-linejoin="round"/><path d="M227.89 153.51c.29-.88.37-2 .78-2.99l-.78 2.99Z" fill="#DB8A79"/><path d="M227.89 153.51c.29-.88.37-2 .78-2.99" stroke="#A84B35" stroke-width=".28" stroke-linecap="round" stroke-linejoin="round"/><path d="M280.22 86.68c0 .16-.01.4-.04.73 0-.2-.04-.41-.1-.61l.14-.12ZM280.1 88.28l.09-.87c.01.3-.01.59-.08.87Z" fill="#FFD577"/><path d="M265.43 103.19v.06l-.18 5.91-.02.5-2.56 1.12a.89.89 0 0 0 .05-.5c-.23-.94-.95-3.3-2.31-4l-.31-.11 5.33-2.98Z" fill="#FF964E"/><path d="M365.71 135.7c-.76 0-1.51.18-2.2.53-1.36-2.17-4.14-3.63-7.35-3.63-3.23 0-6.02 1.49-7.36 3.68a6.85 6.85 0 0 0-5.16-2.2c-3.31 0-6.04 2.08-6.26 4.71h32.42c-.18-1.73-1.94-3.08-4.09-3.08Z" fill="#C3DFF1"/><path d="M302.3 88.22c-2.26 0-4.29.86-5.62 2.21-.41-.1-.85-.16-1.28-.16-2.34 0-4.27 1.46-4.45 3.35h18.51c-.24-3.03-3.36-5.4-7.15-5.4Z" fill="#DBECF7"/><path d="M233.94 149.9h-7.25c-.83 0-1.5.68-1.5 1.5v38.9c0 .82.67 1.5 1.5 1.5h7.25c.83 0 1.5-.68 1.5-1.5v-38.9c0-.82-.67-1.5-1.5-1.5ZM350.05 196.6l2.87-1.21a1.5 1.5 0 0 0 .8-1.97l-13.01-30.64a1.5 1.5 0 0 0-1.98-.8l-2.86 1.22a1.5 1.5 0 0 0-.8 1.96l13 30.64a1.5 1.5 0 0 0 1.98.8Z" stroke="#5564AF" stroke-width=".93" stroke-miterlimit="10"/><path d="M216.05 213.13h-.06c-.76 0-1.38.61-1.38 1.38v2.86c0 .76.62 1.38 1.38 1.38h.06c.76 0 1.38-.62 1.38-1.38v-2.86c0-.77-.62-1.38-1.38-1.38ZM234.97 213.13h-.05c-.76 0-1.38.61-1.38 1.38v2.86c0 .76.62 1.38 1.38 1.38h.05c.77 0 1.38-.62 1.38-1.38v-2.86c0-.77-.61-1.38-1.38-1.38ZM225.2 213.13h-.05c-.76 0-1.38.61-1.38 1.38v2.86c0 .76.62 1.38 1.38 1.38h.06c.76 0 1.38-.62 1.38-1.38v-2.86c0-.77-.62-1.38-1.38-1.38Z" fill="#3648AA"/><path d="M358.71 213.6h-.05c-.77 0-1.39.62-1.39 1.38v2.36c0 .76.62 1.38 1.39 1.38h.05c.76 0 1.38-.62 1.38-1.38v-2.36c0-.76-.62-1.38-1.38-1.38Z" fill="#5564AF"/><path d="M303.62 111.65c-1.06 2.05-1.25 7.17.58 9.57 1.85 2.45-.76 4.3-1.25 6.78-1.19 6.39 16.35 7.42 16.35 7.42l.9-9.05s-5.31-15.27-6.86-16c-6.74-3.3-8.63-.78-9.72 1.28Z" fill="#6B3626"/><path d="M309.3 107.93c-2.02 1.02-4.22 3.97-4.43 7.8-.17 3.13 1.22 3.84 1.59 4 1.39.61 3.63.08 4.51-.34 3.35-1.56 2.85-1.12 5.38-4.93 2.73-4.15-1.95-9.65-7.06-6.53Z" fill="#E9B7AC"/><path d="M307.31 113.25s-.33 1.33-1.03 1.33c-1.12 0-.33.7.18.94" stroke="#A84B35" stroke-width=".37" stroke-linecap="round" stroke-linejoin="round"/><path d="M308.93 114.1a.44.44 0 0 0 .45-.42.41.41 0 0 0-.13-.32.43.43 0 0 0-.32-.1.42.42 0 1 0 0 .84ZM306.31 113.07c-.24-.06-.45.12-.52.36-.06.25.13.46.37.52.24.07.45-.12.52-.36a.48.48 0 0 0-.37-.52ZM310.14 112.1c-.2-.58-1.06-1.09-1.37-.42-.15.57.61-.16 1.22 1.02.15.25.24-.27.15-.6ZM306.95 111.8c.21.15.25-.73-.33-.73-.58.06-1.16.64-1.04.88.19.3.83-.55 1.37-.15Z" fill="#290C0F"/><path d="m313.5 114.95.54.42s.18 5.15.06 8.66c-.14 3.14 8.66 6.33 15.5 5.23 1.2-.2 2.68-.87 3.68-1.55.95-.65 2.46-2.56 1.96-4.77-.67-2.94-2.57-3.38-4.83-3.41-4.57-.06-3.64-3.28-6.34-5.02-2-1.26-4.63-.78-5.27-2.32a1.68 1.68 0 0 1-.11-.6c-.1-3.55-2.3-5.97-5.29-6.24-2.55-.24-6.92 0-6.26 4.3.96-.08 2.38.53 3.63 1.95 1 1.35 1.84 2.15 2.72 3.35Z" fill="#6B3626"/><path d="M313.8 115.13s1.28-2.27 2.74-1.13c1.14.88-.42 4.06-2.74 2.6v-1.47Z" fill="#E9B7AC"/><path d="M316.1 114.44s-1.46-.98-1.73 1.55" stroke="#A84B35" stroke-width=".37" stroke-linecap="round" stroke-linejoin="round"/><path d="M315.97 115.47s-.5-1.34-1.18-.8" stroke="#A84B35" stroke-width=".37" stroke-linecap="round" stroke-linejoin="round"/><path d="M311.52 107.23s-.03 3.66 2.37 5.27" stroke="#591D0B" stroke-width=".37" stroke-linecap="round" stroke-linejoin="round"/><path d="M314.32 116.4s-.16 3.58.12 6.36c.09.82.4 2 1.58 2.39-6.78.88-8.08-.55-7.5-.58.6-.05.66-.75.66-.75l.1-4.54 5.04-2.88Z" fill="#E9B7AC"/><path d="M309.17 119.92s1.12-.19 2.31-.92a4.44 4.44 0 0 1-2.27 2.92l-.04-2Z" fill="#A84B35"/><path d="M317.38 125.58s-3.2-1.55-11-.88c0 1.58 2.16 3.88 4.53 2.67 3.28-1.73 6.47-1.8 6.47-1.8Z" fill="#E9B7AC"/><path opacity=".35" d="M308.2 115.52c-.33.73.73 1.58 2.19.88.66-.3 1.06-.9.85-1.51-.19-.46-.58-.73-1.58-.16-.98.64-1.25.4-1.46.8ZM305.1 114.06s.4 1.53.11 1.83c-.2.24-.34.15-.37.15.03-.56.13-1.65.26-1.98Z" fill="#B2412B"/><path d="M313 108.86s.16 1.85 2.5 3.67" stroke="#591D0B" stroke-width=".37" stroke-linecap="round" stroke-linejoin="round"/><path d="M307.62 116c2.04-.33.55 1.43-.36 1.43s-2.22-1 .36-1.43Z" fill="#A84B35" stroke="#A84B35" stroke-width=".37" stroke-linecap="round" stroke-linejoin="round"/><path d="M307.8 116.67c.2.01.41.05.61.1.36-.46.36-.97-.79-.76-1.49.24-1.67.7-1.4 1.03.1-.25.52-.4 1.58-.37Z" fill="#fff" stroke="#A84B35" stroke-width=".37" stroke-linecap="round" stroke-linejoin="round"/><path d="M310.37 111.08s1.7 1.81 1.76 4.84c.03 1.7-.43 9 5.53 9.75-.73-3 .2-6.2.2-6.2s-4.22-2.34-3.94-4.43c.24-2.06-3.55-3.96-3.55-3.96Z" fill="#6B3626"/><path d="M313.22 116.58s.33 6.7 6.17 8.24" stroke="#591D0B" stroke-width=".37" stroke-linecap="round" stroke-linejoin="round"/><path d="m323.03 131.35-1.78 2.03-4.56 17.5-9.53 4.17-3.7-6.37-2.65-19.44a4.27 4.27 0 0 1 4.63-4.68l1.26.1c2.9 3.55 7.72 1.16 9.11.48l3.53.6c2.77.25 4.59 3 3.69 5.61Z" fill="#407CB8"/><path d="M302.27 131.51c-2.46 4.87-.27 5.81 1.16 17.1l3.35-2.04 1.61-7.45-6.12-7.6Z" fill="#407CB8"/><path d="m297.33 218.75 13.83.08c.1-.22.16-.46.18-.7.1-1.11-.5-2.9-.68-4.01l-.05-.36-.04-.44c0-.9-.8-.75-.8-.75-1.32 1.28-3.37-.64-4.25-.01 0 0-.37.26-1.4 1.19-1.04.92-2.8 1.53-4.3 2.13-1.94.8-2.49 1.6-2.6 2.15-.05.25-.01.5.11.72Z" fill="#96C8E6"/><path d="M309.02 218.8h.4a2.9 2.9 0 0 1-.7-2.08c.07-1.28 1.41-2.16 1.94-2.62a8.88 8.88 0 0 0-.05-.35c-.59.44-2.12 1.4-2.21 2.95-.04.75.18 1.5.62 2.1Z" fill="#C3DFF1"/><path d="m297.33 218.75 13.83-.02c.1-.23.16-.47.18-.71l-14.12.01c-.05.25-.01.5.11.72Z" fill="#5564AF"/><path d="m300.03 215.65 1.35.4M301.6 214.97l1.37.38M303.19 214.28l1.37.39M304.65 213.32l1.51.42M304.8 213s-1-1.5-2.12-.62c-1.11.89 1.89.98 1.89.98s-3.14-.55-2.34.74c.63 1 2.32-.54 2.32-.54" stroke="#C3DFF1" stroke-width=".67" stroke-linecap="round" stroke-linejoin="round"/><path d="m321.82 220.48 11.82-8.5c-.06-.25-.16-.5-.3-.72-.6-1-2.23-2.15-3.07-2.98l-.27-.27c-.12-.14-.24-.26-.3-.36-.57-.77-1.15-.13-1.15-.13-.33 1.9-3.27 1.54-3.63 2.62 0 0-.15.46-.45 1.89-.3 1.42-1.43 3.03-2.33 4.48-1.14 1.87-1.1 2.9-.85 3.43.1.24.3.43.53.54Z" fill="#96C8E6"/><path d="m331.8 213.28.33-.25a3.06 3.06 0 0 1-1.9-1.34c-.73-1.13-.14-2.7.03-3.43L330 208c-.22.74-.93 2.5-.04 3.88a3.47 3.47 0 0 0 1.85 1.4Z" fill="#C3DFF1"/><path d="m321.82 220.48 11.82-8.5c-.06-.25-.16-.5-.3-.72l-12.05 8.68c.1.24.3.43.53.54Z" fill="#5564AF"/><path d="m322.17 216.16 1.4-.5M323.1 214.6l1.4-.5M324.03 213.04l1.4-.5M324.58 211.25l1.4-.51M324.78 210.99s-1.95-1.07-2.32.23c-.38 1.3 2.34.17 2.34.17s-2.2.33-2.24 1.47c-.02 1.13 2.33-1.3 2.33-1.3" stroke="#C3DFF1" stroke-width=".67" stroke-linecap="round" stroke-linejoin="round"/><path d="m294.47 134.28 7.7-8.61 2.53 8.55-1.88 2.32-4.52 3.96s-1.28-3.96-3.83-6.22ZM328.48 137.33l-6.08-9.8-4.02 7.98 1.44 2.6 3.04 4.6s5.43-5.32 5.62-5.38Z" fill="#407CB8"/><path d="m303.44 148.75-4.4 37.06s3.15-.77 9.24 1.66c6.1 2.44 13.12-.99 13.12-.99 3.89-1.64 8.4.05 8.4.05l-7.31-18.19s.97-7.54-5.27-19.22c0 0-9.43 1.7-13.78-.37Z" fill="#FF964E"/><path d="M231 176.74h-15.71a2.54 2.54 0 0 0-2.54 2.53v32.56c0 1.4 1.14 2.53 2.54 2.53h15.7c1.4 0 2.55-1.13 2.55-2.53v-32.56c0-1.4-1.14-2.53-2.54-2.53Z" fill="#C3DFF1"/><path d="M236.63 176.74H223.4a2.54 2.54 0 0 0-2.55 2.53v32.56c0 1.4 1.14 2.53 2.55 2.53h13.23c1.4 0 2.54-1.13 2.54-2.53v-32.56c0-1.4-1.13-2.53-2.54-2.53Z" fill="#C3DFF1"/><path d="M218.53 176.8a2.46 2.46 0 0 0-2.46 2.44v32.73a2.43 2.43 0 0 0 1.52 2.26c.3.12.62.19.94.19M224.63 178.4v9.54a2.03 2.03 0 0 0 2.02 2.02h7.25a2.04 2.04 0 0 0 1.87-1.24 2 2 0 0 0 .15-.78v-9.54" stroke="#77B7DF" stroke-width=".37" stroke-miterlimit="10" stroke-linecap="round" stroke-linejoin="round"/><path d="M215.25 210.98a.67.67 0 0 1-.45-.68c0-.1.03-.2.08-.28l.8-1.5.81.3-.34 1.66a.68.68 0 0 1-.9.5Z" fill="#C3DFF1" stroke="#77B7DF" stroke-width=".37" stroke-miterlimit="10"/><path d="m360.08 215.28 6.75-2.85a2.53 2.53 0 0 0 1.35-3.32L358 185.14a2.54 2.54 0 0 0-3.33-1.35l-6.75 2.85a2.53 2.53 0 0 0-1.35 3.32l10.18 23.97a2.54 2.54 0 0 0 3.33 1.34Z" fill="#96C8E6"/><path d="m356.99 216.58 3.06-1.3a2.53 2.53 0 0 0 1.35-3.31L351.22 188a2.55 2.55 0 0 0-3.33-1.35l-3.06 1.3a2.53 2.53 0 0 0-1.35 3.31l10.18 23.98a2.54 2.54 0 0 0 3.33 1.34Z" fill="#96C8E6" stroke="#629ACA" stroke-width=".37" stroke-miterlimit="10" stroke-linecap="round" stroke-linejoin="round"/><path d="M351.69 185.02a2.44 2.44 0 0 1 2.68.5c.23.23.42.5.54.8l10.25 24.13a2.44 2.44 0 0 1-1.3 3.2" stroke="#629ACA" stroke-width=".37" stroke-miterlimit="10" stroke-linecap="round" stroke-linejoin="round"/><path d="M341.83 162.21c-.2.3-1.54-.75-1.6-.8.04.05.7.79.9 1.1.2.32.8 1.5.6 1.71-.15.15-.55-.34-.6-.4.05.08.73 1.19.47 1.4 0 0 .13.4-.07.5-.2.1-.7-.2-2.01-1.7a20.46 20.46 0 0 0-2.27-1.62c-.39-.23-.67-.36-.65-.29.02.17.09.34.18.5.16.24.37.45.62.6l.15.15c.3.36.42.97.15 1.06-.16.06-.57-.24-1.03-.69-.23-.23-.48-.5-.73-.78a7.7 7.7 0 0 1-1.16-1.74c-.37-.88-.3-2.4-.3-2.4l1.85-1.6c0 .04 2.88 2.6 3.18 2.9.01 0 2.53 1.8 2.32 2.1Z" fill="#E6AEA2"/><path d="M339.52 160.6c.25.26.49.53.7.81M339.12 161.21c.7.7 1.2 1.2 1.4 1.5.2.3.4.7.71 1.2M338.71 161.91c.3.28 1.11 1.06 1.41 1.4.3.35.8 1.11 1.48 1.9" stroke="#A84B35" stroke-width=".28" stroke-linecap="round" stroke-linejoin="round"/><path d="m338.14 162.97-.48.18-.22.1-.66.27-.22.1-.43.17a.3.3 0 0 1-.1.03.3.3 0 0 1-.1-.02.3.3 0 0 1-.1-.06.29.29 0 0 1-.06-.1l-.38-.71a.27.27 0 0 1 .06-.3.27.27 0 0 1 .09-.06l.08-.03.23-.1.75-.32.06-.02c.2.08.4.18.6.3l.88.57ZM233.09 148.95h-5.34a.38.38 0 0 0-.38.38v1.15c0 .2.17.38.38.38h5.34c.2 0 .38-.17.38-.38v-1.15a.38.38 0 0 0-.38-.38Z" fill="#3648AA"/><path d="M236.38 144.48c-1.63.99-2.06 1.54-2.37 2.05-1.07 1.75-.5 1.57-1.76 3.58-.4.63-.15 2.7-.94 2.87-.8.17-.57-1.32-.34-2.21.23-.9-.18-2.25-.73-2.24-.55 0-.1-.95-.1-.95l3.12-2.11 1.3-1.88 1.1-.7.72 1.6Z" fill="#DB8A79"/><path d="M231.15 153c-.6-.18-.35-1.27-.21-2.1.14-.82.18-1.97-.64-2.31-.33-.14-.97.2-.97.2" stroke="#A84B35" stroke-width=".28" stroke-linecap="round" stroke-linejoin="round"/><path d="m250.05 135.6-14.64 11.95-4.24-4.14 15.21-16.3 5.67 5.07c.72.72-1.24 2.75-2 3.42Z" fill="#96C8E6"/><path d="m263.97 118-12.86 16.54-6.56-4.04 10.1-19.41 9.32 6.9Z" fill="#96C8E6"/><path d="M303.16 146.38s-1.18-5.56-1.68-8.28c-.31-1.68-.31-3.58 1.3-6.2v-1.34" stroke="#96C8E6" stroke-width=".37" stroke-miterlimit="10" stroke-linecap="round"/><path d="m322.75 142.54.11.15.3-.2-.1-.16-.3.2Zm-4.34-6.43.08.17.1-.05v-.12h-.18Zm-.48 1.03a.19.19 0 0 0 .36-.1l-.36.1Zm5.13 5.19a247.17 247.17 0 0 0-4.12-5.88 8.87 8.87 0 0 0-.38-.47l-.08-.05a.19.19 0 0 0-.25.18h.37c0 .01 0 .1-.08.15a.18.18 0 0 1-.17.02l-.04-.02.06.06.28.36a248.03 248.03 0 0 1 4.1 5.86l.31-.21Zm-4.72-6.39c-.35.16-.44.5-.45.74-.01.12 0 .24.01.32l.02.1v.03h.01v.01l.18-.04.18-.05v-.03a1.18 1.18 0 0 1-.03-.32c.01-.2.07-.35.23-.42l-.15-.34Z" fill="#96C8E6"/><path d="m349.47 191.68 8.16 18.8M347.16 193.2l8.15 18.81" stroke="#629ACA" stroke-width=".37" stroke-miterlimit="10" stroke-linecap="round" stroke-linejoin="round"/><path d="M355.74 191.5a.7.7 0 0 1-.5-.27.68.68 0 0 1-.12-.55l.34-1.66.86.05.14 1.7a.66.66 0 0 1-.2.52.68.68 0 0 1-.52.2Z" fill="#96C8E6" stroke="#629ACA" stroke-width=".37" stroke-miterlimit="10"/><path d="M286.64 136.58c.37-.94.37-8.43 0-15.93l-.75 9-.94 5.62c.44.75 1.39 2.06 1.69 1.31Z" fill="#96C8E6"/><path d="M304.74 127c.36 0 .65-.29.65-.65a.65.65 0 1 0-.65.65ZM300.1 133.13a.65.65 0 1 0 .01-1.31.65.65 0 0 0 0 1.3ZM307.76 129.01c.36 0 .66-.3.66-.65 0-.36-.3-.65-.66-.65a.65.65 0 1 0 0 1.3ZM296.5 132.1a.65.65 0 0 1 .17 1 .65.65 0 0 1-.53.22.67.67 0 0 1-.5-.27M300.71 127.32l.1-.01a.65.65 0 1 1-.54 1.01.65.65 0 0 1-.1-.36M304.54 132.22a.65.65 0 1 0 0-1.3c-.36 0-.65.29-.65.65 0 .36.29.65.65.65ZM302.52 136.94a.65.65 0 1 0 0-1.3.65.65 0 0 0 0 1.3ZM306.55 136.23c.36 0 .66-.29.66-.65 0-.36-.3-.65-.66-.65a.65.65 0 1 0 0 1.3ZM310.58 139.34a.65.65 0 1 0 0-1.3c-.36 0-.66.3-.66.65 0 .36.3.65.66.65ZM317.67 147.07a.65.65 0 0 1-.6-.68c0-.17.08-.33.2-.44a.65.65 0 0 1 .46-.18c.1 0 .19.02.28.06M311.04 149.74v-.11a.65.65 0 0 1 1.3 0v.04M304.34 142.46a.65.65 0 1 0 0-1.31.65.65 0 0 0 0 1.3ZM306.55 146.47a.65.65 0 1 0 0-1.3.65.65 0 0 0 0 1.3ZM313.63 136.03a.65.65 0 1 0 0-1.3.65.65 0 0 0 0 1.3ZM299 137.94c.36 0 .66-.3.66-.65a.65.65 0 1 0-.66.65ZM315.21 131.82a.65.65 0 1 0 0-1.3.65.65 0 0 0 0 1.3ZM323.97 135.63a.65.65 0 1 0 0-1.3.65.65 0 0 0 0 1.3ZM328.04 136.65a.66.66 0 0 1-.56.29.66.66 0 0 1-.54-.3.64.64 0 0 1-.04-.63.65.65 0 0 1 .5-.37M319.34 136.38c.36 0 .65-.29.65-.65a.65.65 0 1 0-.65.65ZM322.86 140.05c.36 0 .65-.3.65-.66a.65.65 0 1 0-.65.65ZM324.52 131.03a.65.65 0 0 1-.53.18.65.65 0 0 1-.57-.58c-.01-.1 0-.2.03-.29a.66.66 0 0 1 .41-.4M319.84 131.6c.36 0 .65-.3.65-.66a.65.65 0 1 0-.65.65ZM312.19 128.61a.65.65 0 1 0 0-1.3.65.65 0 0 0 0 1.3ZM309.97 133.03a.65.65 0 1 0 0-1.31.65.65 0 0 0 0 1.3ZM317.42 140.75a.65.65 0 1 0 0-1.3.65.65 0 0 0 0 1.3ZM316.39 127.4a.65.65 0 1 0 0-1.3.65.65 0 0 0 0 1.3Z" stroke="#96C8E6" stroke-opacity=".4" stroke-width=".37" stroke-miterlimit="10"/><path d="M321.12 126.4a.65.65 0 1 1-1.05-.4" stroke="#96C8E6" stroke-opacity=".4" stroke-width=".37" stroke-linecap="round" stroke-linejoin="round"/><path d="M303.7 150.79c9.75 2.2 14.38-.01 14.38-.01" stroke="#FF7C22" stroke-width=".37" stroke-miterlimit="10"/><path d="m306.83 143.16-.08-1.21" stroke="#5564AF" stroke-width=".37" stroke-miterlimit="10" stroke-linecap="round"/><path d="m315.71 142.63.4 3.74a.82.82 0 0 1-.42.81c-.1.06-.2.1-.31.1l-6.85.74a.82.82 0 0 1-.61-.18.84.84 0 0 1-.3-.56l-.41-3.73a.82.82 0 0 1 .43-.82c.1-.05.2-.09.3-.1l2.01-.22 4.84-.51a.84.84 0 0 1 .83.42c.05.1.08.2.1.31Z" fill="#5564AF"/><path d="m315.01 142.72.41 3.73a.82.82 0 0 1-.18.62.82.82 0 0 1-.56.3l-6.84.73a.84.84 0 0 1-.62-.17.85.85 0 0 1-.3-.56l-.4-3.74a.81.81 0 0 1 .17-.6.83.83 0 0 1 .56-.31l2-.22-.02-.24a.46.46 0 0 1 .42-.5l1.98-.22a.46.46 0 0 1 .46.24c.03.06.04.11.05.18l.03.23 1.93-.2a.84.84 0 0 1 .91.73Z" fill="#3648AA"/><path d="M310.96 147.15a2.11 2.11 0 1 0 .01-4.22 2.11 2.11 0 0 0 0 4.22Z" fill="#5564AF" stroke="#5564AF" stroke-width=".37" stroke-miterlimit="10"/><path d="M310.96 146.55a1.5 1.5 0 1 0 0-3.02 1.5 1.5 0 0 0 0 3.02Z" fill="#3648AA"/><path d="M307.54 143.5a.28.28 0 0 0-.26.31l.38 3.43a.29.29 0 0 0 .3.25v0" stroke="#5564AF" stroke-width=".37" stroke-miterlimit="10" stroke-linecap="round"/><path d="m314.08 142.78-.66.07c-.1.01-.16.1-.15.2l.04.35c0 .1.1.16.19.15l.65-.07c.1-.01.17-.1.16-.2l-.04-.35a.17.17 0 0 0-.2-.15Z" stroke="#5564AF" stroke-width=".37" stroke-miterlimit="10"/><path d="m307.33 142.2.25-.03a.23.23 0 0 1 .17.05.23.23 0 0 1 .08.15l.03.27-.7.08-.03-.28v-.08l.05-.08a.24.24 0 0 1 .06-.06.23.23 0 0 1 .09-.02Z" fill="#5564AF"/><path d="m309.99 145.34 1.86.94M307.1 142.75l7.7-.85M314.4 142l.05-.96" stroke="#5564AF" stroke-width=".37" stroke-miterlimit="10" stroke-linecap="round"/><path d="M306.53 141.98c0-.01-.26-1.61-.57-3.12-1.46-7-1.32-11.79.39-14.25a4.3 4.3 0 0 1 2.86-1.84c-.04-.03.06.57-.03 1.13-.79.19-1.48.67-1.92 1.34-1.06 1.52-1.71 5.23-1.01 10.64.6 3.62.8 6 .8 6.02l-.52.08ZM314.1 141.1c-.03-.48-1.1-11.25 1.97-16a.29.29 0 0 1 .3-.13l.72.13a.18.18 0 0 1 .14.11c.01.03.02.06.01.1a.2.2 0 0 1-.03.08c-3.12 4.2-2.51 15.6-2.5 15.71h-.6Z" fill="#3648AA"/><path d="m311.03 145.16 1.26.6" stroke="#5564AF" stroke-width=".37" stroke-miterlimit="10" stroke-linecap="round"/><path d="M299.03 185.81c4.45-.42 6.6.8 9.45 1.74 2.85.95 6.99 1.23 11.97-.66 5.08-2.3 9.36-.36 9.36-.36M311.23 166.8l1.85 21.55" stroke="#FF7C22" stroke-width=".37" stroke-miterlimit="10"/><path d="M264.83 147.25a32.88 32.88 0 0 0-.54 5.62c0 .1.03.2.1.28.05.07.14.13.24.15l1.96.45c.09-1.97.75-6.9.75-6.9" stroke="#3648AA" stroke-width=".37" stroke-miterlimit="10"/><path d="M274.67 108.44c-1.54 1.7-4.26 4.05-5.95 4.51-2.35.64-3.5-.99-3.5-.99l-.06.54.2-6.89.08-3.14.04-1.46 7.61-3.5s-.6 7.49 1.58 10.93Z" fill="#DB8A79"/><path d="m268.6 108.61-1.14 1.07M266.82 108.39l.47.53" stroke="#A84B35" stroke-width=".37" stroke-linecap="round" stroke-linejoin="round"/><path d="M310.96 146.55a1.5 1.5 0 1 0 0-3.02 1.5 1.5 0 0 0 0 3.02Z" stroke="#96C8E6" stroke-width=".37" stroke-miterlimit="10"/><path d="M271.63 99.96c-.34 4.56-5.16 5.5-6.28 5.66l.09-3.14c.46-.1 2.9-.65 6.19-2.52Z" fill="#A84B35"/><path d="M264.12 110.36c2.88 2.62 10.32.3 10.32.3l.25 2.17-1.3-.08-10.72.1 1.45-2.49Z" fill="#96C8E6"/><path d="M262.75 89.53s-2.19 3.96.94 3.87c2.24-1.92-.94-3.87-.94-3.87Z" fill="#6B3626"/><path d="M265.4 88.8c-2.5 2.45-5.38 14.81-.16 15.5 2.69.36 7.29-4.26 9.33-9.43 2.01-5.15-4.37-10.73-9.16-6.06Z" fill="#DB8A79"/><path d="M264.33 95.15s.24 1.93-.63 1.88c-1.25-.09-.26 1.15.37 1.31" stroke="#A84B35" stroke-width=".37" stroke-linecap="round" stroke-linejoin="round"/><path d="M266 95.97a.5.5 0 0 0 .4-.38.5.5 0 1 0-.4.38ZM263.36 94.92a.5.5 0 1 0 .5.48c.01-.26-.23-.48-.5-.48ZM266.85 93.56s-1.18-.78-1.53.08c-.25.59.5.15 1.46.64.3.18.63-.35.07-.72ZM262.7 93.85c-.18.25-.02.46.62.29.72-.21.9-.42.64-.58-.26-.21-.92-.26-1.27.3Z" fill="#591D0B"/><path opacity=".35" d="M265.88 98.12c-.17.89 1.73 1.19 3.1 0 .98-.85 1.23-2.1.63-2.52-.68-.47-.98.03-1.94.92-.96.87-1.63.8-1.79 1.6ZM262.5 96.78s.57 1.5.37 1.82c-.21.33-.47.3-.52.27 0-.55.05-1.7.14-2.09Z" fill="#B2412B"/><path d="M262.03 99.12s-1.15 3.78.58 5.02c1.75 1.23 7.24-.17 7.24-.17s2.16-.45 2.34-2.11c.16-1.66.03-5.09.94-5.65.9-.56-1.33-1.26-1.33-1.26s-2.36 5.57-2.71 6.1c-.5.78-1.69 1.09-1.56-.12.12-1.2-.54-1.7-1.56-1.91-1.06-.17-3.94.1-3.94.1Z" fill="#6B3626"/><path d="M263.94 98.64s.05-1.14 1.18-.53c1.27.7 3.07.56 3.07.56s-1.38 1.72-3.28 1.03l-.91-.47s-2.93 1.42-3.9-.55c1.16-.15 2.78-.82 3.16-.65.38.17.68.61.68.61Z" fill="#591D0B"/><path d="M261.31 86.66c-.6.85-1.52 2.85-.1 4.54 1.23 1.48 4.93.78 7.24.81 2.26.07 2.55.66 2.28 1.38-.3.73-.2 1.83.65 2.83.86 1.01 1.43 1.6 3.29 1.51 1.83-.1 3.85-3.55.8-5.82 1.13-1.91 0-4.37-3.77-4.9-3.77-.52-4.01-.59-4.66-1.85-.67-1.24-4.45-.3-5.73 1.5Z" fill="#6B3626"/><path d="M263.4 99.7s.6.85 1.84-.04" stroke="#A84B35" stroke-width=".37" stroke-linecap="round" stroke-linejoin="round"/><path d="M272.62 95.89s.37-2.67 2.45-1.68c1.65.8.55 5.1-2.65 3.93l.2-2.25Z" fill="#DB8A79"/><path d="M274.69 94.93s-2.05-.8-1.72 2.34" stroke="#A84B35" stroke-width=".37" stroke-linecap="round" stroke-linejoin="round"/><path d="M274.76 96.24s-.94-1.52-1.68-.67" stroke="#A84B35" stroke-width=".37" stroke-linecap="round" stroke-linejoin="round"/><path d="M261.95 89.24s1.72 2.37 6.67 2.07M265.76 86.08s-.66 1.36.98 1.85c1.65.48 5.1-.76 6.69.67" stroke="#591D0B" stroke-width=".37" stroke-linecap="round" stroke-linejoin="round"/><path d="M268.8 107.35c-.93 1.04 2.54 5.6 3.67 4.62 1.13-.98-.64-3.89-.64-3.89l-1.91-.98-1.11.25Z" fill="#FF7C22"/><path d="m272.54 111.02-1.41 1.08-1.48 10.01s-1.48.14-2.3-1.16c-.12-8.25.42-10.79.42-10.79.03-.48.42-1.02.7-1.35.09-.16.2-.3.34-.42l.7-.88c1.56.55 2.74 2.34 3.03 3.51Z" fill="#E6AEA2"/><path d="M270.77 123.27c.04.22.05.45.02.68l-7.05 1.24a1.66 1.66 0 0 1-.1-.68c.02-.41-.17-.72 1.2-1.53 1.66-.98 1.98-1.73 2.15-1.98.3-.46 1.07.32 2-.25l.55-.31a.37.37 0 0 1 .31-.03.37.37 0 0 1 .22.23c.38 1.1.62 2.02.7 2.63Z" fill="#fff"/><path d="M270.77 123.27c.04.22.05.45.02.68l-7.05 1.24a2.4 2.4 0 0 1-.1-.68l7.13-1.24Z" fill="#FFD577"/><path d="m265.8 122.24.76.34M265.17 122.75l.76.35" stroke="#FFBF2E" stroke-width=".37" stroke-miterlimit="10" stroke-linecap="round"/><path d="m267.15 121.9-.58-.28s-.84.04-1.09-.18c-.24-.22.33-1 1.12-.01 0 0-.6-.21-1.1-.16-.38.05-.7.29-.47.57.31.38 1.74-.28 1.74-.28" stroke="#FFBF2E" stroke-width=".37" stroke-linecap="round" stroke-linejoin="round"/><path d="M271 111.42c.42 1.02.42 2.27-.42 4.76-.65 1.96-.66.44-.66.44l-.06-3.51 1.14-1.7Z" fill="#E6AEA2"/><path d="M278.75 104.04c-.31 2.43-.85 3.07-.85 3.07l-5.43 4.86c.17-.17.18-.52.07-.96-.29-1.17-1.47-2.96-3.02-3.5a2.8 2.8 0 0 0-.7-.16l4.23-4.19.08-.07v-.02l-.1-1.68 5.62-2.11s.2 2.75.1 4.76Z" fill="#FF964E"/><path d="m273.83 120.68-.98-1.6-.8-4.08-1.05.14c-.45.05.2.3-.95-.47-1.05-.7-2-1.45-2.36-1.7a3.8 3.8 0 0 0-.42-.23c-.57-.22-.9.05-.94.64 0 0-.2-.03-.4.3-.17.3 0 .8 0 .8s-.31.16-.4.4a.77.77 0 0 0 .08.7s-.47.41-.02 1.17c.38.66.84 1.28 1.35 1.85.19.18.4.35.6.5 1.61 1.3 2.45 1.8 2.45 1.8l1.48 2.57 2.36-2.79Z" fill="#DB8A79"/><path d="M267.14 117.13c-.66-.63-1.06-.94-1.54-1.56M267.63 116.05a10.14 10.14 0 0 1-1.65-1.51M268.21 114.96c-.45-.28-.86-.67-1.18-.96l-.65-.56" stroke="#A84B35" stroke-width=".37" stroke-miterlimit="10"/><path d="M267.89 119.45c-.13-.15-.86-.73-1-.9-.5-.55-.94-1.16-1.3-1.8-.45-.76.01-1.18.01-1.18s-.23-.53-.03-.83a.47.47 0 0 1 .4-.2s-.24-.5-.1-.8c.2-.4.5-.3.5-.3-.01-.64.32-.92.9-.7l.42.24c.35.24 1.37.9 2.36 1.7.45.36.53.6.95.48" stroke="#A84B35" stroke-width=".37" stroke-miterlimit="10" stroke-linecap="round"/><path d="M279.16 124.28s-.47-6.07 0-8.75" stroke="#629ACA" stroke-width=".37" stroke-miterlimit="10"/><path d="M281.85 124.56c.33.46-2.48.75-2.88.75-.39 0-.34-.88.09-.92.43-.05 2.52-.31 2.79.17Z" fill="#E9B7AC"/><path d="M281.9 125.37c.34.46-2.75.7-3.15.7-.4 0-.35-.88.08-.93.43-.05 2.8-.26 3.07.23Z" fill="#E9B7AC"/><path d="M278.75 125.15c-.12-.25 0-.7.31-.76a9.92 9.92 0 0 1 2.58 0c.28.12.24.26.24.26" stroke="#A84B35" stroke-width=".28" stroke-linecap="round" stroke-linejoin="round"/><path d="M278.75 126.06c-.4 0-.35-.88.08-.92.43-.05 2.8-.26 3.07.23" stroke="#A84B35" stroke-width=".28" stroke-linecap="round" stroke-linejoin="round"/><path d="M281.6 126.17c.33.47-2.48.75-2.88.76-.4 0-.34-.88.09-.93.43-.05 2.52-.3 2.79.17Z" fill="#E9B7AC"/><path d="M278.66 126.05a.3.3 0 0 1 .14-.05c.43-.05 2.53-.31 2.8.17M278.23 127.54c-.12-.26 0-.71.31-.77" stroke="#A84B35" stroke-width=".28" stroke-linecap="round" stroke-linejoin="round"/><path d="M235.4 147.55c16.44-11.35 17.13-14.84 17.13-14.84l-5.3 1.12-11.82 13.72Z" fill="#96C8E6"/><path d="M251 134.93c7.2-8.17 7.15-10.26 7.15-10.26l-6.44 4.25-.7 6.01Z" fill="#96C8E6"/><path d="M270.7 84.38c.4-.07.46-.31.46-.31l1.13.02v.6l-1.6-.31Z" fill="#E9B7AC"/><path d="M273.02 101.4c5.16-.18 5.6-1.3 5.6-1.3l.33-2.94-5.02 2.64-.9 1.6Z" fill="#FFD577"/><path d="M262.8 110.67a1.02 1.02 0 0 1-.94 0c-.19-.1-.36-.23-.5-.38a5.94 5.94 0 0 1-1.45-3.7l.3-.19-.3.16c.02-.2.08-.34.18-.4.11.03.22.08.32.13 1.36.68 2.08 3.05 2.31 3.99l.09.39Z" fill="#FF7C22"/><path d="m261.28 110.92 1.44-.64c-.24-.94-.95-3.3-2.32-3.99l-.2.12c-1.43.76-2.03 1.08-2.08 2.15l-.45 11.35 2.32 1.1.2-1.65v-.01c.18-1.82 1.73-6.55 1.09-8.43Z" fill="#E6AEA2"/><path d="M261.14 122.17c.03.23.03.45 0 .68l-7.2.98a3.27 3.27 0 0 1 0-.73c.05-.4.24-.74 1.33-1.4 1.32-.78 1.68-1.6 2.17-1.84.5-.24 1.11.68 2.07.15.23-.12.51-.54.65-.62.21-.1.3 0 .37.23.35 1.11.55 1.94.61 2.55Z" fill="#fff"/><path d="M261.14 122.17c.03.23.03.45 0 .68l-7.2.98a4.2 4.2 0 0 1 0-.73l7.2-.93Z" fill="#FFD577"/><path d="m256.2 121.06.75.37M255.55 121.55l.75.37M257.58 120.84l-.75-.37s-.86-.02-1.12-.3c-.25-.26.32-1.45 1.3.09 0 0-2.17-.32-1.62.47.33.45 1.8-.31 1.8-.31" stroke="#FFBF2E" stroke-width=".37" stroke-miterlimit="10" stroke-linecap="round"/><path d="M261 106.72c1.61 2.14 2.24 4.32 1.32 4.06M271.03 108.5c1.74 1.86 1.67 3.1 1.44 3.47M273.13 103.1a4.36 4.36 0 0 1 3.25-.59" stroke="#FF7C22" stroke-width=".37" stroke-linecap="round" stroke-linejoin="round"/><path d="M288.23 79.26c-5.83 7.18-7.1 8.12-7.77 9.98M277.46 84.56a3.7 3.7 0 0 1 .95 1.95M277.7 84.45c.32.01 1.46.55 1.46.55M270.7 84.38c-1.22.24-2.16-.54-2.83-1.11l-9.58-8.07-1.97 2.07" stroke="#FFBF2E" stroke-width=".37" stroke-linecap="round" stroke-linejoin="round"/><path d="M238.43 177.48a2.55 2.55 0 0 0-1.8-.74H223.4a2.55 2.55 0 0 0-2.55 2.54v32.55a2.53 2.53 0 0 0 2.55 2.54" stroke="#77B7DF" stroke-width=".37" stroke-miterlimit="10"/><path d="M255.61 125.56c.03 4.57.23 9.87.44 14.94l-.44-14.94Z" fill="#C3DFF1"/><path d="M255.61 125.56c.03 4.57.23 9.87.44 14.94" stroke="#629ACA" stroke-width=".37" stroke-miterlimit="10" stroke-linecap="round"/><path d="M255.61 129.25s-4.18 5.6-6.97 8.07c-4.15 4.12-13.23 10.23-13.23 10.23l-4.24-4.15" fill="#96C8E6"/><path d="M255.61 129.25s-4.18 5.6-6.97 8.07c-4.15 4.12-13.23 10.23-13.23 10.23l-4.24-4.15M263.64 143.5c6.42.7 14.03.81 15.07.65" stroke="#629ACA" stroke-width=".37" stroke-miterlimit="10" stroke-linecap="round"/><path d="M275.17 141.89c-1.64.55-5.1 1.42-5.1 1.42l5.1-1.42Z" fill="#C3DFF1"/><path d="M275.17 141.89c-1.64.55-5.1 1.42-5.1 1.42" stroke="#629ACA" stroke-width=".37" stroke-miterlimit="10" stroke-linecap="round"/><path d="M285.29 112.46c1.64 1.95 1.51 9.2 1.05 23.53-2.54 2.4-3.93-9.64-3.93-9.64l2.88-13.9Z" fill="#96C8E6"/><path d="m279.62 138.01-10.47-15.07 4.65-3.68 12.05 14.08a3.9 3.9 0 1 1-6.23 4.67Z" fill="#96C8E6"/><path d="M264.49 110.65c.94.8 3.1.93 3.1.93" stroke="#629ACA" stroke-width=".37" stroke-miterlimit="10"/><path d="m285.32 132.76-11.52-13.5-4.65 3.68L279.62 138a3.9 3.9 0 0 0 4.2 1.6" stroke="#629ACA" stroke-width=".37" stroke-miterlimit="10" stroke-linecap="round"/></g><path d="M328.73 58.3c-.86-.01-1.7.13-2.51.42a10.38 10.38 0 0 0-7.17-2.72c-3.07 0-5.8 1.2-7.49 3.05a7.2 7.2 0 0 0-1.93-.28c-2.99 0-5.43 1.88-5.63 4.23h31c-.28-2.63-2.98-4.7-6.27-4.7Z" fill="#DBECF7"/><path d="M315.95 62c2.2 0 4.18.79 5.47 2.04.41-.1.83-.14 1.25-.14 2.28 0 4.15 1.35 4.33 3.1h-18c.23-2.8 3.27-5 6.95-5ZM318.52 25.57 317 26.9a.76.76 0 0 0-.07 1.08l.02.02c.28.31.76.35 1.08.07l1.51-1.32a.76.76 0 0 0 .07-1.08l-.02-.02a.76.76 0 0 0-1.07-.07ZM322.6 25.99l-1.5 1.32a.76.76 0 0 0-.08 1.07l.02.03c.28.31.76.34 1.08.07l1.51-1.33a.76.76 0 0 0 .07-1.07l-.02-.02a.77.77 0 0 0-1.07-.07ZM334.42 33.9l-1.51 1.31a.76.76 0 0 0-.08 1.08l.02.02c.28.31.76.35 1.08.07l1.51-1.32a.76.76 0 0 0 .08-1.08l-.02-.02a.77.77 0 0 0-1.08-.07ZM335.6 37.28l-1.52 1.33a.76.76 0 0 0-.07 1.07l.02.02c.28.32.76.35 1.08.07l1.51-1.32a.76.76 0 0 0 .07-1.07l-.01-.02a.77.77 0 0 0-1.08-.08Z" fill="#C3DFF1"/><path d="m304.53 26.75 2.44-.87a4.91 4.91 0 0 1 2.3-.24l20.23 2.72-7.71 4.03-17.26-5.64ZM332.07 30.23l5.08 12.4a4.88 4.88 0 0 1-1.36 5.56l-10.13-13.5 6.4-4.46Z" fill="#96C8E6"/><path d="m311.98 38.6-7.53.26a.46.46 0 0 0-.44.37.46.46 0 0 0 .26.5l4.04 1.78 3.67-2.9ZM309.03 42.55l2.92 3.53a.58.58 0 0 0 .82.07.56.56 0 0 0 .17-.24l1.88-6.37-5.79 3Z" fill="#C3DFF1"/><path d="M342.78 23.76c-.73-.74-1.62.13-2.88-.44-1.14-.59-3.13-.5-6.61 1.37l-.17.1-24.91 15.3a1.7 1.7 0 1 0 1.78 2.89l.2-.13c4.82-1.81 24.55-11.75 28.64-14l.04-.01a12.78 12.78 0 0 0 .86-.52c2.38-1.55 4-3.59 3.05-4.56Z" fill="#C3DFF1"/><path d="M339.9 23.32c1.26.71.91 1.95-.04 2.71l.26.67s2.47-1.92.43-3.2" fill="#96C8E6"/><path d="m314.82 39.54 22.08-11.6" stroke="#96C8E6" stroke-width=".55" stroke-miterlimit="10" stroke-linecap="round"/><path d="M307.24 36.86c-.1.22 1.1 4.6 1.1 4.6l3.53-2.26-3.7-2.85-.93.51Z" fill="#96C8E6"/><path d="M307.17 25.91a4.83 4.83 0 0 1 2.4-.26l19.02 2.7M332.78 32l4.37 10.63c.47 1.16.48 2.46.02 3.62M308.17 36.35l-.92.51c-.1.22 1.1 4.6 1.1 4.6" stroke="#C3DFF1" stroke-width=".55" stroke-miterlimit="10" stroke-linecap="round"/><path d="M309.61 43.14s9.62-4.2 17.33-7.93" stroke="#96C8E6" stroke-width=".55" stroke-miterlimit="10" stroke-linecap="round"/></g><defs><linearGradient id="b" x1="360" y1="220" x2="0" y2="0" gradientUnits="userSpaceOnUse"><stop stop-color="#00D2FF"/><stop offset="1" stop-color="#3A7BD5"/></linearGradient><linearGradient id="d" x1="363.43" y1="-5.99" x2="333.94" y2="45.02" gradientUnits="userSpaceOnUse"><stop stop-color="#fff"/><stop offset="1" stop-color="#fff" stop-opacity="0"/></linearGradient><linearGradient id="e" x1="188.89" y1="185" x2="210.66" y2="156.02" gradientUnits="userSpaceOnUse"><stop stop-color="#fff"/><stop offset="1" stop-color="#fff" stop-opacity="0"/></linearGradient><clipPath id="a"><rect width="360" height="220" rx="8" fill="#fff"/></clipPath><clipPath id="f"><path fill="#fff" transform="translate(196 68)" d="M0 0h196.5v151.84H0z"/></clipPath><filter id="c" x="107.5" y="-80.5" width="351" height="351" filterUnits="userSpaceOnUse" color-interpolation-filters="sRGB"><feFlood flood-opacity="0" result="BackgroundImageFix"/><feGaussianBlur in="BackgroundImage" stdDeviation="25"/><feComposite in2="SourceAlpha" operator="in" result="effect1_backgroundBlur_5_24385"/><feBlend in="SourceGraphic" in2="effect1_backgroundBlur_5_24385" result="shape"/></filter></defs></svg>