<svg width="26" height="26" viewBox="0 0 26 26" fill="none" xmlns="http://www.w3.org/2000/svg">
<path d="M20.7805 13.2225C20.7927 12.2698 21.0441 11.3357 21.5113 10.5071C21.9786 9.67845 22.6465 8.9823 23.4529 8.48331C22.9405 7.74691 22.2648 7.14083 21.4791 6.71336C20.6934 6.28578 19.8195 6.0486 18.9268 6.02048C17.0225 5.81923 15.1763 7.16743 14.206 7.16743C13.2168 7.16743 11.7227 6.04043 10.1139 6.07368C9.07322 6.10751 8.05902 6.41213 7.17006 6.95778C6.2811 7.50355 5.54774 8.27168 5.0415 9.1874C2.84827 13.0094 4.4842 18.6264 6.58505 21.7159C7.63628 23.2287 8.86472 24.9185 10.4721 24.8586C12.0451 24.793 12.6325 23.849 14.5312 23.849C16.4123 23.849 16.9635 24.8586 18.6035 24.8205C20.2914 24.793 21.3548 23.3009 22.369 21.7739C23.1242 20.6959 23.7054 19.5046 24.0909 18.244C23.1104 17.8264 22.2735 17.1277 21.6848 16.2348C21.0962 15.3418 20.7816 14.2942 20.7805 13.2225Z" fill="#B9BCC6"/>
<path d="M17.2276 3.9843C18.1479 2.87235 18.6012 1.44304 18.4915 0C17.0855 0.148633 15.7866 0.824996 14.854 1.89434C14.3979 2.41677 14.0486 3.02449 13.8261 3.68284C13.6036 4.34119 13.5121 5.03722 13.557 5.73115C14.2602 5.73839 14.956 5.58497 15.5917 5.28245C16.2276 4.97982 16.7869 4.53602 17.2276 3.9843Z" fill="#B9BCC6"/>
</svg>
