<svg width="26" height="26" viewBox="0 0 26 26" fill="none" xmlns="http://www.w3.org/2000/svg">
<g clip-path="url(#clip0_585_25391)">
<path d="M18.8184 16.5292C21.5782 14.9998 23.6706 13.8346 23.851 13.7441C24.4277 13.4344 25.0236 12.6149 23.851 11.9785C23.4723 11.7784 21.4338 10.6492 18.8184 9.19336L15.1929 12.8884L18.8182 16.5292H18.8184Z" fill="#E3E4E8"/>
<path d="M15.1915 12.8887L3.64697 24.6306C3.91776 24.6669 4.2237 24.5943 4.58456 24.3942C5.34181 23.976 13.3691 19.5518 18.8172 16.5303L15.1915 12.8887V12.8887Z" fill="#B9BCC6"/>
<path d="M15.1931 12.8894L18.8185 9.21225C18.8185 9.21225 5.39819 1.82115 4.58602 1.38504C4.28047 1.20166 3.93759 1.14744 3.63086 1.20166L15.1931 12.8892V12.8894Z" fill="#9DA1AF"/>
<path d="M15.1935 12.8867L3.63102 1.19922C3.16174 1.30865 2.76514 1.72703 2.76514 2.58232V23.2449C2.76514 24.0283 3.07207 24.5924 3.6488 24.6466L15.1933 12.8865L15.1935 12.8867Z" fill="#818698"/>
</g>
<defs>
<clipPath id="clip0_585_25391">
<rect width="26" height="26" fill="white"/>
</clipPath>
</defs>
</svg>
