<svg width="26" height="26" viewBox="0 0 26 26" fill="none" xmlns="http://www.w3.org/2000/svg">
<path d="M20.3259 13.2186C20.3381 12.2659 20.5895 11.3318 21.0567 10.5032C21.524 9.67454 22.1919 8.97839 22.9983 8.47941C22.486 7.74301 21.8102 7.13692 21.0245 6.70946C20.2388 6.28188 19.3649 6.04469 18.4722 6.01657C16.5679 5.81532 14.7218 7.16352 13.7514 7.16352C12.7622 7.16352 11.2681 6.03652 9.65928 6.06977C8.61863 6.10361 7.60443 6.40822 6.71547 6.95387C5.82651 7.49964 5.09315 8.26777 4.58691 9.18349C2.39368 13.0055 4.02961 18.6225 6.13046 21.712C7.18169 23.2248 8.41013 24.9146 10.0175 24.8547C11.5905 24.789 12.1779 23.8451 14.0766 23.8451C15.9577 23.8451 16.5089 24.8547 18.1489 24.8166C19.8368 24.789 20.9002 23.297 21.9144 21.77C22.6696 20.692 23.2508 19.5007 23.6363 18.2401C22.6558 17.8225 21.819 17.1238 21.2303 16.2309C20.6416 15.3379 20.327 14.2903 20.3259 13.2186Z" fill="#B9BCC6"/>
<path d="M17.2276 3.9843C18.1479 2.87235 18.6012 1.44304 18.4915 0C17.0855 0.148633 15.7866 0.824996 14.854 1.89434C14.3979 2.41677 14.0486 3.02449 13.8261 3.68284C13.6036 4.34119 13.5121 5.03722 13.557 5.73115C14.2602 5.73839 14.956 5.58497 15.5917 5.28245C16.2276 4.97982 16.7869 4.53602 17.2276 3.9843Z" fill="#B9BCC6"/>
</svg>
