<?xml version="1.0" standalone="no"?>
<!DOCTYPE svg PUBLIC "-//W3C//DTD SVG 20010904//EN"
 "http://www.w3.org/TR/2001/REC-SVG-20010904/DTD/svg10.dtd">
<svg version="1.0" xmlns="http://www.w3.org/2000/svg"
 width="50px" height="45px" viewBox="0 0 214.000000 235.000000" preserveAspectRatio="xMidYMid meet">

<g transform="translate(0.000000,235.000000) scale(0.100000,-0.100000)"
fill="#16a" stroke="none">
<path d="M73 2334 c-18 -9 -40 -28 -50 -43 -17 -24 -18 -74 -21 -811 -2 -733
-1 -787 15 -819 33 -63 61 -76 184 -79 l109 -4 0 -116 c0 -134 15 -172 75
-198 42 -17 454 -21 486 -4 22 12 27 68 7 88 -9 9 -75 12 -235 12 l-223 0 0
110 0 110 223 0 c204 0 225 2 240 18 20 22 22 52 5 75 -12 15 -50 17 -393 19
l-380 3 0 770 0 770 685 0 685 0 5 -474 5 -474 28 -10 c21 -7 34 -5 52 7 l25
16 0 305 0 305 95 0 95 0 0 -302 c0 -167 4 -308 8 -315 11 -18 58 -26 81 -13
21 11 21 16 21 334 0 313 -1 324 -21 350 -36 46 -69 56 -177 56 l-100 0 -4
123 c-4 137 -14 163 -73 191 -29 14 -114 16 -727 16 -611 0 -697 -2 -725 -16z"/>
<path d="M450 1954 l-43 -57 -17 22 c-12 16 -25 22 -46 19 -44 -5 -44 -42 1
-101 53 -69 69 -65 149 36 67 83 76 103 54 125 -26 26 -55 13 -98 -44z"/>
<path d="M682 1938 c-15 -15 -15 -61 0 -76 17 -17 559 -17 576 0 15 15 15 61
0 76 -17 17 -559 17 -576 0z"/>
<path d="M342 1608 c-19 -19 -14 -42 13 -68 l25 -24 -25 -26 c-27 -29 -31 -50
-13 -68 18 -18 35 -14 62 15 l25 27 30 -28 c54 -52 103 -3 54 54 l-25 30 26
31 c21 24 24 34 16 50 -15 26 -42 24 -70 -6 l-24 -25 -26 25 c-29 27 -50 31
-68 13z"/>
<path d="M682 1558 c-15 -15 -15 -61 0 -76 17 -17 559 -17 576 0 15 15 15 61
0 76 -17 17 -559 17 -576 0z"/>
<path d="M371 1234 c-60 -42 -58 -138 2 -174 50 -31 93 -26 133 14 49 49 45
114 -10 158 -27 22 -94 23 -125 2z"/>
<path d="M688 1189 c-21 -12 -24 -69 -6 -87 8 -8 62 -12 178 -12 149 0 169 2
183 18 22 25 21 48 -3 72 -18 18 -33 20 -177 20 -89 0 -166 -5 -175 -11z"/>
<path d="M1388 1071 c-124 -40 -226 -128 -283 -245 -201 -412 235 -839 644
-631 l49 24 97 -109 98 -109 68 61 c38 34 69 64 69 68 0 4 -45 55 -99 115
l-99 108 28 59 c123 261 -13 573 -287 658 -83 26 -206 26 -285 1z m306 -114
c71 -33 144 -106 182 -182 26 -54 29 -70 29 -160 0 -87 -3 -107 -26 -155 -93
-196 -316 -277 -514 -186 -72 33 -140 102 -178 184 -28 60 -32 77 -32 157 0
80 4 97 32 157 91 193 313 274 507 185z"/>
<path d="M1650 762 c-8 -2 -47 -38 -87 -80 l-71 -77 -34 33 c-23 21 -44 32
-64 32 -39 0 -54 -16 -54 -56 0 -26 10 -41 53 -79 71 -65 93 -78 116 -70 23 7
201 194 215 225 17 36 -32 84 -74 72z"/>
</g>
</svg>
