<svg width="26" height="26" viewBox="0 0 26 26" fill="none" xmlns="http://www.w3.org/2000/svg">
<path fill-rule="evenodd" clip-rule="evenodd" d="M8.05809 1.18164C3.0232 1.18164 1.18164 3.02288 1.18164 8.05675V18.8142C1.18164 23.8481 3.0232 25.6893 8.05809 25.6893H18.8096C23.8444 25.6893 25.6893 23.8481 25.6893 18.8142V8.05675C25.6893 3.02288 23.8478 1.18164 18.8129 1.18164H8.05809Z" fill="#9DA1AF"/>
<path fill-rule="evenodd" clip-rule="evenodd" d="M11.8728 15.3957H12.8567L12.3631 14.2477L11.8728 15.3957ZM11.6306 15.9742L11.3386 16.6421H10.674L12.0873 13.4357H12.6617L14.0693 16.6421H13.387L13.0988 15.9742H11.6306ZM22.325 16.6398H22.9673V13.4355H22.325V16.6398ZM19.7684 15.2633H20.9524V14.6791H19.7684V14.0223H21.4872V13.4379H19.1263V16.6419H21.5491V16.0575H19.7684V15.2633ZM17.2162 15.6419L16.488 13.4355H15.9565L15.2283 15.6419L14.5196 13.4373H13.8266L14.9451 16.6439H15.4838L16.2132 14.5376L16.9426 16.6439H17.4861L18.6015 13.4373H17.9265L17.2162 15.6419ZM9.6935 15.2721C9.6935 15.7937 9.43448 16.0725 8.9641 16.0725C8.49116 16.0725 8.23076 15.7857 8.23076 15.2499V13.4377H7.57975V15.2721C7.57975 16.1745 8.08125 16.692 8.95524 16.692C9.83789 16.692 10.3439 16.1646 10.3439 15.2454V13.4357H9.6935V15.2721ZM6.0266 13.4357H6.67721V16.6441H6.0266V15.3411H4.55677V16.6441H3.90576V13.4357H4.55677V14.7299H6.0266V13.4357Z" fill="white"/>
<path fill-rule="evenodd" clip-rule="evenodd" d="M13.4357 9.35024C11.1832 9.35024 9.35107 7.51792 9.35107 5.26562H9.92803C9.92803 7.19959 11.5017 8.77308 13.4357 8.77308C15.3697 8.77308 16.9433 7.19959 16.9433 5.26562H17.5203C17.5203 7.51792 15.688 9.35024 13.4357 9.35024Z" fill="white"/>
</svg>
