<svg xmlns="http://www.w3.org/2000/svg" xmlns:xlink="http://www.w3.org/1999/xlink" version="1.1" width="357.984pt" height="47.50801pt" viewBox="0 0 357.984 47.50801">
<defs>
<path id="font_0_11" d="M.6879883 .7001953H.526001V.3291626C.526001 .2141571 .48799134 .14015198 .3829956 .14015198 .27598573 .14015198 .22299195 .21916199 .22299195 .33317567V.7001953H.06098938V.3061676C.06098938 .09815979 .20098877-.0068359377 .3829956-.0068359377 .5529938-.0068359377 .6879883 .0811615 .6879883 .3001709V.7001953Z"/>
<path id="font_0_12" d="M.04699707 .55718997H.41299439L.33799745 .4721527C.23498535 .35409547 .1329956 .23603821 .02999878 .117996219V0H.6329956V.14299011H.23899842L.6239929 .58218386V.7001953H.04699707V.55718997Z"/>
<path id="font_0_2" d="M.07598877 0H.3889923C.5529938 0 .67099 .06098938 .67099 .20701599 .67099 .29403688 .621994 .35305787 .5399933 .36605836 .60899356 .3940735 .647995 .45410157 .647995 .52215579 .647995 .6261902 .5799866 .7001953 .39698792 .7001953H.07598877V0M.3789978 .29504396C.46998597 .29504396 .5039978 .2670288 .5039978 .2130127 .5039978 .15100098 .46099855 .12799073 .3639984 .12799073H.23799134V.29504396H.3789978M.3619995 .57218936C.45098878 .57218936 .48098756 .548172 .48098756 .49414063 .48098756 .44909669 .44699098 .41308595 .38198854 .41308595H.23799134V.57218936H.3619995Z"/>
<path id="font_0_3" d="M.07598877 0H.6369934V.1329956H.23799134V.29101563H.60198977V.41900636H.23799134V.56718447H.6279907V.7001953H.07598877V0Z"/>
<path id="font_0_6" d="M.07598877 0H.23799134V.2690735L.2679901 .30207826 .5219879 0H.7299957L.42399598 .36709596 .72898867 .7001953H.5169983L.23799134 .37609864V.7001953H.07598877V0Z"/>
<path id="font_0_5" d="M.08099365 0H.24299622V.7001953H.08099365V0Z"/>
<path id="font_0_9" d="M.48098756 .19306946C.48098756 .15306092 .45298768 .12207031 .36099244 .12207031 .27398683 .12207031 .17999268 .1620636 .11999512 .2270813L.034988405 .12005615C.09700012 .04206848 .20098877-.015930176 .3659973-.015930176 .5339966-.015930176 .647995 .079055789 .647995 .20507813 .647995 .45710755 .22799683 .39009095 .22799683 .5101166 .22799683 .5561218 .2669983 .578125 .34498597 .578125 .42399598 .578125 .5069885 .55410769 .55999758 .5081024L.6259918 .6221161C.57199099 .67811587 .46798707 .7161102 .35099793 .7161102 .17098999 .7161102 .06199646 .6141205 .06199646 .5051117 .06199646 .2350769 .48098756 .3210907 .48098756 .19306946Z"/>
<path id="font_0_10" d="M.004989624 .55718997H.23199463V0H.3939972V.55718997H.62098696V.7001953H.004989624V.55718997Z"/>
<path id="font_0_1" d="M-.006011963 0H.14898682L.20698548 .12890625H.5169983L.57398989 0H.73399356L.4269867 .7001953H.30099488L-.006011963 0M.32598878 .39598084C.33499146 .41799928 .35899354 .4910431 .36698915 .49305726 .375 .46502687 .3829956 .4420166 .3929901 .41799928L.45599366 .26190187H.2649994L.32598878 .39598084Z"/>
<path id="font_0_7" d="M.7220001 0V.7001953H.57499697V.3320923C.57499697 .30607606 .5779877 .26707459 .5799866 .24105835 .57099917 .24206543 .526001 .312088 .5159912 .32608033L.20899964 .7001953H.07598877V0H.22299195V.36408998C.22299195 .39109803 .22099304 .43011476 .21798706 .4591217 .22698975 .4551239 .27999879 .3771057 .2939911 .36109925L.58799746 0H.7220001Z"/>
<path id="font_0_4" d="M.4139862-.0126953129C.548996-.0126953129 .6499939 .03929138 .71699526 .108291629V.3935547H.3869934V.26441957H.57699587V.17634583C.519989 .13931275 .46099855 .12930298 .41600038 .12930298 .2919922 .12930298 .20498657 .2133789 .20498657 .34950257 .20498657 .4852295 .2919922 .56892397 .41600038 .56892397 .48098756 .56892397 .5349884 .5509949 .5799866 .51213076L.6759949 .6069336C.61099246 .66893008 .5239868 .7109375 .4139862 .7109375 .19999695 .7109375 .04499817 .5629425 .04499817 .34950257 .04499817 .13630677 .19999695-.0126953129 .4139862-.0126953129Z"/>
<path id="font_0_8" d="M.4079895 .7080078C.19599915 .7080078 .040985109 .56100466 .040985109 .35009767 .040985109 .13917542 .19400025-.0078125 .4079895-.0078125 .62098696-.0078125 .776001 .13917542 .776001 .35009767 .776001 .56100466 .6230011 .7080078 .4079895 .7080078M.4079895 .13317871C.28599549 .13317871 .20098877 .21614075 .20098877 .35009767 .20098877 .48503114 .28599549 .56700137 .4079895 .56700137 .5309906 .56700137 .6159973 .48503114 .6159973 .35009767 .6159973 .21614075 .5309906 .13317871 .4079895 .13317871Z"/>
</defs>
<g id="layer_1" data-name="Layer 1">
<use data-text="U" xlink:href="#font_0_11" transform="matrix(26,0,0,-26,150.9144,42.898408)" fill="#0e47bb"/>
<use data-text="Z" xlink:href="#font_0_12" transform="matrix(26,0,0,-26,173.89838,42.898408)" fill="#0e47bb"/>
<use data-text="B" xlink:href="#font_0_2" transform="matrix(26,0,0,-26,194.6464,42.898408)" fill="#0e47bb"/>
<use data-text="E" xlink:href="#font_0_3" transform="matrix(26,0,0,-26,216.6684,42.898408)" fill="#0e47bb"/>
<use data-text="K" xlink:href="#font_0_6" transform="matrix(26,0,0,-26,238.17041,42.898408)" fill="#0e47bb"/>
<use data-text="I" xlink:href="#font_0_5" transform="matrix(26,0,0,-26,260.5304,42.898408)" fill="#0e47bb"/>
<use data-text="S" xlink:href="#font_0_9" transform="matrix(26,0,0,-26,272.4644,42.898408)" fill="#0e47bb"/>
<use data-text="T" xlink:href="#font_0_10" transform="matrix(26,0,0,-26,293.7584,42.898408)" fill="#0e47bb"/>
<use data-text="A" xlink:href="#font_0_1" transform="matrix(26,0,0,-26,311.5918,42.898408)" fill="#0e47bb"/>
<use data-text="N" xlink:href="#font_0_7" transform="matrix(26,0,0,-26,334.0298,42.898408)" fill="#0e47bb"/>
<use data-text="I" xlink:href="#font_0_5" transform="matrix(54,0,0,-54,-2.3404999,42.898408)" fill="#0e47bb"/>
<use data-text="N" xlink:href="#font_0_7" transform="matrix(54,0,0,-54,16.829499,42.898408)" fill="#0e47bb"/>
<use data-text="G" xlink:href="#font_0_4" transform="matrix(54,0,0,-54,61.595499,42.898408)" fill="#0e47bb"/>
<use data-text="O" xlink:href="#font_0_8" transform="matrix(54,0,0,-54,105.3355,42.898408)" fill="#0e47bb"/>
</g>
</svg>
