<svg width="32" height="32" viewBox="0 0 32 32" fill="none" xmlns="http://www.w3.org/2000/svg">
<rect width="32" height="32" rx="16" fill="#737373"/>
<path d="M12.6677 16C12.6677 14.1591 14.1596 12.6664 16.0005 12.6664C17.8414 12.6664 19.3341 14.1591 19.3341 16C19.3341 17.8409 17.8414 19.3336 16.0005 19.3336C14.1596 19.3336 12.6677 17.8409 12.6677 16ZM10.8656 16C10.8656 18.836 13.1645 21.1349 16.0005 21.1349C18.8365 21.1349 21.1354 18.836 21.1354 16C21.1354 13.164 18.8365 10.8651 16.0005 10.8651C13.1645 10.8651 10.8656 13.164 10.8656 16ZM20.1386 10.6615C20.1386 10.8989 20.2088 11.1309 20.3406 11.3283C20.4724 11.5257 20.6597 11.6796 20.879 11.7705C21.0982 11.8614 21.3395 11.8852 21.5723 11.839C21.8051 11.7928 22.0189 11.6786 22.1868 11.5109C22.3547 11.3431 22.4691 11.1293 22.5155 10.8966C22.5619 10.6638 22.5382 10.4225 22.4475 10.2032C22.3567 9.98392 22.203 9.79644 22.0057 9.6645C21.8084 9.53257 21.5765 9.4621 21.3391 9.462H21.3386C21.0205 9.46215 20.7154 9.58856 20.4905 9.81347C20.2655 10.0384 20.1389 10.3434 20.1386 10.6615V10.6615ZM11.9605 24.1398C10.9855 24.0954 10.4556 23.933 10.1034 23.7958C9.63657 23.614 9.30345 23.3975 8.95321 23.0478C8.60297 22.698 8.38617 22.3652 8.20521 21.8983C8.06793 21.5463 7.90553 21.0162 7.86121 20.0413C7.81273 18.9872 7.80305 18.6706 7.80305 16.0001C7.80305 13.3296 7.81353 13.0138 7.86121 11.9589C7.90561 10.9839 8.06921 10.4549 8.20521 10.1018C8.38697 9.63496 8.60345 9.30184 8.95321 8.9516C9.30297 8.60136 9.63577 8.38456 10.1034 8.2036C10.4554 8.06632 10.9855 7.90392 11.9605 7.8596C13.0146 7.81112 13.3312 7.80144 16.0005 7.80144C18.6698 7.80144 18.9867 7.81192 20.0417 7.8596C21.0166 7.904 21.5457 8.0676 21.8987 8.2036C22.3656 8.38456 22.6987 8.60184 23.049 8.9516C23.3992 9.30136 23.6152 9.63496 23.797 10.1018C23.9342 10.4538 24.0966 10.9839 24.141 11.9589C24.1894 13.0138 24.1991 13.3296 24.1991 16.0001C24.1991 18.6706 24.1894 18.9863 24.141 20.0413C24.0966 21.0162 23.9334 21.5462 23.797 21.8983C23.6152 22.3652 23.3987 22.6983 23.049 23.0478C22.6992 23.3972 22.3656 23.614 21.8987 23.7958C21.5467 23.933 21.0166 24.0954 20.0417 24.1398C18.9876 24.1882 18.671 24.1979 16.0005 24.1979C13.33 24.1979 13.0142 24.1882 11.9605 24.1398V24.1398ZM11.8777 6.06056C10.8131 6.10904 10.0857 6.27784 9.45041 6.52504C8.79249 6.78032 8.23553 7.1228 7.67897 7.67848C7.12241 8.23416 6.78081 8.792 6.52553 9.44992C6.27833 10.0856 6.10953 10.8126 6.06105 11.8772C6.01177 12.9434 6.00049 13.2843 6.00049 16C6.00049 18.7157 6.01177 19.0566 6.06105 20.1228C6.10953 21.1874 6.27833 21.9144 6.52553 22.5501C6.78081 23.2076 7.12249 23.7661 7.67897 24.3215C8.23545 24.877 8.79249 25.219 9.45041 25.475C10.0869 25.7222 10.8131 25.891 11.8777 25.9394C12.9445 25.9879 13.2848 26 16.0005 26C18.7162 26 19.057 25.9887 20.1233 25.9394C21.1879 25.891 21.9149 25.7222 22.5506 25.475C23.2081 25.219 23.7654 24.8772 24.322 24.3215C24.8786 23.7658 25.2194 23.2076 25.4754 22.5501C25.7226 21.9144 25.8922 21.1874 25.9399 20.1228C25.9884 19.0558 25.9997 18.7157 25.9997 16C25.9997 13.2843 25.9884 12.9434 25.9399 11.8772C25.8914 10.8126 25.7226 10.0852 25.4754 9.44992C25.2194 8.7924 24.8777 8.23504 24.322 7.67848C23.7663 7.12192 23.2081 6.78032 22.5514 6.52504C21.9149 6.27784 21.1878 6.10824 20.1241 6.06056C19.0578 6.01208 18.717 6 16.0013 6C13.2856 6 12.9445 6.01128 11.8777 6.06056Z" fill="white"/>
</svg>
