<svg width="15" height="18" viewBox="0 0 15 18" fill="none" xmlns="http://www.w3.org/2000/svg">
<path fill-rule="evenodd" clip-rule="evenodd" d="M7.49946 1.26119C3.92759 1.26119 1.03543 4.14745 1.03543 7.70386C1.03543 9.96955 2.39768 12.2344 3.9499 13.962C4.72013 14.8193 5.52202 15.5272 6.19293 16.0177C6.52879 16.2633 6.82614 16.4503 7.06569 16.574C7.32342 16.7071 7.46176 16.7388 7.49946 16.7388C7.53716 16.7388 7.67551 16.7071 7.93328 16.574C8.17285 16.4503 8.47024 16.2633 8.80614 16.0177C9.47713 15.5271 10.2791 14.8193 11.0495 13.962C12.6019 12.2344 13.9644 9.96953 13.9644 7.70386C13.9644 4.14752 11.0714 1.26119 7.49946 1.26119ZM0.274902 7.70386C0.274902 3.72429 3.51033 0.5 7.49946 0.5C11.4885 0.5 14.7249 3.72422 14.7249 7.70386C14.7249 10.2513 13.2116 12.6942 11.6149 14.471C10.8107 15.366 9.96978 16.1096 9.25476 16.6324C8.89766 16.8935 8.56627 17.1037 8.28195 17.2505C8.01584 17.3879 7.73519 17.5 7.49946 17.5C7.26371 17.5 6.98308 17.3879 6.71698 17.2505C6.43269 17.1037 6.10134 16.8935 5.74428 16.6324C5.02934 16.1096 4.18852 15.366 3.3844 14.471C1.78791 12.6941 0.274902 10.2513 0.274902 7.70386ZM4.83806 7.73181C4.83806 6.25991 6.02976 5.06716 7.50037 5.06716C8.97015 5.06716 10.1617 6.26001 10.1617 7.73181C10.1617 9.20278 8.97004 10.3955 7.50037 10.3955C6.02986 10.3955 4.83806 9.20288 4.83806 7.73181ZM7.50037 5.82836C6.44979 5.82836 5.59859 6.68031 5.59859 7.73181C5.59859 8.78228 6.44969 9.63433 7.50037 9.63433C8.55002 9.63433 9.40122 8.78238 9.40122 7.73181C9.40122 6.68021 8.54992 5.82836 7.50037 5.82836Z" fill="#9DA1AF"/>
</svg>
