<svg width="12" height="13" viewBox="0 0 12 13" fill="none" xmlns="http://www.w3.org/2000/svg">
<path d="M1.58029 9.34147C2.04438 10.1422 2.69752 10.8184 3.4832 11.3114C4.26888 11.8044 5.16344 12.0995 6.08947 12.1711C7.01549 12.2427 7.9451 12.0886 8.79786 11.7223C9.65062 11.3559 10.4008 10.7883 10.9836 10.0685C8.66533 9.18255 7.25111 8.09615 6.40355 6.4857C5.54536 4.85568 5.3087 3.09527 5.7812 0.854009C5.04583 0.950995 4.33176 1.19061 3.67256 1.56958C2.35961 2.3241 1.40158 3.56678 1.0092 5.02428C0.61683 6.48178 0.822256 8.03471 1.58029 9.34147ZM9.79867 12.1312C8.94342 12.6217 7.98764 12.9131 7.00307 12.9833C6.01851 13.0536 5.03074 12.901 4.11391 12.537C3.19708 12.173 2.37501 11.607 1.7094 10.8815C1.04379 10.1561 0.551938 9.29 0.270761 8.34829C-0.0104151 7.40658 -0.0736122 6.41371 0.0859156 5.44422C0.245443 4.47472 0.62355 3.55379 1.19186 2.75053C1.76016 1.94728 2.5039 1.28258 3.36725 0.806327C4.23059 0.330073 5.19112 0.0546391 6.17672 0.000698932C6.25313 -0.00337439 6.32943 0.0103986 6.39953 0.0409167C6.46964 0.0714349 6.53159 0.117852 6.58045 0.176457C6.62931 0.235063 6.66372 0.304232 6.68092 0.378435C6.69812 0.452638 6.69764 0.529817 6.67952 0.603803C6.11612 2.90049 6.32412 4.57695 7.12991 6.10753C7.89475 7.5615 9.21317 8.577 11.6748 9.45476C11.7454 9.47983 11.8094 9.52073 11.8616 9.57431C11.9139 9.62788 11.9531 9.69268 11.9762 9.76372C11.9993 9.83476 12.0057 9.91014 11.9949 9.98403C11.9841 10.0579 11.9564 10.1284 11.9139 10.1899C11.3631 10.9852 10.6407 11.6479 9.79949 12.1296L9.79867 12.1312Z" fill="#F1F2F4"/>
</svg>
