<svg width="32" height="32" viewBox="0 0 32 32" fill="none" xmlns="http://www.w3.org/2000/svg">
<rect width="32" height="32" rx="16" fill="#737373"/>
<path d="M15.9999 8.55978C17.257 8.55978 18.2795 9.58232 18.2795 10.8394C18.2795 12.0954 17.2567 13.118 15.9999 13.118C14.7436 13.118 13.7208 12.0954 13.7208 10.8394C13.7205 9.58205 14.7438 8.55978 15.9999 8.55978ZM15.9999 16.3432C19.0364 16.3432 21.5057 13.8746 21.5057 10.8394C21.5057 7.80264 19.0366 5.33301 15.9999 5.33301C12.9636 5.33301 10.494 7.8029 10.494 10.8394C10.494 13.8746 12.9636 16.3432 15.9999 16.3432ZM18.2273 20.8341C19.3599 20.5762 20.4408 20.1286 21.4243 19.5104C21.7864 19.2826 22.0431 18.9203 22.138 18.5032C22.233 18.0861 22.1583 17.6484 21.9306 17.2864C21.8179 17.1069 21.671 16.9514 21.4982 16.8288C21.3254 16.7062 21.1301 16.6188 20.9235 16.5717C20.717 16.5246 20.5031 16.5187 20.2942 16.5544C20.0854 16.59 19.8856 16.6664 19.7063 16.7793C17.4507 18.1974 14.5475 18.1964 12.2937 16.7793C12.1144 16.6664 11.9147 16.5899 11.7058 16.5543C11.497 16.5187 11.2831 16.5246 11.0766 16.5717C10.87 16.6187 10.6747 16.7061 10.502 16.8288C10.3292 16.9514 10.1823 17.1069 10.0697 17.2864C9.84185 17.6483 9.7671 18.086 9.86189 18.503C9.95668 18.9201 10.2133 19.2825 10.5752 19.5104C11.5586 20.1284 12.6392 20.5759 13.7716 20.8341L10.6938 23.9125C10.3913 24.2151 10.2214 24.6254 10.2215 25.0533C10.2216 25.4811 10.3916 25.8914 10.6942 26.1939C10.9967 26.4963 11.4071 26.6662 11.8349 26.6661C12.2627 26.6661 12.673 26.496 12.9755 26.1935L15.9993 23.1691L19.025 26.1937C19.1746 26.3435 19.3523 26.4624 19.5479 26.5435C19.7435 26.6246 19.9531 26.6663 20.1648 26.6663C20.3766 26.6663 20.5862 26.6246 20.7818 26.5435C20.9774 26.4624 21.1551 26.3435 21.3047 26.1937C21.4547 26.0441 21.5737 25.8664 21.655 25.6707C21.7362 25.4751 21.778 25.2653 21.778 25.0534C21.778 24.8415 21.7362 24.6317 21.655 24.4361C21.5737 24.2404 21.4547 24.0626 21.3047 23.9131L18.2273 20.8341Z" fill="white"/>
</svg>
