<svg width="13" height="17" viewBox="0 0 13 17" fill="none" xmlns="http://www.w3.org/2000/svg">
<path fill-rule="evenodd" clip-rule="evenodd" d="M2.79621 4.96089C2.79649 2.79829 4.55016 1.0457 6.71265 1.0457C8.87539 1.0457 10.6283 2.79865 10.6283 4.9614C10.6283 7.12407 8.87547 8.87785 6.71265 8.87785H6.68719L6.68616 8.87784C4.53101 8.87054 2.78919 7.11659 2.79621 4.96089ZM6.71265 1.65285C4.88514 1.65285 3.40335 3.13405 3.40335 4.9614L3.40335 4.96243C3.39718 6.78305 4.8681 8.26428 6.68775 8.2707H6.71265C8.53999 8.2707 10.0212 6.78892 10.0212 4.9614C10.0212 3.13397 8.54007 1.65285 6.71265 1.65285ZM2.58709 11.727C3.68337 11.3614 5.15881 11.2457 6.71264 11.2457C8.27538 11.2457 9.75097 11.3658 10.8453 11.736C11.3941 11.9216 11.8693 12.1773 12.21 12.5325C12.5578 12.895 12.7533 13.3493 12.7533 13.8951C12.7533 14.4415 12.5562 14.8952 12.2066 15.2562C11.8643 15.6097 11.3874 15.863 10.8379 16.0463C9.74176 16.412 8.26651 16.5278 6.71264 16.5278C5.14993 16.5278 3.67416 16.4079 2.5796 16.0379C2.03078 15.8523 1.55548 15.5966 1.21468 15.2414C0.86678 14.8788 0.671191 14.4244 0.671191 13.8784C0.671191 13.3318 0.868332 12.878 1.21804 12.517C1.56044 12.1635 2.03747 11.9102 2.58709 11.727ZM1.65413 12.9394C1.41157 13.1899 1.27833 13.4932 1.27833 13.8784C1.27833 14.2644 1.41102 14.5691 1.65278 14.8211C1.90163 15.0805 2.27736 15.2948 2.77406 15.4627C3.77052 15.7996 5.16368 15.9207 6.71264 15.9207C8.25368 15.9207 9.64699 15.8035 10.6457 15.4704C11.1436 15.3043 11.5207 15.0917 11.7705 14.8338C12.013 14.5834 12.1462 14.2802 12.1462 13.8951C12.1462 13.5094 12.0136 13.2047 11.7718 12.9528C11.5231 12.6934 11.1474 12.4791 10.6508 12.3111C9.65454 11.9741 8.26157 11.8528 6.71264 11.8528C5.17157 11.8528 3.77807 11.9698 2.77914 12.3029C2.28115 12.469 1.904 12.6815 1.65413 12.9394Z" fill="#9DA1AF"/>
<path fill-rule="evenodd" clip-rule="evenodd" d="M2.68996 4.96071C2.69034 2.73949 4.49157 0.939453 6.71265 0.939453C8.93407 0.939453 10.7346 2.73997 10.7346 4.9614C10.7346 7.18272 8.93418 8.9841 6.71265 8.9841H6.68719L6.686 8.98409C4.47219 8.97659 2.68283 7.17498 2.68996 4.96071ZM6.71265 1.15195C4.6088 1.15195 2.90273 2.85701 2.90246 4.9609C2.89563 7.05789 4.58996 8.76438 6.68633 8.7716C6.68627 8.7716 6.6864 8.7716 6.68633 8.7716M6.68736 8.7716H6.71265C8.81676 8.7716 10.5221 7.06542 10.5221 4.9614C10.5221 2.85733 8.81671 1.15195 6.71265 1.15195M6.68736 8.7716L6.68633 8.7716L6.68736 8.7716ZM6.71265 1.7591C4.94379 1.7591 3.5096 3.19276 3.5096 4.9614L3.5096 4.96262C3.50363 6.72451 4.92705 8.15812 6.6879 8.16445C6.68783 8.16445 6.68798 8.16445 6.6879 8.16445H6.71265C8.48128 8.16445 9.91494 6.73027 9.91494 4.9614C9.91494 3.19265 8.48139 1.7591 6.71265 1.7591ZM3.29711 4.9614C3.29711 3.07534 4.82649 1.5466 6.71265 1.5466C8.59875 1.5466 10.1274 3.07529 10.1274 4.9614C10.1274 6.84757 8.5987 8.37695 6.71265 8.37695H6.68775C4.80943 8.37033 3.29077 6.84137 3.2971 4.96213M2.55348 11.6262C3.66679 11.2549 5.15656 11.1395 6.71264 11.1395C8.27781 11.1395 9.76785 11.2594 10.8794 11.6353C11.4372 11.824 11.9299 12.087 12.2867 12.4589C12.653 12.8408 12.8596 13.3213 12.8596 13.8951C12.8596 14.4698 12.6513 14.9498 12.2829 15.3301C11.9244 15.7003 11.43 15.9608 10.8715 16.1471C9.75835 16.5184 8.26876 16.6341 6.71264 16.6341C5.14752 16.6341 3.65729 16.5144 2.54557 16.1385C1.98763 15.9499 1.4949 15.687 1.13801 15.315C0.771541 14.933 0.564941 14.4524 0.564941 13.8784C0.564941 13.3036 0.77327 12.8235 1.14172 12.4431C1.50032 12.0729 1.99482 11.8124 2.55348 11.6262ZM6.71264 11.352C5.16105 11.352 3.69995 11.4679 2.6207 11.8277C2.08011 12.008 1.62056 12.2542 1.29435 12.5909C0.963393 12.9326 0.777441 13.3601 0.777441 13.8784C0.777441 14.3964 0.962018 14.8246 1.29134 15.1679C1.61605 15.5063 2.07393 15.7547 2.61363 15.9372C3.69103 16.3015 5.15235 16.4216 6.71264 16.4216C8.26425 16.4216 9.72517 16.3055 10.8042 15.9455C11.3447 15.7652 11.8042 15.519 12.1303 15.1823C12.4612 14.8407 12.6471 14.4133 12.6471 13.8951C12.6471 13.3774 12.4625 12.9492 12.1333 12.606C11.8087 12.2676 11.3509 12.0192 10.8113 11.8366C9.73409 11.4723 8.27295 11.352 6.71264 11.352ZM6.71264 11.9591C5.17379 11.9591 3.79464 12.0763 2.81275 12.4037C2.3238 12.5668 1.96413 12.7721 1.73045 13.0134C1.50664 13.2444 1.38458 13.5214 1.38458 13.8784C1.38458 14.2364 1.50627 14.5149 1.72945 14.7475C1.96221 14.9901 2.32052 15.1972 2.80809 15.362C3.78737 15.6931 5.16608 15.8145 6.71264 15.8145C8.25145 15.8145 9.63041 15.6971 10.6121 15.3696C11.101 15.2065 11.4605 15.0011 11.6942 14.7599C11.9179 14.5289 12.0399 14.252 12.0399 13.8951C12.0399 13.5374 11.9183 13.2589 11.6952 13.0263C11.4625 12.7837 11.1042 12.5767 10.6168 12.4118C9.63767 12.0806 8.25917 11.9591 6.71264 11.9591ZM2.74553 12.2021C3.76151 11.8634 5.16935 11.7466 6.71264 11.7466C8.26398 11.7466 9.67141 11.8677 10.6849 12.2105C11.1906 12.3815 11.5836 12.6031 11.8485 12.8792C12.1088 13.1505 12.2524 13.4814 12.2524 13.8951C12.2524 14.3084 12.1081 14.638 11.8468 14.9077C11.5808 15.1824 11.1863 15.402 10.6793 15.5711C9.66357 15.91 8.25591 16.027 6.71264 16.027C5.16129 16.027 3.75366 15.9061 2.74003 15.5634C2.23421 15.3923 1.84106 15.1708 1.57611 14.8946C1.31577 14.6233 1.17208 14.2924 1.17208 13.8784C1.17208 13.4649 1.31649 13.1353 1.57782 12.8655C1.84388 12.5908 2.23851 12.3712 2.74553 12.2021Z" fill="#9DA1AF"/>
</svg>
