<svg width="12" height="18" viewBox="0 0 12 18" fill="none" xmlns="http://www.w3.org/2000/svg">
<path d="M2.14337 18C2.53152 18 2.85 17.8602 3.10877 17.6007L10.7424 10.1231C11.0808 9.78369 11.25 9.43428 11.25 9.00499C11.25 8.57571 11.0908 8.21631 10.7424 7.88686L3.10877 0.399334C2.84005 0.139767 2.52156 0 2.14337 0C1.37701 0 0.75 0.618968 0.75 1.38769C0.75 1.76705 0.909242 2.12646 1.18791 2.40599L7.95569 9.00499L1.18791 15.594C0.909242 15.8735 0.75 16.2329 0.75 16.6123C0.75 17.381 1.37701 18 2.14337 18Z" fill="white"/>
</svg>
