<svg width="17" height="17" viewBox="0 0 17 17" fill="none" xmlns="http://www.w3.org/2000/svg">
<path fill-rule="evenodd" clip-rule="evenodd" d="M7.38271 1.33387C4.0423 1.33387 1.33436 4.04181 1.33436 7.38222C1.33436 10.7226 4.0423 13.4306 7.38271 13.4306C10.7231 13.4306 13.4311 10.7226 13.4311 7.38222C13.4311 4.04181 10.7231 1.33387 7.38271 1.33387ZM0.786426 7.38222C0.786426 3.73919 3.73968 0.785937 7.38271 0.785937C11.0257 0.785937 13.979 3.73919 13.979 7.38222C13.979 9.11412 13.3115 10.6901 12.2198 11.867C12.2557 11.8803 12.2893 11.9014 12.3182 11.9302L16.0062 15.6182C16.1132 15.7252 16.1132 15.8987 16.0062 16.0057C15.8992 16.1127 15.7257 16.1127 15.6187 16.0057L11.9307 12.3177C11.9019 12.2888 11.8808 12.2552 11.8675 12.2193C10.6906 13.311 9.11461 13.9785 7.38271 13.9785C3.73968 13.9785 0.786426 11.0252 0.786426 7.38222Z" fill="#9DA1AF"/>
<path fill-rule="evenodd" clip-rule="evenodd" d="M0.680176 7.38222C0.680176 3.68051 3.681 0.679688 7.38271 0.679688C11.0844 0.679688 14.0852 3.68051 14.0852 7.38222C14.0852 9.09628 13.4417 10.6603 12.3832 11.8454C12.3866 11.8485 12.39 11.8518 12.3933 11.8551L16.0813 15.5431C16.2298 15.6916 16.2298 15.9323 16.0813 16.0808C15.9328 16.2293 15.6921 16.2293 15.5436 16.0808L11.8556 12.3928C11.8523 12.3895 11.849 12.3861 11.8459 12.3827C10.6608 13.4412 9.09677 14.0847 7.38271 14.0847C3.681 14.0847 0.680176 11.0839 0.680176 7.38222ZM7.38271 0.892187C3.79836 0.892187 0.892676 3.79787 0.892676 7.38222C0.892676 10.9666 3.79836 13.8722 7.38271 13.8722C9.08677 13.8722 10.6372 13.2156 11.7953 12.1414C11.8213 12.1173 11.8577 12.1077 11.8922 12.116C11.9267 12.1242 11.9548 12.1491 11.9672 12.1824C11.9753 12.2042 11.9881 12.2248 12.0058 12.2425L15.6939 15.9306C15.7594 15.9961 15.8656 15.9961 15.9311 15.9306C15.9965 15.8651 15.9965 15.7589 15.9311 15.6934L12.243 12.0054C12.2252 11.9876 12.2047 11.9748 12.1829 11.9667C12.1496 11.9543 12.1247 11.9262 12.1165 11.8917C12.1082 11.8572 12.1178 11.8208 12.1419 11.7948C13.2161 10.6367 13.8727 9.08628 13.8727 7.38222C13.8727 3.79787 10.9671 0.892187 7.38271 0.892187ZM7.38271 1.44012C4.10098 1.44012 1.44061 4.10049 1.44061 7.38222C1.44061 10.6639 4.10098 13.3243 7.38271 13.3243C10.6644 13.3243 13.3248 10.6639 13.3248 7.38222C13.3248 4.10049 10.6644 1.44012 7.38271 1.44012ZM1.22811 7.38222C1.22811 3.98313 3.98362 1.22762 7.38271 1.22762C10.7818 1.22762 13.5373 3.98313 13.5373 7.38222C13.5373 10.7813 10.7818 13.5368 7.38271 13.5368C3.98362 13.5368 1.22811 10.7813 1.22811 7.38222Z" fill="#9DA1AF"/>
</svg>
