<svg width="32" height="32" viewBox="0 0 32 32" fill="none" xmlns="http://www.w3.org/2000/svg">
<rect width="32" height="32" rx="16" fill="#737373"/>
<path fill-rule="evenodd" clip-rule="evenodd" d="M26.1774 11.0229C26.3257 10.5285 26.1774 10.165 25.4715 10.165H23.1377C22.5442 10.165 22.2708 10.4789 22.1224 10.8252C22.1224 10.8252 20.9355 13.718 19.2541 15.5971C18.7101 16.1411 18.4629 16.314 18.1662 16.314C18.0178 16.314 17.8031 16.1411 17.8031 15.6467V11.0229C17.8031 10.4294 17.6309 10.165 17.1363 10.165H13.4687C13.098 10.165 12.8749 10.4404 12.8749 10.7015C12.8749 11.2641 13.7155 11.3938 13.8021 12.9762V16.4132C13.8021 17.1667 13.6661 17.3034 13.3694 17.3034C12.5782 17.3034 10.6537 14.3974 9.51214 11.0724C9.28842 10.4261 9.06403 10.165 8.46756 10.165H6.13368C5.46686 10.165 5.3335 10.4789 5.3335 10.8252C5.3335 11.4433 6.12485 14.5094 9.01769 18.5643C10.9465 21.3333 13.6634 22.8347 16.136 22.8347C17.6197 22.8347 17.8031 22.5013 17.8031 21.927V19.834C17.8031 19.1671 17.9436 19.0341 18.4132 19.0341C18.7596 19.0341 19.3529 19.2072 20.7378 20.5423C22.3201 22.1245 22.5809 22.8347 23.4711 22.8347H25.8049C26.4718 22.8347 26.8052 22.5013 26.6128 21.8433C26.4024 21.1874 25.6469 20.2362 24.6443 19.1083C24.1004 18.4653 23.2844 17.773 23.0373 17.4269C22.691 16.9818 22.7899 16.7841 23.0373 16.3887C23.0373 16.3887 25.8806 12.3831 26.1774 11.0231V11.0229Z" fill="white"/>
</svg>
