<svg width="17" height="17" viewBox="0 0 17 17" fill="none" xmlns="http://www.w3.org/2000/svg">
<path fill-rule="evenodd" clip-rule="evenodd" d="M8.7126 1.29939C4.85245 1.29939 1.72371 4.42813 1.72371 8.28828C1.72371 12.1477 4.85248 15.2772 8.7126 15.2772C12.5719 15.2772 15.7015 12.1476 15.7015 8.28828C15.7015 4.42816 12.572 1.29939 8.7126 1.29939ZM0.850098 8.28828C0.850098 3.94565 4.36996 0.425781 8.7126 0.425781C13.0544 0.425781 16.5751 3.94562 16.5751 8.28828C16.5751 12.6301 13.0544 16.1508 8.7126 16.1508C4.36993 16.1508 0.850098 12.6301 0.850098 8.28828ZM8.7126 4.79384C8.95384 4.79384 9.1494 4.9894 9.1494 5.23064V8.72509C9.1494 8.96633 8.95384 9.16189 8.7126 9.16189C8.47136 9.16189 8.27579 8.96633 8.27579 8.72509V5.23064C8.27579 4.9894 8.47136 4.79384 8.7126 4.79384ZM8.27142 11.1275C8.27142 10.8863 8.46699 10.6907 8.70823 10.6907H8.71697C8.95821 10.6907 9.15377 10.8863 9.15377 11.1275C9.15377 11.3688 8.95821 11.5643 8.71697 11.5643H8.70823C8.46699 11.5643 8.27142 11.3688 8.27142 11.1275Z" fill="#165AB7"/>
</svg>
