<svg width="32" height="32" viewBox="0 0 32 32" fill="none" xmlns="http://www.w3.org/2000/svg">
<rect width="32" height="32" rx="16" fill="#737373"/>
<path fill-rule="evenodd" clip-rule="evenodd" d="M23.8253 9.42638C24.682 9.65702 25.3574 10.3325 25.5881 11.1891C26.0164 12.7542 25.9999 16.0161 25.9999 16.0161C25.9999 16.0161 25.9999 19.2616 25.5881 20.8267C25.3574 21.6833 24.682 22.3588 23.8253 22.5894C22.2602 23.0013 16 23.0013 16 23.0013C16 23.0013 9.75616 23.0013 8.17462 22.5729C7.31795 22.3423 6.6425 21.6669 6.41186 20.8102C6 19.2616 6 15.9997 6 15.9997C6 15.9997 6 12.7542 6.41186 11.1891C6.6425 10.3325 7.33443 9.64055 8.17462 9.40991C9.73969 8.99805 16 8.99805 16 8.99805C16 8.99805 22.2602 8.99805 23.8253 9.42638ZM19.2125 15.9997L14.0066 18.998V13.0014L19.2125 15.9997Z" fill="white"/>
</svg>
