<svg xmlns="http://www.w3.org/2000/svg" xmlns:xlink="http://www.w3.org/1999/xlink" version="1.1" width="523.701pt" height="372.76pt" viewBox="0 0 523.701 372.76">
<defs>
<clipPath id="clip_0">
<path transform="matrix(1,0,0,-1,0,372.76)" d="M0 372.76H523.701V0H0Z"/>
</clipPath>
<path id="font_1_10" d="M.55400088 .7001953 .4269867 .4210968C.41999818 .40509034 .4039917 .35507203 .3929901 .35206605 .3809967 .3770752 .37199403 .3940735 .34700013 .43710328L.18798828 .7001953H-.010009766L.31900025 .18600464C.2999878 .14900208 .27999879 .13798523 .2630005 .13798523 .24499512 .13798523 .22999573 .1459961 .21899414 .16099549L.12399292 .07499695C.1659851 .016998291 .22399903 0 .2659912 0 .3600006 0 .42199708 .06399536 .46998597 .16400147L.72499087 .7001953H.55400088Z"/>
<path id="font_1_9" d="M.33198548-.01171875C.5089874-.01171875 .6279907 .074279788 .6279907 .20713806 .6279907 .2740326 .58699038 .35498048 .49198915 .36997987 .5669861 .39997865 .6049957 .45402528 .6049957 .516098 .6049957 .63716128 .5149994 .7141571 .32598878 .7141571 .18598938 .7141571 .09298706 .66116335 .021987915 .5901642L.10398865 .48205567C.16299439 .5401306 .23399353 .5761719 .32299806 .5761719 .37399293 .5761719 .43798829 .55514529 .43798829 .4980774 .43798829 .45503236 .397995 .4169922 .31199647 .4169922H.20899964V.2989807H.31799317C.4169922 .2989807 .46199037 .2640381 .46199037 .20812989 .46199037 .16720581 .41999818 .12626648 .32398988 .12626648 .22999573 .12626648 .15899658 .16819763 .10398865 .23210144L.010986328 .13127136C.084991458 .03227234 .18699646-.01171875 .33198548-.01171875Z"/>
<path id="font_1_8" d="M.61099246 .7001953H.07598877V0H.36898805C.5549927 0 .6599884 .06498718 .6599884 .22123719 .6599884 .36546327 .5799866 .4364624 .41600038 .4364624H.23799134V.56718447H.61099246V.7001953M.37098695 .31347657C.46099855 .31347657 .49299623 .27537538 .49299623 .2202301 .49299623 .15907288 .45498658 .12799073 .36499024 .12799073H.23799134V.31347657H.37098695Z"/>
<path id="font_1_7" d="M.07598877 0H.6369934V.1329956H.23799134V.29101563H.60198977V.41900636H.23799134V.56718447H.6279907V.7001953H.07598877V0Z"/>
<path id="font_1_6" d="M.07598877 0H.23799134V.2690735L.2679901 .30207826 .5219879 0H.7299957L.42399598 .36709596 .72898867 .7001953H.5169983L.23799134 .37609864V.7001953H.07598877V0Z"/>
<path id="font_1_5" d="M.21199036 0 .5039978 .38009645C.5189972 .4001007 .55599978 .4621277 .56599429 .4641266 .56399539 .42910768 .56399539 .4031067 .56399539 .37309266V0H.7259979V.7001953H.58799746L.29899598 .32008363C.28399659 .30007936 .24299622 .22906494 .23498535 .22705078 .23599243 .2640686 .23799134 .29707337 .23799134 .34709168V.7001953H.07598877V0H.21199036Z"/>
<path id="font_1_4" d="M.4119873 .12930298C.28799439 .12930298 .20098877 .21322632 .20098877 .3491211 .20098877 .4850006 .28799439 .56892397 .4119873 .56892397 .47698976 .56892397 .5309906 .5509491 .57598879 .51197817L.6719971 .6069336C.6069946 .66893008 .519989 .7109375 .4099884 .7109375 .19599915 .7109375 .040985109 .5629425 .040985109 .3491211 .040985109 .1362915 .19599915-.0126953129 .4099884-.0126953129 .519989-.0126953129 .6069946 .029296875 .6719971 .091293338L.57598879 .18624878C.5309906 .14727783 .47698976 .12930298 .4119873 .12930298Z"/>
<path id="font_1_3" d="M.004989624 .55718997H.23199463V0H.3939972V.55718997H.62098696V.7001953H.004989624V.55718997Z"/>
<path id="font_1_2" d="M-.006011963 0H.14898682L.20698548 .12890625H.5169983L.57398989 0H.73399356L.4269867 .7001953H.30099488L-.006011963 0M.32598878 .39598084C.33499146 .41799928 .35899354 .4910431 .36698915 .49305726 .375 .46502687 .3829956 .4420166 .3929901 .41799928L.45599366 .26190187H.2649994L.32598878 .39598084Z"/>
<path id="font_1_1" d="M.5519867 0H.71398928V.7001953H.5519867V.42729188H.23799134V.7001953H.07598877V0H.23799134V.27929688H.5519867V0Z"/>
</defs>
<g id="layer_1" data-name="Layer 1">
<path transform="matrix(1,0,0,-1,113.1871,205.3939)" d="M0 0H-8.254V24.923L-26.254 0H-34.127V38.011H-25.874V13.088L-7.763 38.011H0Z" fill="#0e47bb"/>
<path transform="matrix(1,0,0,-1,119.1891,167.3856)" d="M0 0H8.363V-15.041H25.174V0H33.532V-38.011H25.174V-22.751H8.363V-38.011H0Z" fill="#0e47bb"/>
<path transform="matrix(1,0,0,-1,167.0885,205.3939)" d="M0 0H-8.364V38.011H17.494V30.462H0Z" fill="#0e47bb"/>
<g clip-path="url(#clip_0)">
<path transform="matrix(1,0,0,-1,204.7228,198.31922)" d="M0 0C-6.724 .005-11.396 4.558-11.402 11.934-11.396 19.316-6.724 23.874 0 23.874 6.724 23.874 11.396 19.316 11.396 11.934 11.396 4.558 6.724 .005 0 0M20.136 11.934V11.945C20.131 23.519 11.72 31.48 .115 31.584H-.115C-11.72 31.48-20.131 23.519-20.141 11.945V11.934 11.929C-20.131 .35-11.72-7.602-.115-7.706H.115C11.72-7.602 20.131 .35 20.136 11.929Z" fill="#0e47bb"/>
</g>
<use data-text="&#x0423;" xlink:href="#font_1_10" transform="matrix(26,0,0,-26,228.4224,205.39041)" fill="#0e47bb"/>
<use data-text="&#x0417;" xlink:href="#font_1_9" transform="matrix(26,0,0,-26,250.5224,205.39041)" fill="#0e47bb"/>
<use data-text="&#x0411;" xlink:href="#font_1_8" transform="matrix(26,0,0,-26,271.5824,205.39041)" fill="#0e47bb"/>
<use data-text="&#x0415;" xlink:href="#font_1_7" transform="matrix(26,0,0,-26,293.2924,205.39041)" fill="#0e47bb"/>
<use data-text="&#x041a;" xlink:href="#font_1_6" transform="matrix(26,0,0,-26,314.7944,205.39041)" fill="#0e47bb"/>
<use data-text="&#x0418;" xlink:href="#font_1_5" transform="matrix(26,0,0,-26,337.15443,205.39041)" fill="#0e47bb"/>
<use data-text="&#x0421;" xlink:href="#font_1_4" transform="matrix(26,0,0,-26,361.51643,205.39041)" fill="#0e47bb"/>
<use data-text="&#x0422;" xlink:href="#font_1_3" transform="matrix(26,0,0,-26,384.1364,205.39041)" fill="#0e47bb"/>
<use data-text="&#x0410;" xlink:href="#font_1_2" transform="matrix(26,0,0,-26,401.99583,205.39041)" fill="#0e47bb"/>
<use data-text="&#x041d;" xlink:href="#font_1_1" transform="matrix(26,0,0,-26,424.4338,205.39041)" fill="#0e47bb"/>
</g>
</svg>
