<svg xmlns="http://www.w3.org/2000/svg" width="194" height="28" viewBox="0 0 194 28">
  <g id="logo" transform="translate(-20.621 -20.621)">
    <g id="Сгруппировать_2889" data-name="Сгруппировать 2889" transform="translate(54.648 25.428)">
      <path id="Контур_25069" data-name="Контур 25069" d="M146.33,38.166l7.316,17.727a14.777,14.777,0,0,1-2.951.335,10.6,10.6,0,0,1-1.691-.14l-1.414-3.545h-7.316l-1.414,3.545a17.1,17.1,0,0,1-2.09.112,7.886,7.886,0,0,1-2.428-.307l7.378-17.727A13.677,13.677,0,0,1,144.086,38,12.812,12.812,0,0,1,146.33,38.166Zm-4.642,10.916h4.488l-1.66-4.132L143.9,43.22l-.553,1.731Z" transform="translate(-134.341 -37.58)" fill="#a30041"/>
      <path id="Контур_25070" data-name="Контур 25070" d="M220.6,38a17.356,17.356,0,0,1,2.336.167V55.976a19.085,19.085,0,0,1-4.4.223l-7.624-10.19-.646-1.061.123,1.284V56.06a16.691,16.691,0,0,1-2.305.167,17.768,17.768,0,0,1-2.244-.167V38.3a9.207,9.207,0,0,1,2.121-.321,13.909,13.909,0,0,1,2.275.042l7.593,10.413.676,1.088-.123-1.423V38.165A17.074,17.074,0,0,1,220.6,38Z" transform="translate(-184.45 -37.551)" fill="#a30041"/>
      <path id="Контур_25071" data-name="Контур 25071" d="M283.291,55.618a12.11,12.11,0,0,1-4.119-.684,9.868,9.868,0,0,1-3.3-1.94,8.624,8.624,0,0,1-2.167-3.029,9.9,9.9,0,0,1,0-7.649,8.767,8.767,0,0,1,2.167-3.043,9.939,9.939,0,0,1,3.3-1.968,11.891,11.891,0,0,1,4.119-.7,12.244,12.244,0,0,1,4.135.684,9.683,9.683,0,0,1,3.3,1.94,8.73,8.73,0,0,1,2.152,3.029,9.623,9.623,0,0,1,.768,3.867,9.409,9.409,0,0,1-.768,3.782,8.771,8.771,0,0,1-2.167,3.043,9.9,9.9,0,0,1-3.32,1.968A11.938,11.938,0,0,1,283.291,55.618Zm0-3.936a5.19,5.19,0,0,0,3.9-1.521,5.547,5.547,0,0,0,1.476-4.034,5.575,5.575,0,0,0-1.476-4.076,5.809,5.809,0,0,0-7.808,0,5.576,5.576,0,0,0-1.475,4.076,5.548,5.548,0,0,0,1.475,4.034A5.19,5.19,0,0,0,283.291,51.682Z" transform="translate(-231.462 -36.607)" fill="#a30041"/>
      <path id="Контур_25072" data-name="Контур 25072" d="M363.7,48.674l4.611,6.9a17.084,17.084,0,0,1-3.873.335l-1.168-.028-4.057-6.281h-.215l-2.244-.028v6.2a12.7,12.7,0,0,1-2.275.167,14.138,14.138,0,0,1-2.337-.167V38.121q1.353-.251,3.228-.419t3.412-.167a18.681,18.681,0,0,1,3.151.265,8.2,8.2,0,0,1,2.72.935,4.909,4.909,0,0,1,2.551,4.55,6.928,6.928,0,0,1-.308,1.94,4.989,4.989,0,0,1-1.153,1.968A6.414,6.414,0,0,1,363.7,48.674Zm-6.947-7.537v5l2.428.028a3.7,3.7,0,0,0,2.521-.74,2.411,2.411,0,0,0,.83-1.884,2.179,2.179,0,0,0-.861-1.815,4.047,4.047,0,0,0-2.521-.67Q357.949,41.053,356.75,41.136Z" transform="translate(-286.969 -37.256)" fill="#a30041"/>
      <path id="Контур_25073" data-name="Контур 25073" d="M426.077,46.738a6.031,6.031,0,0,1,1.983,1.075,3.641,3.641,0,0,1,1.122,1.521,4.744,4.744,0,0,1-1.8,5.625q-2.106,1.438-6.471,1.438a38.611,38.611,0,0,1-6.517-.5V38.279a34.761,34.761,0,0,1,6.394-.558q7.839,0,7.839,5.137A3.837,3.837,0,0,1,426.077,46.738Zm-4.949-5.667q-.985,0-2.152.084V45.2h2.337a3.427,3.427,0,0,0,2.152-.545,1.939,1.939,0,0,0,.676-1.605,1.672,1.672,0,0,0-.768-1.451A3.945,3.945,0,0,0,421.128,41.071Zm.246,11.976q3.474,0,3.474-2.345A1.89,1.89,0,0,0,424,49.055a4.272,4.272,0,0,0-2.444-.586h-2.582v4.495Q420.144,53.047,421.374,53.047Z" transform="translate(-330.598 -37.386)" fill="#a30041"/>
      <path id="Контур_25074" data-name="Контур 25074" d="M478.78,38.166,486.1,55.894a14.781,14.781,0,0,1-2.951.335,10.6,10.6,0,0,1-1.691-.14l-1.414-3.545h-7.317l-1.414,3.545a17.1,17.1,0,0,1-2.09.112,7.887,7.887,0,0,1-2.429-.307l7.378-17.727A13.676,13.676,0,0,1,476.536,38,12.816,12.816,0,0,1,478.78,38.166Zm-4.642,10.916h4.488l-1.66-4.132-.615-1.731L475.8,44.95Z" transform="translate(-367.315 -37.58)" fill="#a30041"/>
      <path id="Контур_25075" data-name="Контур 25075" d="M553.05,38a17.354,17.354,0,0,1,2.336.167V55.976a19.084,19.084,0,0,1-4.4.223l-7.624-10.19-.645-1.061.123,1.284V56.06a16.685,16.685,0,0,1-2.306.167,17.766,17.766,0,0,1-2.244-.167V38.3a9.206,9.206,0,0,1,2.121-.321,13.909,13.909,0,0,1,2.275.042l7.593,10.413.676,1.088-.123-1.423V38.165A17.076,17.076,0,0,1,553.05,38Z" transform="translate(-417.424 -37.551)" fill="#a30041"/>
      <path id="Контур_25076" data-name="Контур 25076" d="M618.609,46.607,627,55.987a23.5,23.5,0,0,1-3.474.223l-2.429-.056-6.056-6.868-1.383.921v5.946a15.2,15.2,0,0,1-2.275.167,16.685,16.685,0,0,1-2.305-.167V38.259a14.383,14.383,0,0,1,2.213-.167,17.57,17.57,0,0,1,2.367.167v7.258a27.838,27.838,0,0,0,3.75-3.294,34.556,34.556,0,0,0,3.2-4.048q1.075-.083,2.305-.084a26.248,26.248,0,0,1,3.074.167A39.283,39.283,0,0,1,618.609,46.607Z" transform="translate(-467.028 -37.645)" fill="#a30041"/>
    </g>
    <g id="Сгруппировать_2894" data-name="Сгруппировать 2894" transform="translate(20.621 20.621)">
      <g id="Сгруппировать_2891" data-name="Сгруппировать 2891" transform="translate(10.847 10.899)">
        <g id="Сгруппировать_2890" data-name="Сгруппировать 2890">
          <path id="Контур_25077" data-name="Контур 25077" d="M63.043,59.969v3.1H59.957a3.093,3.093,0,0,1-3.084-3.1,3.1,3.1,0,0,1,.9-2.193,3.082,3.082,0,0,1,5.267,2.193Z" transform="translate(-56.873 -56.868)" fill="#a30041"/>
        </g>
      </g>
      <g id="Сгруппировать_2893" data-name="Сгруппировать 2893">
        <g id="Сгруппировать_2892" data-name="Сгруппировать 2892">
          <path id="Контур_25078" data-name="Контур 25078" d="M39.863,20.621H29.243a8.644,8.644,0,0,0-8.622,8.664V39.957a8.645,8.645,0,0,0,8.622,8.664H48.484V29.285A8.643,8.643,0,0,0,39.863,20.621Zm2.5,21.845H34.553a7.826,7.826,0,0,1-7.805-7.845,7.838,7.838,0,0,1,5.176-7.389V24.886a.182.182,0,0,1,.312-.128l1.253,1.279a.182.182,0,0,0,.276-.019l.643-.863a.182.182,0,0,1,.292,0l.644.863a.181.181,0,0,0,.276.019l1.254-1.279a.182.182,0,0,1,.312.128v2.346a7.842,7.842,0,0,1,5.175,7.389Z" transform="translate(-20.621 -20.621)" fill="#a30041"/>
        </g>
      </g>
    </g>
  </g>
</svg>
