<?xml version="1.0" encoding="utf-8"?>
<!-- Generator: Adobe Illustrator 23.0.2, SVG Export Plug-In . SVG Version: 6.00 Build 0)  -->
<svg version="1.1" id="Слой_1" xmlns="http://www.w3.org/2000/svg" xmlns:xlink="http://www.w3.org/1999/xlink" x="0px" y="0px"
	 viewBox="0 0 870 654.3" style="enable-background:new 0 0 870 654.3;" xml:space="preserve">
<style type="text/css">
	.st0{fill:#3F4041;}
	.st1{fill:#E41D32;}
</style>
<g id="_2062750922672">
	<path class="st0" d="M31.5,633.5l-7.8,19.9H0l44.7-108.6h12.6l44,108.6H77.6l-7.8-19.9H31.5L31.5,633.5z M50.7,583.5l-11.8,29.6
		h23.4L50.7,583.5z M145.6,574.7h1.2c6.4,0,12.5,1.3,18.4,3.9c5.8,2.6,10.5,6.1,13.9,10.5L168,599.5c-2.4-2.7-5.6-4.9-9.7-6.6
		c-4.1-1.7-7.8-2.6-11.2-2.6h-1.2c-3.6,0.1-6.5,0.8-8.7,2.2c-2.2,1.3-3.3,3.2-3.3,5.6c0,2.2,1,3.8,2.9,4.8c1.9,1,5.2,1.8,10,2.2
		l5.3,0.6c19.1,1.3,28.7,9.4,28.7,24.2c0,7-2.8,12.8-8.5,17.4c-5.7,4.6-13.2,6.9-22.6,6.9h-0.8c-7.6,0-14.8-1.4-21.6-4.1
		c-6.7-2.7-11.7-6.3-14.9-10.8l11.2-10.5c2.3,2.7,5.8,4.9,10.7,6.7c4.9,1.8,9.7,2.7,14.4,2.7h0.8c7.8,0,11.6-2.5,11.6-7.6
		c0-2.9-1-4.9-3.1-6c-2.1-1.1-5.5-1.9-10.2-2.3l-4.3-0.5c-19.4-1.7-29.2-9.2-29.2-22.5c0-7.7,3-13.6,9-18
		C129.2,577,136.6,574.8,145.6,574.7L145.6,574.7z M275.8,653.3h-13.2l-1.1-11c-6.3,8-14.9,11.9-25.7,11.9
		c-10.9,0-19.9-3.8-27.1-11.5c-7.2-7.7-10.8-17.1-10.8-28.2c0-11.2,3.6-20.6,10.8-28.3c7.2-7.7,16.2-11.6,27.1-11.6
		c10.9,0,19.4,4,25.7,12.1l1.1-11h13.2V653.3z M237.6,635.2c5.4,0,10.1-1.9,14-5.7s6-8.8,6-14.9c0-6.1-2-11.1-6-15
		c-4-3.9-8.7-5.8-14-5.8c-5.4,0-10.1,1.9-14,5.8c-4,3.9-6,8.9-6,15c0,6.1,2,11.1,5.9,14.9S232.1,635.2,237.6,635.2L237.6,635.2z
		 M356.3,653.3l-13.3-20.6c-2.5-3.8-4.7-6.4-6.6-7.8c-1.9-1.3-4.6-2-8.1-2h-5.4v30.4h-19.7V544.7h19.7V604h4.8c3.5,0,6.2-0.7,8.1-2
		c1.9-1.3,4-3.9,6.5-7.8l12.1-18.5h21.9L358.8,602c-3.9,6.1-7.6,9.9-11,11.3c3.5,1.1,7.4,5,11.8,11.6l18.6,28.4L356.3,653.3
		L356.3,653.3z M467.3,653.3h-13.2l-1.1-11c-6.3,8-14.9,11.9-25.7,11.9c-10.9,0-19.9-3.8-27.1-11.5c-7.2-7.7-10.8-17.1-10.8-28.2
		c0-11.2,3.6-20.6,10.8-28.3c7.2-7.7,16.2-11.6,27.1-11.6c10.9,0,19.4,4,25.7,12.1l1.1-11h13.2V653.3z M429.2,635.2
		c5.4,0,10.1-1.9,14-5.7c4-3.8,6-8.8,6-14.9c0-6.1-2-11.1-6-15c-4-3.9-8.7-5.8-14-5.8c-5.4,0-10.1,1.9-14,5.8c-4,3.9-6,8.9-6,15
		c0,6.1,2,11.1,5.9,14.9C419,633.3,423.7,635.2,429.2,635.2L429.2,635.2z M513.6,544.7v38.6c5.1-5.8,11.9-8.7,20.5-8.7
		c10.9,0,19.9,3.9,27,11.6c7.1,7.7,10.7,17.1,10.7,28.3c0,11.2-3.6,20.6-10.7,28.2c-7.1,7.7-16.1,11.5-27,11.5
		c-10.9,0-19.5-4-25.9-11.9l-1.1,11h-13.2V544.7H513.6L513.6,544.7z M546.1,599.6c-4-3.9-8.7-5.8-14-5.8c-5.4,0-10.1,1.9-14,5.8
		c-4,3.9-6,8.9-6,15c0,6.1,2,11.1,6,14.9c4,3.8,8.7,5.7,14,5.7c5.5,0,10.2-1.9,14.1-5.7c3.9-3.8,5.9-8.8,5.9-14.9
		C552,608.4,550,603.5,546.1,599.6L546.1,599.6z M666.8,653.3h-13.2l-1.1-11c-6.3,8-14.9,11.9-25.7,11.9s-19.9-3.8-27.1-11.5
		c-7.2-7.7-10.8-17.1-10.8-28.2c0-11.2,3.6-20.6,10.8-28.3c7.2-7.7,16.2-11.6,27.1-11.6s19.4,4,25.7,12.1l1.1-11h13.2V653.3z
		 M628.6,635.2c5.4,0,10.1-1.9,14-5.7c4-3.8,6-8.8,6-14.9c0-6.1-2-11.1-6-15c-4-3.9-8.7-5.8-14-5.8c-5.4,0-10.1,1.9-14,5.8
		c-4,3.9-6,8.9-6,15c0,6.1,2,11.1,5.9,14.9C618.5,633.3,623.2,635.2,628.6,635.2z M734.6,574.7c11,0,19.3,3.4,25.1,10.2
		c5.8,6.8,8.7,16,8.7,27.5v40.9h-19.7v-39.7c0-13.2-5.7-19.9-17.2-19.9c-5.9,0-10.4,1.8-13.7,5.4c-3.2,3.6-4.8,9-4.8,16.2v38h-19.7
		v-77.6h13.2l1.4,12.1C713.3,579.1,722.2,574.7,734.6,574.7L734.6,574.7z M848.1,653.3l-13.3-20.6c-2.5-3.8-4.7-6.4-6.6-7.8
		c-1.9-1.3-4.6-2-8.1-2h-5.4v30.4h-19.7V544.7h19.7V604h4.8c3.5,0,6.2-0.7,8.1-2c1.9-1.3,4-3.9,6.5-7.8l12.1-18.5H868L850.6,602
		c-3.9,6.1-7.6,9.9-11,11.3c3.5,1.1,7.4,5,11.8,11.6l18.6,28.4L848.1,653.3L848.1,653.3z"/>
	<g>
		<path class="st1" d="M287.6,344l-27.2,27.2c-14.3,14.3-28.6,28.6-42.9,42.9v-70l0.1-0.1H287.6z"/>
		<polygon class="st1" points="530.2,344 530.2,435 238.5,435 280.1,393.4 298.7,374.9 329.5,344 		"/>
		<path class="st1" d="M530.2,143.4v170.9h-171C415.4,258.2,473.2,200.4,530.2,143.4z"/>
		<path class="st1" d="M652.5,21v414h-92.7V113.7c16.7-16.7,33.4-33.4,50.1-50.2L652.5,21z"/>
		<path class="st1" d="M631.6,0C519.6,112.1,413.9,217.8,317.3,314.4h-70.4L557.5,0H631.6z"/>
		<polygon class="st1" points="515.8,0 217.5,301.9 217.5,0 		"/>
	</g>
</g>
</svg>
