<svg width="123" height="36" viewBox="0 0 123 36" fill="none" xmlns="http://www.w3.org/2000/svg">
<path d="M33.995 10.5099H39.7467C43.4135 10.5099 46.4427 12.6186 46.4427 17.4333V18.4449C46.4427 23.2961 43.6097 25.4779 39.857 25.4779H33.995V10.5099ZM37.2081 13.2281V22.7476H39.6731C41.7579 22.7476 43.156 21.3947 43.156 18.384V17.5917C43.156 14.581 41.6843 13.2281 39.5627 13.2281H37.2081ZM48.1473 13.3743H50.7227L51.1397 16.19C51.6302 14.2763 52.8811 13.2525 55.1499 13.2525H55.947V16.4825H54.6225C52.0104 16.4825 51.3727 17.3845 51.3727 19.9442V25.5145H48.1964V13.3743H48.1473ZM56.5847 19.6882V19.3469C56.5847 15.288 59.1969 13.0696 62.7534 13.0696C66.3834 13.0696 68.922 15.288 68.922 19.3469V19.6882C68.922 23.674 66.457 25.8192 62.7534 25.8192C58.8167 25.7827 56.5847 23.6862 56.5847 19.6882ZM65.6722 19.6516V19.3469C65.6722 17.092 64.5316 15.739 62.7166 15.739C60.9384 15.739 59.761 16.9823 59.761 19.3469V19.6516C59.761 21.8335 60.9016 23.0767 62.7166 23.0767C64.5316 23.0402 65.6722 21.8335 65.6722 19.6516ZM70.5899 13.3743H73.2389L73.5455 15.6659C74.1832 14.1301 75.5444 13.0696 77.5557 13.0696C80.6584 13.0696 82.7064 15.288 82.7064 19.3957V19.737C82.7064 23.7227 80.4377 25.8314 77.5557 25.8314C75.6303 25.8314 74.3058 24.966 73.6558 23.5765V29.7075H70.5531L70.5899 13.3743ZM79.4811 19.6516V19.3835C79.4811 16.9701 78.2302 15.7756 76.5623 15.7756C74.7841 15.7756 73.6068 17.1285 73.6068 19.3835V19.6151C73.6068 21.7603 74.7473 23.1133 76.5255 23.1133C78.3528 23.0767 79.4811 21.9188 79.4811 19.6516ZM87.4034 23.2717L87.1336 25.4901H84.4111V9.31543H87.5138V15.5196C88.2006 13.935 89.5619 13.0696 91.4873 13.0696C94.406 13.1062 96.5644 15.1052 96.5644 19.1275V19.5054C96.5644 23.5277 94.5164 25.8314 91.4137 25.8314C89.3656 25.7827 88.0412 24.8441 87.4034 23.2717ZM93.3023 19.5054V19.2006C93.3023 16.9823 92.0882 15.739 90.3835 15.739C88.6421 15.739 87.428 17.1285 87.428 19.2372V19.5054C87.428 21.7603 88.6053 23.0767 90.3467 23.0767C92.2108 23.0767 93.3023 21.9188 93.3023 19.5054ZM97.9257 19.6882V19.3469C97.9257 15.288 100.538 13.0696 104.094 13.0696C107.724 13.0696 110.263 15.288 110.263 19.3469V19.6882C110.263 23.674 107.761 25.8192 104.094 25.8192C100.158 25.7827 97.9257 23.6862 97.9257 19.6882ZM107.038 19.6516V19.3469C107.038 17.092 105.897 15.739 104.082 15.739C102.304 15.739 101.127 16.9823 101.127 19.3469V19.6516C101.127 21.8335 102.267 23.0767 104.082 23.0767C105.909 23.0402 107.038 21.8335 107.038 19.6516ZM114.42 19.2006L110.14 13.3743H113.807L116.272 17.0188L118.774 13.3743H122.404L118.063 19.1641L122.637 25.4901H119.044L116.248 21.4678L113.525 25.4901H109.772L114.42 19.2006Z" fill="#000000"/>
<path d="M14.2259 10.5099L7.11295 15.0198L14.2259 19.5297L7.11295 24.0396L0 19.5053L7.11295 14.9954L0 10.5099L7.11295 6L14.2259 10.5099ZM7.07616 25.4901L14.1891 20.9802L21.3021 25.4901L14.1891 30L7.07616 25.4901ZM14.2259 19.5053L21.3389 14.9954L14.2259 10.5099L21.3021 6L28.415 10.5099L21.3021 15.0198L28.415 19.5297L21.3021 24.0396L14.2259 19.5053Z" fill="#0061ff"/>
</svg>
