<svg width="91" height="36" viewBox="0 0 91 36" fill="none" xmlns="http://www.w3.org/2000/svg">
<path d="M28.5221 24.3198L29.6262 21.7462C30.8351 22.6391 32.412 23.1116 33.9892 23.1116C35.1457 23.1116 35.8815 22.6654 35.8815 21.9827C35.8551 20.0918 28.9164 21.5624 28.8636 16.8085C28.8372 14.3924 30.9927 12.5278 34.042 12.5278C35.8551 12.5278 37.6691 12.9744 38.9568 13.9988L37.925 16.6273C36.7403 15.8675 35.2769 15.3378 33.884 15.3378C32.9378 15.3378 32.3068 15.7841 32.3068 16.3622C32.3332 18.2268 39.3251 17.2024 39.4039 21.7462C39.4039 24.215 37.3008 25.9484 34.3043 25.9484C32.0968 25.9484 30.0729 25.4232 28.5217 24.3198H28.5221ZM72.4864 20.8143C72.2077 21.3082 71.8023 21.7192 71.3118 22.0052C70.8213 22.2913 70.2632 22.442 69.695 22.4421C67.924 22.4421 66.4886 21.0076 66.4886 19.2381C66.4886 17.4686 67.924 16.034 69.695 16.034C70.2632 16.0341 70.8213 16.1849 71.3118 16.4709C71.8023 16.757 72.2077 17.168 72.4864 17.6618L75.556 15.9626C74.4063 13.9134 72.2131 12.5278 69.695 12.5278C65.9861 12.5278 62.9794 15.5318 62.9794 19.2381C62.9794 22.9439 65.9861 25.9484 69.695 25.9484C72.2131 25.9484 74.4063 24.5627 75.556 22.5135L72.4864 20.8143ZM41.3957 25.6856H45.2332V6.94189H41.3961L41.3957 25.6856ZM77.494 6.94189V25.6856H81.3315V20.07L85.8787 25.6856H90.7838L85.0012 19.0144L90.3631 12.7894H85.6684L81.3315 17.9648V6.94189H77.494ZM57.0559 12.7902V14.3138C56.4252 13.2631 54.8744 12.5278 53.2448 12.5278C49.8804 12.5278 47.2258 15.4957 47.2258 19.2249C47.2258 22.9541 49.8804 25.9484 53.2448 25.9484C54.8744 25.9484 56.4252 25.213 57.0559 24.1623V25.6856H60.8933V12.7902H57.0559ZM57.0559 20.8403C56.504 21.7594 55.3475 22.4417 54.0598 22.4417C52.2884 22.4417 50.8529 21.0076 50.8529 19.2381C50.8529 17.4686 52.2884 16.034 54.0598 16.034C55.3475 16.034 56.504 16.743 57.0559 17.6881V20.8403Z" fill="black"/>
<path d="M8.25646 6.52783C7.01287 6.52783 6.00487 7.53531 6.00487 8.77775C6.00457 9.07292 6.06258 9.36525 6.17557 9.63807C6.28856 9.91088 6.45433 10.1588 6.66341 10.3677C6.87249 10.5767 7.12078 10.7425 7.39412 10.8557C7.66746 10.9689 7.96048 11.0274 8.25646 11.0277H10.5084V8.77775C10.5089 8.1816 10.272 7.60966 9.84965 7.18773C9.42733 6.7658 8.85426 6.52843 8.25646 6.52783ZM8.25646 12.5276H2.25184C1.00824 12.5276 0.000244141 13.5351 0.000244141 14.7779C0.000244141 16.0203 1.00824 17.0278 2.25184 17.0278H8.25684C9.50006 17.0278 10.5084 16.0203 10.5084 14.7779C10.5084 13.5351 9.50006 12.5276 8.25646 12.5276Z" fill="#36C5F0"/>
<path d="M22.5177 14.7779C22.5177 13.5351 21.5093 12.5276 20.2657 12.5276C19.0221 12.5276 18.0141 13.5351 18.0141 14.7779V17.0278H20.2657C20.8635 17.0272 21.4366 16.7899 21.8589 16.3679C22.2812 15.946 22.5182 15.3741 22.5177 14.7779ZM16.5131 14.7779V8.77775C16.5136 8.1816 16.2766 7.60966 15.8543 7.18773C15.432 6.7658 14.8589 6.52843 14.2611 6.52783C13.0175 6.52783 12.0095 7.53531 12.0095 8.77775V14.7775C12.0095 16.0207 13.0175 17.0282 14.2611 17.0282C14.8589 17.0276 15.432 16.7902 15.8543 16.3683C16.2766 15.9464 16.5136 15.3744 16.5131 14.7783" fill="#2EB67D"/>
<path d="M14.2611 29.0278C14.8589 29.0272 15.432 28.7899 15.8543 28.3679C16.2766 27.946 16.5136 27.3741 16.5131 26.7779C16.5136 26.1818 16.2766 25.6098 15.8543 25.1879C15.432 24.766 14.8589 24.5286 14.2611 24.528H12.0095V26.7779C12.0095 28.0203 13.0175 29.0278 14.2611 29.0278ZM14.2611 23.028H20.2661C21.5093 23.028 22.5177 22.0206 22.5177 20.7778C22.5182 20.1816 22.2812 19.6097 21.8589 19.1877C21.4366 18.7658 20.8635 18.5284 20.2657 18.5278H14.2611C13.0175 18.5278 12.0095 19.5353 12.0095 20.7778C12.0092 21.0729 12.0672 21.3653 12.1802 21.6381C12.2932 21.9109 12.459 22.1588 12.6681 22.3677C12.8771 22.5767 13.1254 22.7425 13.3988 22.8557C13.6721 22.9689 13.9651 23.0274 14.2611 23.0277" fill="#ECB22E"/>
<path d="M1.1361e-06 20.7778C-0.000296033 21.0729 0.0577074 21.3653 0.1707 21.6381C0.283692 21.9109 0.449461 22.1588 0.65854 22.3677C0.86762 22.5767 1.11592 22.7425 1.38925 22.8557C1.66259 22.9689 1.95561 23.0274 2.25159 23.0277C2.84939 23.0271 3.42247 22.7897 3.84478 22.3678C4.2671 21.9458 4.50406 21.3739 4.50356 20.7778V18.5278H2.25159C1.008 18.5278 1.1361e-06 19.5353 1.1361e-06 20.7778ZM6.00463 20.7778V26.7775C6.00463 28.0203 7.01262 29.0278 8.25622 29.0278C8.85402 29.0272 9.42709 28.7899 9.84941 28.3679C10.2717 27.946 10.5087 27.3741 10.5082 26.7779V20.7778C10.5085 20.4826 10.4505 20.1902 10.3375 19.9173C10.2244 19.6445 10.0586 19.3965 9.84952 19.1876C9.6404 18.9787 9.39206 18.8129 9.11868 18.6997C8.8453 18.5865 8.55223 18.5281 8.25622 18.5278C7.01262 18.5278 6.00463 19.5353 6.00463 20.7778Z" fill="#E01E5A"/>
</svg>
